<mxfile host="Electron" agent="Mozilla/5.0 (Windows NT 10.0; Win64; x64) AppleWebKit/537.36 (KHTML, like Gecko) draw.io/25.0.2 Chrome/128.0.6613.186 Electron/32.2.5 Safari/537.36" version="25.0.2">
  <diagram name="GUI" id="vYLd9DRcIFqhCiIp27-z">
    <mxGraphModel dx="1909" dy="1191" grid="1" gridSize="10" guides="1" tooltips="1" connect="1" arrows="1" fold="1" page="1" pageScale="1" pageWidth="850" pageHeight="1100" math="0" shadow="0">
      <root>
        <mxCell id="0" />
        <mxCell id="1" parent="0" />
        <mxCell id="oXK44TCzweg5uLpszrzs-11" value="" style="shape=image;verticalLabelPosition=bottom;labelBackgroundColor=default;verticalAlign=top;aspect=fixed;imageAspect=0;image=data:image/png,iVBORw0KGgoAAAANSUhEUgAAB34AAAPgCAYAAADdnN2lAAAAAXNSR0IArs4c6QAAAARnQU1BAACxjwv8YQUAAAAJcEhZcwAAEnQAABJ0Ad5mH3gAAP+lSURBVHhe7N1/fM1l48fxt/1wMDZtTMRmssn3Zsmv0qxIKxV3qomkH263Vo1EJUWSKK3iRisqFfduUcs9t7pbLSbjJqKMWqbGhmlj2Bg79sP3j3O2nX12DhvGzryej8fn0TnXdX1+fzanvc91XfW8vb1Py0b9+iZ5ezdTkyZeql+/gVxcXGyrAQAAAAAAAAAAAACXSElJiU6dKtCxY7k6fPiQTp0yS5Lq2Qa/vr6t5OvbUkeO5Oj48WMymwtUUlJiux0AAAAAAAAAAAAAwCXi4uIik6mBGjduoiuu8FF29gFlZ2eWB7+tWwfI3b2+srIOqKio0Lg+AAAAAAAAAAAAAKAWcXNzV4sWLVVYeEousvb0dXevr/37Mwh9AQAAAAAAAAAAAMAJFBUVav/+DLm715dL/fom+fq2VFbWAWM7AAAAAAAAAAAAAEAtl5V1QC7e3s105EgOPX0BAAAAAAAAAAAAwAkVFRXKpUkTLx0/fsxYBwAAAAAAAAAAAABwEi716zeQ2VxgLAcAAAAAAAAAAAAAOAkXFxcXlZSUGMsBAAAAAAAAAAAAAE7CxVgAAAAAAAAAAAAAAHAuBL8AAAAAAAAAAAAA4OQIfgEAAAAAAAAAAADAyRH8AgAAAAAAAAAAAICTI/gFAAAAAAAAAAAAACdH8AsAAAAAAAAAAADgslBSUqyiokIVFp5SYeEpFRUV6fTpEmMzp0TwCwAAAAAAAAAAAKBOKykp0cmTJ5SXl6sjRw4r78hhHT2So6NHD+vYsTydOmU2ruJ06t18822nd+78xVgOAAAAAAAAAAAAAE6vpKREx47lqaDghPr6+iv86s5qf/XVOu3ZSD/s+V0xm5P0R85BeXh4qFGjxsbVnQbBLwAAAAAAAAAAAIA66fTp08rLOyrXwiJND+6jEZ2vl3sHf7k0bFDWJisvV39fskCrdu2Qp2dTNWjQsMI2nAVDPQMAAAAAAAAAAACoc4qLi5WXd1QeJac17do+Gt4tRPU7XV0h9JWkFp5e+ucjkQoJCNKJE/kqLi6uUO8sCH4BAAAAAAAAAAAA1CnFxcU6fjxPOlWolzvfrOHdQuTR3k/13NyMTSVJTRt6aOqdg1XfpZ6KigqN1U6BoZ4BAAAAAAAAAAAA1ArHj+fp9OmKZW5ubmrQoKEKCk6qqKioYqUDhYWn5FpcrA963qW7/q+rGnTwVz13+6FvqYPH83Tfh7P084G9cnevb6y2q149qXFjT2PxJeHatu3VU3NyDhrLAQAAAAAAAAAAAOCiOnIkR3JtoPpNrlQjjyYyNfKUX1B33Tpkgo4fy9WpQrPqN2zicDl16pTyjx9VvZLTGntNT43o2lsNrwk4a+grSYXFRfpu53ZlHM9XE+8rK23buBSczNfJE8fUuHET46YuCXr8AgAAAAAAAAAAAKgVsrIPyK/LPbr2zkm6ppWrGtSvp/oNPOR5RQvlHf5Tp8wnjKuUycnK0NdLZigtbavk10Jdcgr1jyEjdUP7a4xN7crJP6YHPpmr09fcpL6DIo3VlXy5+FX9vO4L+fq2NFZdEszxCwAAAAAAAAAAAKDWcG/oqSa+7dX8qkD5XhWopj6t5OLiqqbNrpKvtcy4NPZspk2r/qX0jO3SzCd01euR2t/aSw9/Ol8/7Nll3IVdR0/k65c/96t9pxsrbd/e0tDDy7iJS4rgFwAAAAAAAAAAAIDTKjh5XLELntPmLf9RycuPqs2AUN3do7tue+MZ5Tapr0di3tPGPbtUYpw82EZhcbHeSfpG9b2vUqu2nYzVToHgFwAAAAAAAAAAAIBTyj18QJ9Fj9Wmrf+R6/ihCrrrJv21flOZ6rnI9y/tNfD9V1Tg10zj//1Pbdxtv+dvvrlA89d9q082/0/d+w5V81ZXG5s4BYJfAAAAAAAAAAAAALWSq4t0dQsXBbV0kauLFNTSVf7NLRFn4akCJX35vrb+799yef5BBQ2+XTc19lb9euURaPO/tFe/155W1pUeGv35R9q053ebrUsnC09pwf9Wafo3/1a3fsPU+86RcnM3SZL8m7soqKWrdb8uurqF5Rhqq1p8aAAAAAAAAAAAAAAuZ64uUkALV13d0k2uLlL7lq5q08xV9SRl70vVlu9jVfRQmJqH91OfJj5qXM/VuAn5dg7ULTOeVmZD6Z4P39bm9D/K6pZuWa9pX8eqc98HNSTyH/Lw9JEk1ZPUppmr2luD36tbuimgheV1bVWLDw0AAAAAAAAAAADA5exUkbT210KtTj6lwiJpVfIpbdpVqNOS9u/eoUOFOdKQWxXq3kQNbHr6GjXr2E53vTtF9do0V+TnH2l16g59uGG1Jnz5ubqHPaq7/zZd9WzWPy1p065CrbLud3XyKa39tVCniipstlZxfPYAcJH53TNBC1ckam2iYVnxpoYZGwMAAAAAAAAAgMvCqSLJXGQJY81FlveSlJn+q063b6VGnh66yrW+cbVKfDsHqv+cF5TT2ktPxS7Ss//+p669eYjuePBFNfTwNDZ3uN/aiuAX56zTyOl6bWQnYzFwTvyeXKaEd5/SnT0DFXiNYel5l+4ZaVwDAAAAAAAAAABczk4V5EsNG8jk6ioX1TNW2+XToa3a3Hid0o5kq3vYoxo0coa8vK80NnNKBL84B5009l8/6cvpj2rE9BXa9q+nRPyL8zNIr0WEyFNS3rZPNXPMaEXaLo+N0jMLjesAAAAAAAAAAIDLmZf3ldLBIzp2yizz6RJjdSXFpwqVsvw7/fzhct142990/5Oz1KBRE2Mzp1Xv5ptvO71z5y/GcsC+a59SzMdj1a+lqUKx+cBqzR7xsOZsq1B8Eb2ptQceUGDeer3SYYjmG6tLPbZMO18Jkda/qg7hC4y1uGSs9y9/i+a0v1szjdW1VhWfOwAAAAAAAAAAUCVZWQfULOB6te0WrtbeLnJ3c9yTd++urdqQtEya/6xCbuqlHu4eDvv9Fuaf1PZ/fan1b3yoJp6+uiHsITW5ooWxWbX8uOYz7f51o1q0aGmsuiRqSfAboc9/eUm9vY3l5+nwer3yF8KYC6XfS8s0a2SIfE2S8nZp+WsP6w09r5gXBynQU5L5oNYtfEaDX11tXPUiqGIAR/BbS1Xx/tU6znrcAAAAAAAAAADUTtnZB3RaUj0XNzUw1Ve9evVUz0Gce/p0iczmAhVd00YeH0/WLc1b6Wq3BpVaF5lPadsncfph7j/lcqpY9eq5yMXF1dCq6k7rtMwFZpWUWCb99fWtHcEvQz2jCm7Ry7E/aeGTltA377c4vdi/ryIX7VXGotG6qf9kLf8tTzI1V+8nP9C22JfUz7gJoMa00ePvxyvh/Qj5GatQM25+SZ9v+lV7Et801gAAAAAAAAAAcF58fVuqSWNP+fu10ZbkX7V7734dO5Zrdzl+/JiWLVsm78xc5UdEac2eNO0vLNBp67ZOl5xWcWGRti2O04a3PtKIB4brxIkTys8/Xmlb1VkOZO5Xu3Zt1bixZ60JfVV7evyi1rrtJX0+81H1bmmSlKddsVEaPuYTZRjbqY1GzFusieGB8pRkPrBeH08cole+NbarKVXseUmP31qqivfPrglauecpdTdJeetfVVj4AjvPZ005n+N2YtafI8/fP1XL0OeMtQAAAAAAAAAAnJcTJ/LVsGEDTZk2XU0ae8jTo6GxSZmSkhJ98skn+s9//iO19pXHHb3Us0tnNXJzU97eP5X27Xrt37RdwcHBevrpp+Xtff5DEJ88eVLPPPOMjh8/oUaNPIzVlwzBLxyyN7Rz5KK9xmYV+D3yziUa+rmKARzBby1VxfvngN+Ty5TwUog8dbHD3/M7bqdF8AsAAAAAAAAAqEEnTuTr+PE8ubq6ytXNTW5ubqpXzziAc0WFhYXlb+pJ9eq56HRJSVmRq6urXFzOfzDk4qIiFRYWqri4WI0bexL8ora7RS/Hvq0RIc1lkmT+PU6vPDxaH+82tnMg4FFFL35J97Y3STIre/0nGh/+qlYZ211QVQzgzhT8BgzSy9PHalhIoDxN1jJznrJ/W61/PD9aH2+r2PztpH0a1n6XlrQco4yP5unJW6zrmfO0a6W1Z/S1jyr6HxN0V3tPmdwMdRU3J137qKLfGKtb/9Jcnm6SiszKO7hL380ZddbA3flV8f6dwaUJf6t53KX3+JrmFZ6xXes/1T8mv6rldn7G/O55Sa+Nf0C921qfoaI87Vr7qV75vpPedfQsV2M/j8f+qpdDPLVraWvdNK683MJ6fmUBr/W9sZn1mlc6DgAAAAAAAAAAzsHp06dVWHhKR47k6P5HHlf/v94nn6YecnM9/+D2fMV9vlQfRP9DV1zhI3d3yxzEtcWlvzqoZSK0cOsHetwa+kpSxo/VCH0lafcnivyxNHIzyTckQgs3vaNhhma1ym3TlRD/jh6/JVCe+Rnasf5r/Xf9DmXke8r32kF6bUWi3r7NuJIkmeQX+5kmhpiU8eN6/fj7QZlNngoMf0kxs1/S50um695WR7XrB2udq7XurZCKm7ltuhI+m657r20uHdihdStX68c9eTK17KR7Z36jzx+r2ByVZbw7RGGvrleeJM+Ql5QQW7vm/PV7crG2rbDcY9PhXfpxdZxWbdql7CJPBd4Soegvl+nxAOM6y5TwboT6tfeU+cAu/bh6tX7cY5bfTRF696E2FRtbnct+qm6vdv22S7t251ne5h+0vP9tl1L3ZBkbAwAAAAAAAABwTurVq6d69SwxZoOGDVXfZNKJ/HwdP3bsgiwlJSXy9Gqq/OPHK9U5Wk7k56tBg4Zq2KiR9RhdalXoq9rT4zdEExdN14gQv7Kw8fyZlbH+E734SJTWGatwBi8pYU+EOpl3aV1mC/W+xtAT8LaXFDP+FvkZb5R5r1bNerh8Tt/ZiTowNFB5v61XVqsQBWq9ZnYYojmG1S4cxz0R7anYOzFE0f9bpnsDzMpY+aoGP2bbG7eNRry/TC8P9JNpd5wG3zi67Hmy9PiVdHi9XhkwRPOt4bjfhBVaO66b5Vl2VLf3aw3uOcq6rRC9nbRMw9pm6L+Th2ikTe/esl6shn3XPY57zvZ7abEm3tKm6r8bvP0U6GtpXfM9fx0fd0VPaeXvE9TdI08/vjtaAysMf36LXv7yHT3ezVPmTVFqe/fcSuusi7pfg2fvKFvD7553FDN7kAKt8xqXP8vV30/1evxaMdQzAAAAAAAAAKCGFRYW6vDhg3r48XFqe3WQPlv0nvKPHTM2Oye9b75FIyIi9cSjD+jUqVPGars8vbz0xNhnlPpbiua++Zq8vZvL3d3d2OySqiXBb/VCu6rbpSUt++oZYzGqxF4gNGLpr3rtZk9jU0lS3veT1WHoJ5Y3pcHvRRv+1foMFeUp4/csmY3VpUwtFBjgWfG4hi7Wttm3yHfv1xrec5SdIakfUMy2N9XP96BWjblOw2MtpaXB746FvRQ22XYo5gh9vvMl9fY068fZV2tglE2VXlLC3gh10g7Nb9Nfr0hS+GJtm3eLtPo5Xfvgp7aNJYVo4aZlurNNXX+WHQeobyfu07BrbAqqpaavm+PjtuU3PV4/jOwk85a5umlAVOUgOmC6EtY+WvG5eCVeBx7rZAiDy/V+/3/6fKBfhWf5XPZj7+e8HMEvAAAAAAAAAODSsA1+r2zVRu+99Yoej3hMwcHBxqbVMnHiRP1fcFc98+LL+mu/G3XjjTdq5MiRxmYVJCcn6/0PPtTkV9/Q3ow9tTb4rSVDPT+nV6I+1fLYuAu6LIl6tQYDn8uTyc3yX/Pvq8uu86rfrTGrW5X7ZNacE9v1cd++usnR8sl2WQepLXd9G/lKyvj5EzuhryR9qnW78iQ1l98NxrqDyvrZ0fy7Wcr43FiWraMnLNeqLD4Psezf95Y3deDAPsOyTHfaH9H3svHM05P1sZ2fb0fLur2lsX+ediysHb8D7rzGT5JZ29faCWMlafcCpe6V5OanTtZ/Wx7/i2Wg6l0/Vw59JWndj3srPcvnsh8AAAAAAAAAAJxF37599eCDD1ZYhg0bpsGDB1dahg4dWqntgw8+KC8vrwrbbN++faU2xqVv374V1qmtaknwK62a/Zwix4y+oMszs22HOcWFZM5aX3ad12U57F/rFB5v00KSZM5fb6yqzNVYcFRZ1h7AlZlVUIW5kcv2f8AyV6r95Xf7Qd7lYNsnetHOz3fl5Q39aOqqHm1M1tB3tMIm147fAYEtPC3Pw1FjTam9Kii2vrQ+Y4E+npLydHS/bbszO5f9AAAAAAAAAADgzHJzc/X666/r+eefL1smTpyoNWvWGJvWebUm+AUulf8esKRkJo8QY1UlZmMXywugdP+52+dU7qFctoyqwfmR6wKbuZhrWegrSbuy8iSZ1KCpscbILPNhy6uD+aU96Ss0KHeVV3mvcatz2c8Z3dy06nMrAwAAAAAAAABwCeTn5+vDDz/Uws+WKO7n9fp8w2rNnTtXW7ZsMTat8wh+cdnL2G4ZMtev0wPqbayUJD2g3oGekjKUWgNZYsbegzJL8g281cH+cWa1O/SVpP/uzZJkUueQp4xVFgHTFdxWUn6GNlt7kKfm5EnyVFDIA8bWkqSxXSrPin4u+5m/N0uS1KLloxXbSvILayPLgNMAAAAAAAAAANRuAbfeoLs/fk23vlEbJoG8NGpN8OsXcofuDR90QZc7Qy7zyVFRNe/HaXO2pIA79Pb7jxqCrja6d95j6u0rmX/5Wm98X6Hywoj6rzbnWfb/2rxBlfc/M14r36pQiAru0b231N7QV5Iy5q7WDrNk6vm4Vr50i6G2k8a+ea86uUnZ65eW9exe/tF6ZUjyvWmMFj5S8XdZp3HL9GTXyn1xz2U/SslWniTP7vdoYoBN84AIvX1PJ5sCG4fNKpAkzxa611gHAAAAAAAAAEANKyws1JgxY/Tkk0/qxRdf1NGjR1XPxUUu7m5ycXNVSUmJ4uLi9OSTT+rJJ5+8bIZ9riXB70tauPQDRc9754IuC5d+oJeNuwIq+VTDn/tUu8wm+Q2crh9++Z/WrlishbHx+uGXDYoOD5Qpe71mjnq1hubZXaBn5qxXnkwKDH9Ha7clKiH2A8WsSLTs/5FOqjjNOCqaqxde/0QfT77/0oW+jTprRGKi1lZaPtBYSdr9qkZGrVeePNX9ycXas7X8Hm/7PV4TQzxl/u1TjX/k0/Jtfj9aH68+KLn56c6Za7QtaYVi3l+mhE2/KmFCd2X9sEOVRh4/l/28v0Bf/m6WPLppbOJPWrtisaV94ksK/n2L/Wc+9kdl5EvyvUWvb1qhz2MTtfZfEcZWAAAAAAAAAADUiOLiYs2fP1//Wrlc6//8Qy1uvFbNr2knSXJv1EDtwm5UdhMXrfzpf1rwwfvavn27cRN1Ui0Jftcr+fc8mfPNF3TJ+3271hl3Bdjz7XO66e7JWr7toPI8/BTY8xbdGdJJfm4HtePruYocNETzdxtXunAy3h2isCcXaNXveZJ3oDqF3KF+PQPVQru07l+T9eSzxjVga8fCyXpx4Q5j8cXj5im/awIVWGlpX9aDu8I9bl5+j73Mlns8oO9zWmXY7PwH/6rI99crI88k3/bd1G9giAI9srTq3VG6aXWuobVF9fezWs88/KqW/5Yns2tzBfa8Rf26tlDBjwv05N2pss40bDBXka/GaddhybNNN/W+3k+mfMuQ0QAAAAAAAAAAXCxX3XCtbpv1vG6b9bw63hcmSWrU7IqysuufflhuDSqPoFlX1bv55ttO79z5i7Ec0OOxv+rlEE/JbJa5yFpoMsnkJqnILHNpImSvzM0kk0nKW/+qOoQvsBYCjryptQceUGDRDn18U3+9WIMhe13hN+9/+iHcT9nfjta1j8QZqwEAAAAAAAAAcGqFhYU6fPigHn58nK5s1UbvvfWKli39VP3791dBQYGaNGmioHv6qc8rYyRJrvXd5NbApNMlJTp1/KQkKXt7qv4zcrLeem2mxoyxtOvUqZOu8r9az7z4sv7a70Y9/PDDev/99yvs2yg+Pl4PDHtQk199Q3sz9mjum6/J27u53N3djU0vqVrS4xe1UXaeNcU1mWTysC5u1kq3s5RZvzxRkEcvQFRFnDb/Lsmtk0bE/6/SkMkJ/3pJ/YyrXNZCNLaLnySzMn4h9AUAAAAAAAAAXJ72bdymb8e/oW/Hv6GULxIkSScOHS0r2/iPxSoqsD+2ZV1Ej1+cQRv1HthNvufaA958UD+uXG9/jlDA6LbpSpj3qDp5GiskKU/rJv+fBi80ltdlEYpJvFO75o7WK//ea1PeRvfOW6xZ4YEyHV6vV/4yRPNtagEAAAAAAAAAqAvO1OO3sLBQTz/9tIqLi5Wfn69///vfaj84TLdMH6uje/brk9CH1LNnT3Xp0kWSNGTIEPXt21eq4z1+CX4B1CKd1O+pobo3sGmF0oK932lOVNxl9iWCCH2+8yX19pTMB3Ypwzqlr8k3UH7eli9WrIr6q4a/axsKAwAAAAAAAABQN5wp+LW1f/9+3XDDDfLp1019X31KR/dk6p99H9Vrr72mCRMmVGirOh78MtQzgFpkh1bNnazIMaMrLM9cdqGvJP1Xc+bE6ce9eVLzQAVeY1n8PPKUsSlOL959HaEvAAAAAAAAAABWad9tUNwjLyhhwpvGqssGwS8A1Ep7te7d0RrY8//Utk1rtWxpXdr+n66/e7Q+3mZsDwAAAAAAAADA5cfDw0MjRozQo/cO0cBO1+veHjcrMjJSXbt2NTat8wh+AQAAAAAAAAAAADglLy8vTZo0SVFRUWXLG2+8oT59+hib1nnM8QsAAAAAAAAAAACgVrE3x++Q+wfrmmuuMTatljfffFPBXXuWzfF73XXXafDgwcZmFfz222/6PPaLWj/HL8EvAAAAAAAAAAAAgFrFNvi9Oqij/rP0E53IP2Zsdk6uDwnVg4+O0jORf1fhqVPGaruaeHpqRMRopfyyneAXAAAAAAAAAAAAAKrCNvi9feC9clehXOoZW52bho0aydOrqbL/PKDTp08bq+1ycXFR0yu8FRe7tNYGv8zxCwAAAAAAAAAAAKBWOH36tE6fLtHp0yWSpFNms4oKC+XRuLGaeHpekMXNzU0n8o+rcZMmleocLR6NG6uw8JTM5gLrcVqOsarB8cVAj18AAAAAAAAAAAAAtUJ+/nHl5x+Ti4urJMnNzU2ubq6qV+8Cdfc9T8VFRSoqKrK8Li6Wh0cTeXg0Nja7JAh+AQAAAAAAAAAAANQK+fnH1NCjse689wFd2bKlPD0aGJvUCgez/tSyfy3SsdxceXg0MVZfEgS/AAAAAAAAAAAAAGqF/Pxjataipca88KraBwapWVMPY5NaIX33H5o68Rll7ttL8AsAAAAAAAAAAAAAp0+XlA2ffPLkCTX19lH4Q4+ptV8beTVuaGx+0TVp0kSt/dpq3950HcvLkyT9mblfC9+bq0PZ2WrYsJFkHZa6Xj0Xw9oXD8EvAAAAAAAAAAAAgEvm1KlTOno0R5J0+vRp1atXTy6urnK5hCGqrdZt/HRzv9u1NjFBe9P3SNbjLC4uKjteSWra1Ef169c3rH3xEPwCAAAAAAAAAAAAuGROnTplLKpVXFzqyc3NTUVFxSopKTFWV0DwCwAAAAAAAAAAAAA4Z7WjfzQAAAAAAAAAAAAA4JwR/AIAAAAAAAAAAACAkyP4BQAAAAAAAAAAAAAnR/ALAAAAAAAAAAAAAE6O4BcAAAAAAAAAAAAAnJxLSUmJXFzIfwEAAAAAAAAAAADAWbmcOlUgk6mBsRwAAAAAAAAAAAAA4CRcjh3LVePGTYzlAAAAAAAAAAAAAAAn4XL48CFdcYWP3NzcjXUAAAAAAAAAAAAAgFrOzc1dLqdOmZWdfUAtWrQ01gMAAAAAAAAAAAAAarkWLVrKRZKyszNVWHhKV13lR89fAAAAAAAAAAAAAHACbm7uuuoqPxUWnlI9b2/v06UVvr6t5OvbUkeO5Oj48WMymwtUUlJScW0AAAAAAAAAAAAAwCXh4uIik6mBGjduoiuu8FF29gFlZ2dWDH4lqX59k7y9m6lJEy/Vr99ALi4uttUAAAAAAAAAAAAAgEukpKREp04V6NixXB0+fEinTpklqXLwCwAAAAAAAAAAAABwLnTnBQAAAAAAAAAAAAAnR/ALAAAAAAAAAAAAAE6O4BcAAAAAAAAAAAAAnBzBLwAAAAAAAAAAAAA4OYJfAAAAAAAAAAAAAHByBL8AAAAAAAAAAAAA4OQIfgEAAAAAAAAAAADAyRH8AgAAAAAAAAAAAICTI/gFAAAAAAAAAAAAACdH8AsAAAAAAAAAAAAATo7gFwAAAAAAAAAAAACcHMEvAAAAAAAAAAAAADg5gl8AAAAAAAAAAAAAcHIEvwAAAAAAAAAAAADg5Ah+AQAAAAAAAAAAAMDJEfwCAAAAAAAAAAAAgJMj+AUAAAAAAAAAAAAAJ0fwCwAAAAAAAAAAAABOjuAXAAAAAAAAAAAAAJwcwS8AAAAAAAAAAAAAODmCXwAAAAAAAAAAAABwcgS/AAAAAAAAAAAAAODkCH4BAAAAAAAAAAAAwMkR/AIAAAAAAAAAAACAkyP4BQAAAAAAAAAAAAAnR/ALAAAAAAAAAAAAAE6O4BcAAAAAAAAAAAAAnBzBLwAAAAAAAAAAAAA4OYJfAAAAAAAAAAAAAHByBL8AAAAAAAAAAAAA4OQIfgEAAAAAAAAAAADAyRH8AgAAAAAAAAAAAICTI/gFAAAAcNHM2ZijnJzKy4Z5xpbnYo422Nl2Ts4GzTE2rYsCwhX1VYrSsqznnZWmDcumKczYrjZwpmPFJRW5Is3Oz3SO0lZEGptesucq+NlF2pCaWXZsmdsTteBv/sZmAAAAAFDjCH4BAACAy8Wz8cq0E6CULinLhhvXgCQpUnFpla9XlZe0ONmJqC6wUM3551yNvMFXXm7WIjcvBd0aqQVf1Pzeq8eZjvXicRRwVljWRKm6cWLo+1srb8e4bKwLX424RM/VE3GKe2GAgnxMZUWmVsEKn75Uc/pUaAkAAAAANY7gFwAAALhMTAoLVnk0UZlv8AAR/TqrcPXsaP/uel0XdhGC5+pwpmOtZTr2UGSAsfBMQjW8a3WjYmd1aZ6ryP7B8jIWSpIpSD3vMxYCAAAAQM0i+AUAAAAuC5MU6iAUKePbU+FPGAuBKuoSpvEzlyr+pzRlplyMXs6XIbdg9YioRpDbZ7h6VCsoRnUVFBlLAAAAAODSIfgFAAAALgfTb1UPD2OhkZeC+xPXOadZSthuNhZKknJ/SlC0sfBC6ROpOSsStTU1UzmrlmrSqDD18POS6YzfMbhEx1pHBN8QWeXhnkOH9ahyW+d3aZ6rhV9sUraxUJLMqdr0hbEQAAAAAGoWwS8AAABQ5/krqnewsdAur+sGaryxEE4gXVNGPKXodenKLe2BWJSr1K9maNB9NRV5SeoYpoG9g+VvM7/p2V2iY60rOodqfJV68V5Owzzr0j1XS4ZqyMRYpeaUh87mzM1aOGaoxq6p0BIAAAAAahzBLwAAAFDXBUSqR0djoZSekW4skjyCdduzxkI4krrERz4+Z1naDaqx3oYV7I7VlLu7ql0L635btFOvh2cp2diuNnCmY72UcnOVayxTkHqOr0Kga2eYZ3Nu5a3VKZfouUr+IEK9glqV/cy36txfE76w8/sVAAAAAGoYwS8AAABQx/mPD1Wwm7E0Vxm/2guBTAruS59foHbIUlaOsUwK6jH+rEM4hz5ceZjnPw8fNZQAAAAAAOoSgl8AAACgTgvVi72CjIVSfqo2T05WqrFckqnzbZpkLARwCWQpPdNYJimw51mGew7V368zxr65yki3PwcuAAAAAKBuIPgFAAAA6jI7w71KkjklSTN2xyp5t7HGMtxz6AvGwrPxV/gLixT/U5oyM3OUk2NdsjKVtjFOc0ZVbY5hhwLCNWlxvLamZiozy2b7mWnasGKORnYxrlAb+WvSN5nlx25YNswLNa5gNV7xGZXb5+TkKHPNtLJenXM2Vq63bNewOVtdhmvSe3FKNN63HMu9y8xI09Z18Vr6ZqTKjm7ehvI200PlVXGLFl6hmlbhONIU90R5ddWPdY422GmXk7NBc0qbBIRr0uJEpaRVvLaZqRsUN3ukqv7kBWv4S3ae4cw0paxbqmn3Wa505Io0O8eTo7QVkcYNnj+vFjKn2Rsy+CzDPff5uzr7GcryU5WlFobC6vBX6Jg5iluXorQMw3OcmaaUdXFa8EJ4pV7GZxI8yro94++M7YlaVM1tqVrPlT3+Ch0TpaVfbVBKmuH3TE6OcjIzlbZ9g+IXT1K47e/UJ+KUZmefOWlxqvREVKVtl5Gas2LDBbkmwcMmadFXW+3cr0yl/RSvpTOr8/MBAAAAwBkQ/AIAAAB1mL3hXiVp5+YZkpIUk2wvVDKpx+3TjIWO9Z+m+JStWvDsAPXw85LJZFPnZpJXYKiGz4zX1o9GqoFNVVWFTY1XysYFGn9XD/n7mGSyHbba5KWg3sMV9d+tWvS3c9n6xZSuGY9/qGQHnS6D7nqmclAkKeyj4erhYSyVZE7WhyOmyN4dPLtgjVy8QZnfzNH4+0MVbLxvstw7k4eX/Dv2UNh9YbUyIPIfs1Rb1y/Q+LuC5etV8QRMPkEKfThK8duXKtLOlx8q6D9N8SmJmvO0nWfY5CXfjmGKfH+DNswLs6m4OI4u3m73Hp9puOfQhztXqjOnJCm50pDvVeN/3zTF/bRBcVOHK7Sjr7w8DA+LyUu+HUMV/uwCbU1LVJQ1JHcoYKQW/ZipxJnW7Rl/Z7QK1oBnFyjxm2nnFVVXVfCoBdqQtlVxU0cq7IYg+XoZfs9Ikskkr1ZB6nHXSA3vb6i7QMJmJirtmygN7x3k+JqsidJZn8IuI7VgXZoS543XgBv87dwvk7z8eihsVJQSM7dq6bO18acbAAAAwLkg+AUAAADqrHBF9rITwBQlK2my5WWSg1BJHUNVpei3/xxt+ChSPXyNFUYm+d89SWFnbVdR2LwNWjSmh3yNIYyRyV8DJoddlJDovOyeoilf2Btg29JLdrix12/ANL3Y3849lFnJHz2qKfZ6bJ9VqKatilPUXUGVwy0n0mBMnBKnhsnfGFgbmFqFadLH5T2jK6nGMxw0bIGGX2Usr2FrPtT2DGPhmYZ7tjfMs1nJa2YYyqom+Nk4xb8bqVC/s1zoUl7BGjkvXkvHGI/BKiBScd9EaUDA2bfn1T1SwzvX5Bc6/BX5rxTFzwxXkN2u6xdPi3kbtGhUsLzO8jPp1Xmk5v5ruLG4jP99C7Thv1EK71jFEzL5K+yFOCXOPGucDAAAAMAJEPwCAAAAddWwcF1rL8xK2ayFpa/XrFRqdsVqSZJbsEJnOghuSgVEKm7ucAWdPb+x8pJXFbMISfIfE6cFw4JU9c172R92uAYFDbMzbGuFpeIQx5KUNGaKvrQX5EkKunuSxtu8Hz59sILtXADz9g/16GS7kf1Z+U+fpr93udhX6kJrobAxDoaZtsPUebDeGGYsPbdnOCigqnu9UJL04WZ799rBcM92h3lOVtLrhrIq8B8Tp7gXQs/+xQsjk6/Cxs2x09M6THM+naRQH2O5Y16GntwXjr8iVyRqWn/fqv+OqSluwRp+X9V/1/neOlJRla6t5UsMS+eFV+N5LuWl4BFvaEEN9WQGAAAAcPEQ/AIAAAB11PC7r5W93Dd1e7RNL99YxW61l/xKwTdEOu4lKWn49NFnDHByM1OVmpKq1MxcY1UVDNcbT54h2CvKVfYuy/azz2Xzl1SCHnkzQXavukcPDX/f2us3IEojb7VzB89riOdQTbsr2G7AZM7crJhXIxTxYF/1fTBCEU9EaMYHsUrYmK7c/ILyhhu+VOxnsZblu1TZHbk6P1UJpW2sS0KKsdH58JJX6bOXm12F58xX194Vbiw86zNsLnuG7Z7lRZO0ZLPd+21vuGdHwzxXv79vpOY4CNfNmUlaOHGo+vp01aBxs/Rlip1r7xWq0dMr9kz1n/6iBgfae/oszDnpluudkStzkbH2wvIfM0fP9LZ3duXKjiclVdm5NfgMeHiVDe1cus/0nDPszy1YPUYaC0M1Z/Jg+6FvbqpiX31Eg7r7qO+DMxSzMbvyz62bvwZOPEPPeAAAAABOgeAXAAAAqJMiFW537NpUbZpVMUKK/Wqb/RCyYw87PfasHIWSkpSzWdGPdVW7zr3Uq3cv9ercTl0fW6hkO9mQI/4zRzocFjr3x2hF3NBOHW+wbL9ju66K+ChZ1dj8pbdkqN5ZY/+I/ftbev1G/iNcwZV6Wp7PEM+SFOyg13WuNr3bX2P/EavY+GQlx1vC2lkTIzT0rq5q13mookubLpmhiCcswXDEmizZRMLlirKUVNrmiQhFPDFB0WuMjc6XWekrJqhru47lz9nUJIfPge/VhmG0Nc3xM5ybrIWPdVWrsme4VbWf4QtqTYw227vnlYZ7vnDDPIe+P9JuKG7eFaNHOg/ShA8SlKx0JS2eoUd6R9jtxe7bK9xm3urheuM++186kDldX07sq1ZBXS3X+7p2anX7DCXUWOB+pi+WmJW9LloR3X3Kj6d3L3Vs10pd756imI3pDp+x85OrzfOGlu2za1ArDV3i4IsVkvw7G2YEf3aSBne0c3VzkjSlXy9F/ONLJe2WkuNnaexd/RX9Y+UtmzqHORg+HAAAAICzIPgFAAAA6qJnB6qnvVRjd7JijQHSkiTttJdkuAUr1N5QspI0soedUFKS0vXlU/015YuK4XL6FxPUd7KDXq52jLwh2FhkkfGlIm6fYjiHdMU+11dT4qu69doh+tm3lWTvunv00PCPFij8hso38HyGeD4zLwX3P3MP79rGvP1D3fO3hRV6wqbPG6R3NlYOtCRJvv42IaSk6aEOnuFsJUzuqwnn+QxfWEmK2WrvvhuGe3YwzPO31R7mOVR/72HvacjW2rljlWAsVoKmrLMzd7VXB4Xeb319/wD7Q8/LrM3z7tEjHyRXLP55lob+9UMlO7id5+WJcPV0cCypSx5Rx7uNv2Ms0tdFa+xdffXIe8aa85cdP0X9p1a8sgljJmilneOQJK8WQRXeTwqzH6onLx+r6ErbSNeMuE12AuwgBVfqSQwAAADAmRD8AgAAAHXQ+L72Q4D05BglGQsVrYTtlSMAORhKVpIiO9srlbT9O02JNxZaLXle3+4yFtoTqWBjeGWV/M0UO6GTRczkb2Uneqq9dkdr7Aeb7fbo87/LTm/f8xriuVSWCuztUJJX72namrpBcbPHK6yLsba2MSv5G/vXYtZPO41Fdjl+hlfq+SXGQqsqP8MXXtLrSXaf76BeL6q0L3P4qJ6Vfl7N27/VLEPZWQUMrxwgS1L2NsU6uDbpv2bZCRJ95d/L8sq/b5DdoeeVvVYxr9u7k5J2T1Hs5spbPV8jbw2239s3I0FTxjj6DVOT0rXpgxhjoaQkJeysylcNItXD3hDaRclKmujg2r6XrixjmST/jiS/AAAAgDMj+AUAAADqnPG6rbOdEEDp2r64cuwrSdFJDoYUDQzVi32MhVJQC7uxidJTbOcPNkpXalZVQpwg2d98ulIXON66dqeqSpu/gFKX+MjH50xLOw06Q+/A9Ndn6PMUO1feGPqe9xDPpWL1pYM5nSVJPkEKfXiSlq7KUeb2RC16IbxSkFg7/KmsDcYyq/25dgLIymr2Ga4Bu2dpk73QOaCHhveRpHCFdzVGq2YlJ1Y79pX6t1BTY5kk+YZpQU6Ocuwt0x0MnWx9lge0srtF5aYmyV7kWSo6w148eX6Cr7J7pEr/6UOHXyypUfnZSnUwFHrs4aPGIjsc/M50C1ak8T6VLcNVsc+wlVsDYwkAAAAAJ0LwCwAAANQ1L9ymYA9joST5a8AXxj/+W5cXetjtISz5q8cw49yoI+XvbSiSJOUq41fHkVmVjfJXC2OZJOVmKPm8g8/aJkljp69UepGx3CAl5oIN8Rwz+R0lnSH7LWVqFawBzy7Qhp/iNK2/sfZSM+uog6CsasLtB2UyKzvjwlznCy9ds9YYhkOWJPkr+D5/qc9ABRlz3/xkffuWoawqglrYD3HPQ5CP/S0ezfzSWFTDHN37XGX8ZP+LMTWuqEBViXcdcvQ7EwAAAMBlh+AXAAAAqGOm3e4oxD03/l2Hlw0la9HATo9Uq7MFmFXhaNt1VoHMxcYyg3ahGm+n5/U52R2tQXdGaOHPVeu5avILVeRHGzSn1oW/56OFGtj9ISlQwXklcDUrfcFmJdv5GQvqPFL+9wVV6p19TsM8q4Z+Bh1s01x0sYN2R/feiTm4tgAAAAAuPwS/AAAAQF0SEKXQjsbC8xTQQ3+vEDo6mifWSy3sjh1aroWX3a52FeUU2B922quF/aFJy7SQl92ezrVZmOZMHaygswVRpiANnjqtUrB3znbHakK/dup69xTFbkxXrp0wsQJTkAZPvID7v+TO/Rlu2uASDoW7O1qbU4yFkloFa1pn44Gf4zDPkpSZa/9nMD9bqSmp1VusuW5ugXFjFi1anXlO2XBv+0NEn7tk5dr9zoOX/P7PSZ/wlFz7PYaLcpVuvB9nW9Iu/NDaAAAAAC4egl8AAACgDvGP6KHgC977y1+dH7bt8xvrcC7dFu0ijUU2IhXsZyyz47Ms+yGGWsj/CWOZjSeC5X/Bz71mhc2bpsGBZ0t9LUyd/64FL1zYYCp9XbQi7uqqdi26atC4Wfry52yZHYTApnY9NdxY6LTO9Rkers5+VbtfNSNdE9bZGe7Zp6fC2hnKznWYZ0k6VCC7OW3RTsX07qVe1VgesR5Dlv20VV5XBZ/hCwX+Cr3aOH71+UpSuv1Dkf914w2jGziJNUftB/VuR7X5ocr35ExL/3Gxxq0AAAAAcCIEvwAAAECd4a/xfYKNhRZFZpnzq7A4CP38e0Uq3OZ98n77yYlXj3BNCzCWWoS9N1KhVejwKyUrK8dYJkle6jnEUa/TMC0YGXrB5yWtUf3naNp9QXaG5U5X0jp7k/Ca1GPUHEU6uL7nJ11Ji2fokX4d1eqRGKXaS5E8vFTlCM6tgS50P80L7VyeYf/pI3VTlS9CDZmcZGe4Z5NMht7u5zzMsyR9sFmp+cZCSV7BCjvTly/OINpRT9LA2/TGMGOhhf+YORoYaCw9fwml3ZCNAgcral6YsdQJxCo1w1gmy/zP450yygYAAABwjgh+AQAAgLqiz4sKdRCSpH81RK38Wp11eeo7e4GjJN9rFX5/+duFG1Lt9zAzBevvny/SyC4Vi4OfjdOC++1HtpUt1NpddrcuU+e/69+LR6pivB2s8SsWKNxBWFc7OR7i2fzjFxo7+1ulVgr3JHmF6pm3ztQj9WzmKP6neM0Z5eALApIUP0vJmcbCavII1oBaHqBV/xleqvi/BdsJ6i+2KUqyN9xzBecxzLMkaYY2pRnLJMlLoc8lKuq+M/0s+yv8hUXa8NWcisUrkmU/bvVV2NR4TTNs0/++BVr6Qs18mSNpSZL9ny+ZFDRsgTa8Z/wdY+F/3yQtWrdBS88x/K45SVr5q/3f3UH3va+lz9o7m3LBo+YoftUinc9vFgAAAAC1A8EvAAAAUEeEDuvhoDdsurYvTjIW2hW7Ypvsxwe+uvY+m4F+31qpTfY7TMoUMEBR32Qq7acN2rBug1LScpRYzQBn1pebZH/zJvnfFaXEzDRtXbdBGzamKC0rUZN6V2frF07QsBzl5Jx9SVtRMVJxOMRzUao+f32G0teMVfQa+3fCq89oLXXQQ7IqvPx6aPjMROWkblX8siiNvz9cA3r7K7h/uMJHTdKiVfEaaC9Ez05Xpaco3tGw3CYFDVuqzO2lz0CK4mpbWPZWjNbav8QOnuEw+dq5ZZfClG822w+tS53PMM9WU95PsP+7wCtYI9/foJR1cVr03hxNGhWu8PvHK+q9BVr61QalZGzVgmcHKMjHsN6aGCXtMpSV8umhyPe3Ks36vGxNzdTW98PtfjHiglgzVjHr7P+GkbwUdH+UErMyy45nw8YUpWXmaOv74zWgYwtdwlmeHYqd/LmS7T0UJl+FvZCotJ/itfS9BYp6Olzh94/UpNkLtGhForam5ihx5nD1CLg0v0MBAAAAXFgEvwAAAECdEKq/97Af+yo7VSvXGAsd+CxW2+ymPZJv8ACbOV6j9fYKBz0mJcnNJC+/IAV1DJLvueQJ772tlSkOty6ZvOTfMUhBgb7ycrJ5fR0P8SzlbozRWOu9ipnoIMiRr8LGL9B596f18VePW0dq0nsLtGjFViX+a4EWzByvAV187RybWanx0ao0++fuBKU6eF4kydSq9BmovMVLL0bPf5Fcc89wTXo9Scn2hmK2Oq9hnksteV7vOAxHTfLtGKoB9w/X+JkLtOC9SRp5f7jCbgiSr2HI6XJJGrsoycEXOiy8rM+Lv0/NPy/Rz76tJLtDylu5mcqOJyjQV7XyEba1e4pe+8Lx72Qvvx4Kuz9cI19aoAXvRWn8w+Ea0DtY/saAHgAAAIBTI/gFAAAA6oL7I9XTz1hokZ38ZeXAzqFYfZnsIMnzvVYDbHqaJo0bqhkOgyE7cpKUtNtY6EiSxj4048zBjEHuuiQHQ8nWJo6HeJY5WTFPR5e/3z1Fr8U7OKOAgZo2++LN3Zn744eaMq5Sf19JsWcOT2u59MmPVvsZjq1O+xozQ99ud3TVz3eY51Lpir47Qgu3X8DzfW+QIpY4DicrMacq6ecLuH9bu6M16PYpSnLw684ZJYwZqhnx2VW/vgAAAADqHIJfAAAAoA4Yft+18jUWSpJytXNNjLHwjGLW7HTQK89XPYfYDlmcrui7B2nGd+lnDxqyNyv6qUFKtzuvpgO7ozXo/hlKyDjr1pW9MVoRd1fhOC6x0NkOhniWlJ24UFMMwXjC32K02W7PTpOChkzTNHtDMl9IRblK/WyCBt0+RQnGOqv0yY9qhoNhqWu/6jzDSZpx/yAlG8tLFRUYS2rUrEQHgfsFGOa5XIIm9OmrCZ+lKrc6P7uScrPsf2khYcxQPfVR8tm3Z07Xl5OHKuG4seIC2h2tQXdGKHpdFe6/rbMd+yWTrugHO+qReUlKr9YJSebsLGUZCwEAAAA4HYJfAAAAwOkN14Bg+7GvcpOV8J6x8CzeS1Cy/eRXXp3DVHG22mTNGtJVvR6bpS83pivXNmwoMis3M1VJiyeob8f+mhJvU1dVP8/S0Ot6KeKtL7U5I1dm28DFnKvslCTFTOyrjnc5DiZrjT5zFDXE/hDPyt+smMn2AvpZmrEi1VhoYQrW3+dPcjCvsyNjFfHgDC1ckaTkjFyZ8yunQ+b8XGXv2qyED6Zo0A3t1OuJhY7DTskSNt3XUX0nxihpV67Mxk2azcrNSFZyiqG81qjqMzxIs36Wgnzsj/uclbnQWFSz3vrW7nDPF2SY5wrStfCJXmp3wyBNWWx9boz3uOy5SVbSZ7M0tp+P2t3t6CjSFftcX7W7fYJi1qUqu8IFl8w56dr81SxFhHTVIx/ZD48vqN2xmnJ3V7XqN1azvtqs1Ew752c2y5yTruR1sZo1ZpAGfWCor2USpg5S11Z9NfYfX2rzrmzl2v05Nys3I1Wbv1toOf8bIqoxMgQAAACA2qqet7f3aWMhAAAAAAAwilRc2jSFVsp+c5U0tZ0GzTOWAwAAAABw8dDjFwAAAACAKvB/YaB6Vgp9JRWlK5nQFwAAAABwiRH8AgAAAABwNgGRmjOih/2hulM26yIP9AwAAAAAQCUEvwAAAACAy9QcJaZu0KKXhis0wFhXLnjUAm1YNU2hPsYaWYZ5XjZBF2E2WgAAAAAAzog5fgEAAAAAl6k52pAzXEHWd7mZqcrKzlJqapYK1EAtgoLk1yZI/nYDXwvzj7PU6/YZBL8AAAAAgEuO4BcAAAAAcJmqGPxWW3aSptw5SNG7jRUAAAAAAFx8DPUMAAAAAEA1mXd/qQmEvgAAAACAWoTgFwAAAACAqspP1+aPJqhX90e0kNAXAAAAAFCLMNQzAAAAAOCy5d87UpFjBio0KEj+Pg1k8jBVbGA2y3z8T6XvSlVSfLSi5yUxny8AAAAAoFYi+AUAAAAAAAAAAAAAJ8dQzwAAAAAAAAAAAADg5Ah+AQAAAAAAAAAAAMDJEfwCAAAAAAAAAAAAgJMj+AUAAAAAAAAAAAAAJ0fwCwAAAAAAAAAAAABOjuAXAAAAAAAAAAAAAJwcwS8AAAAAAAAAAAAAODmCXwAAAAAAAAAAAABwcgS/AAAAAAAAAAAAAODkCH4BAAAAAAAAAAAAwMkR/AIAAAAAAAAAAACAkyP4BQAAAAAAAAAAAAAnR/ALAAAAAAAAAAAAAE6O4BcAAAAAAAAAAAAAnBzBLwAAAAAAAAAAAAA4OYJfAAAAAAAAAAAAAHByBL8AAAAAAAAAAAAA4OQIfgEAAAAAAAAAAADAyRH8AgAAAAAAAAAAAICTI/gFAAAAAAAAAAAAACdH8AsAAAAAAAAAAAAATo7gFwAAAAAAAAAAAACcXD1vb+/TxkIAAAAAdUfDho3UsmVrXXFFM3l4NJaLi6uxCQDYVVJSrPz84zpy5JAOHNinkydPGJucN/erfNRkYE953NxJbr5equfG76iacLqoWEXZucr/foeOrdykwv05xiYAAAAAnBzBLwAAAFCHtW3bXn5+V2vPnj+UlXVAx47lqri42NgMAOxydXVVkyZeatGipdq2vVoZGX9oz57fjc3O2RWP9tMVD99ieePKoGQXRXGJJOnI4tU68skqYy0AAAAAJ0bwCwAAANRRHTp0lpubu3bs+FkFBSeN1QBQLQ0aNFSnTl1UVFSonTu3G6urrcXUYWrYI1AujRsYq3ARlBwv0MnNu5Q1dYmxCgAAAICTcm3YsOFUYyEAAAAA59a2bXs1aNBIP/64QUVFRcZqAKi2oqIiZWbuU+vW/vLw8NDRo4eNTarsikf7qXHYdYS+l1C9+m5ya+6levXdVPDzbmM1AAAAACfEOEoAAABAHdOwYSP5+V2tHTt+NlYBwHnbseNn+fldrYYNGxmrqsT9Kh9d8fAthL61gEvjBrri4VvkfpWPsQoAAACAEyL4BQAAAOqYli1ba8+ePxjeGUCNKCg4qT17/lDLlq2NVVXSZGBPYxEuMe4JAAAAUDcQ/AIAAAB1zBVXNFNW1gFjMQBcMFlZB3TFFc2MxVXicXMnyZU/R9Qari6WewIAAADA6fF/WgAAAEAd4+HRWMeO5RqLAeCCOXYsVx4ejY3FVeLm62UswiXGPQEAAADqBoJfAAAAoI5xcXFVcXGxsRgALpji4mK5uLgai6ukntu5rYeawz0BAAAA6gaCXwAAAAAAAAAAAABwcgS/AAAAAAAAAAAAAODkCH4BAAAAAAAAAAAAwMkR/AIAAAAAAAAAAACAkyP4BQAAAAAAAAAAAAAnR/ALAAAAAAAAAAAAAE6O4BcAAAAAAAAAAAAAnBzBLwAAAAAAAAAAAAA4OYJfAAAAAAAAAAAAAHByBL8AAAAAAAAAAAAA4OQIfgEAAAAAAAAAAADAyRH8AgAAAHA+HSMUNf9jRY3oaKwBACe3T3lh07QvbJpyEo8bKwEAAADAIYJfAAAAAA4M1IT5H2v+/I81b1w/uRur7Wqu+6ZY1pn//EBjZc26or/GzfpY82eNU5+qHWwFHYZHaf78jzV1sL+x6hKwufZjz3Lt+0/S/Pkfa0J/YwVw+ShO2aFjcz9X9iOWwHRf2DQdGPVP5czdrFNkpwAAAAAuEwS/AAAAAM7KvUOo7rzCWGpHtyEKaWUsxPlw73iv/tbjjNEvcBk7qpNvzdWBp5Yrd2WKTmWW1xTv2a2TK/eo6KRtewAAAACouwh+AQAAAJzZiRM6IX/1uOtsPWHd1eemYDUqLFShsepiOBKv2eNH6PHxs7XmHA5gZ8wEPf74CE39PN1YdenkHNQhNdJ1g/+mTmS/QCVF//1aOd8clSTVHzRQzT8ar1b/nqBW/56glh89JO9HrlQ940oAAAAAUEcR/AIAAAA4s4Pp2lsoNesyUNcZ62xdMVAhHdxVmPa7/jTW4dy4/KGfUgolzxv08APMZwxUdFTmtbssL3sOlHfkdTK1aSyXxg3k0riBXNsEqNHwUDVsblwPAAAAAOomgl8AAAAAZ3ZFrtKST0iNg9Wnr+Nup23uukFtdEI71qZcmh6/dZGrtGPxcqWZJc8bh+s+AizAxnEVb7G+bNtUroZaAAAAALjc1PP29j5tLAQAAADgvPr0uUNffx1nLD4HAzVh/r1ql7dRs6NP6aEXblKzvSs1YcZy5RmbuvfTuLeGq8PxtZox6ZAemH+v2u1ersffWGlo2EgdBkbogZs76srGlhC5MC9TO7//WAu++r1SYOze6iYNfWiAevo3l7uLpMIT2rt1mRZs7KgJY2+QfojShI9TrK076m9RE9RTGzV7wgLtrLAl635DO+pKT2t4XVioQ78v14I58dorSf0naf6g9kqLG6GoeOtqHSMUVbqfL5vrob+VH0vh8Uzt+DpaH63KrHTcatRRd/9tuG7u0EqN3CWVFCovO0WJi97R17srtbbD5tpPWKCcu6bq5YH+UvpyvfL6Sh2ybWrvuCXJvZWuGzREd/ewPWfL9VsYs1Z/2h6GzTbe+XOIRg/up3Y+7lJJoQ7tWqmP3lmptMJG6jBwtB66taOamSznVF5nsy1diPOHM7jjjkFas+ZrY/FZtfv+dWPROSpQwdwoHVopSYHymj9YTa52Mzayqzhlh/K/2qQT3+xTkSS3jtep0ZBeahzSrOI35IuP69Ta7TqxLkUFay1t1aq1GvbuKc8HOsm9sU3blCTteypRUkd5L7lH7uv/o8Of7lCh+qrFslCVfm2mJHOXTsT+rBNbrHMSezeTqUdneT4SKlNzSdqnvLCPlCep4Yvj5dP1qI4vSlL++l0qPNxY7jd0VpPH+qpRm6qda1Wl3fyCsQgAAACAk6HHLwAAAICzS1+u9bsLpTY36G47U/163hWqDiZp7+bllhDVrubqM/ZNjbsrWD6FmdrxQ7zWbElXrlsrdRo4STMerjiUsXtwhGZMGaGQgOY6uT9FP32/Sj9lHpVPjxGa8NeWFdqekXuwHpoRrXF3BetKt4Pau2OjEr7fop1pmarfrKUaGdvb0/AmTZg8Qtc1PqEdSav0U/pBFTZupesGT9Xomw29oJv307hpE3RHp+Yq+jNZm1at0k97j8rtymDd/fybeugcRmw+9FW01mRK7v4D9bd+XsZquzoMn6CIfsHyKc7Uzi2rlPBDsvaebKQ214/QpCf7lYVQttyvitDUkb3kfmCLNm1J16ECdzXrcK/GjR2okBGvadwdrXRy10Zt2pKuP8vq+svTdiM1cP6AfQ1k6t9X9SVJu5T7+LvKiUlRYa6xna0infr0n8p+arnyvtkndQyQqWNTFaX8pLyp7yrrjR2WcNfq1KezlP1ago6vPap6XQJkattYytynk58tV9aLSTp10qaxjaLv/qND0TtUeFjSYan0G/dFiSuV/cinOrrSGvpK0uFDMn+TKHOFb3RYHUzR0ac+0tGVuyzb0nEVbtygw88mqOCM5wkAAADgcuTasGHDqcZCAAAAAM6rbdtA/f77b8bic9BBIQM66grzPm1MWK+NBf66pVt7tWy0T99sPWDTzl/3PzRIfu4p+vqd1dpTYl3vaIq+XJ9a1sqz/ziNDvXWwVUzNXnucm38+Rft2LpGq1fvlm+vXmoX1Fqu69doZ4EkddOo5+5V2/q52jT/GUV9vkZbdiRry7rV+mZTia67q5eudJPM+9cr4efStKS5rgsL0VXap40JW5QjSXJXnzGv6E4/V+VtfkcvzIzR6k1blLJjkzZuXKOExJ+t7SS1v0kDrvHWkd9WaP3vpZvsrrAbWsuzRQuZv5+pKe8s16YdydqyLkFbTl+n0A7e8m0qrU1KkVmS5KU7xoxTiHeWEt6aoLn/Wa+ffrW0X51xpXr3aK/Aq1xt2jtie+23KEcnlLKniW4Iba+r2vvr+Kr12lNibWrvuCU1C+wo1//N1Zsfr9T6rclK+XmjktZk6aqbuuuqqxqp8Jsk/W7YhtdVTbRtwXOau3KTftq6RqtXW9tf2VHXtjJr0/zyujVldd7S+tVKKdAFPH84g8DAa7Rnj81DV0VXjLjVWHTO6vn4q+EN9VW4MU1FJwtUtO1X5X+2ReYTTVT/Gl+5WlLhMiUbv9HBWb+ouGMP+fzj77pi8LXyuON6ed7uo6I1KTr1y14p6Do1aG3pTVv8S6Zcw4fKZ0I/Nbn9Wnn8tZcad3WR+Zs9Kj60RyUB3dQowLqTQxnK+3qPpEMy/1RfTWb8Xc1fCJPnw/5ylXR6R6IOTf7B0sP49jvU7NX7dcXjfeX5YIgaXeumEpO/6vtIUp7M//xJZklFW/+Uy4PD5Tt9oLweCVGjVkd0cn22Tp/MVPFV18ojsEGF8zsfRz5ZZSwCAAAA4GTo8QsAAACgaras1E85UqNuA3X3FTbl3QbqOh/pRPIqrXE4iq+/7gxpL/ecDVr4uWFI58JkxW7OlOSvDl2tZTf3U6fG0okt/9RHP5+wbS0dXKn535d2lTuLK+5Vn47uUs5azVu4RYYtVZ2d4z70VZJliGOfVrqmtLDNQIUEuOvQD+/rC8OQxoXJS/VDpqQ2HXV9hZoqSo/RP/+XK5k66q8jb7DbY9fWzs9n66N1hmGoCzdq595CSc3Vsr1thbV650r9M9lmjcKNWp9i6VZ4InmpPjLUlW7LL9haVpPnDzjgEtRLzRY+Ke/7A2WJa4/L/MVyZY38VMf+sO2/e1Qn4zarWFLj4WFq2MKmqkUnNb5Tko7r+Ka9Kv1ORP0HHpBnz2ZysZlA2KVTZzUOsbw+uf9oeYWNBuPulWdP23Ggj+rEp0mWn8eb7lWzZ3uofnPrUM2ubnLrEiqPIJvmpW66TVfc19q6fze53XqjGl9tqTIfPG5oDAAAAOByR/ALAAAAoIrStWJzuiR/9birdLxnd/W5KViNdFA/fbvF0N5WsPyaS/K5SZPmf6z5hiXqtlaWZtY0s0O7VnJXofam2t9mXkpG5XmG7bm+va6UdCh59RmGoD67wuwMO+tnKvekpEZe8ikt+ou/mklq1ntqpXOcP/8fCrOe5rnOzLnz04+0KU9q1GWoHgo+W/QruXsGq8/gCI0eN0GTZkRr1pyPNbSj4/VyMyvPs1xoTcBy9la+FwfyTkhyl3tDa0ENnz/gUONmajTqAV0Z+5h8HuloecYO71Lui//RiSxrm8MHZLY+xscnvaZ9YdMqLNkx1na55rKhmSXp9ME/VZC4Wcc+S9CRif/UwVEf6fB6mwaVBKhhl6YViw4fkHmT5WWTO6+p8s9Aw16tZZM5S2oq9/+zvsw4quIKdQAAAAAudwS/AAAAAKos76sk7SyUmnUZqOskyX+4bu3grsLdSVqRbmxto2MrNZOk45nauTPF4ZJx0NLcz8dL0gnlZhu2U00dfJtLkvJyz3RwZ3cyr2o9jDu0tOzvxJ+Vz618SdefxhWrqjBZ//x8i07ISz0fGK4Oxvoy7ur0cJTmRY3T0H43qEObVnI/nq69O1Zpfbrjfs9nuk6FxcZIuLIaP3/gbLyuVMPhg9VirnXu38M7lPvVbkuQW1xcFui6dQyQqZuDpbnJ2qpA5kX/1J/D3teh175W7gfbdapYUodANbL2urWvgeoZv19hs+96jaoa+1p6A1fUQC7ehiIAAAAAsCL4BQAAAFB1hau0JvmE1DhYffq667rbuquZTmjHdyvP3AP390zlStLJFMXOjtJsB8tSa2+83OPWcNIYnpTy9VJpJ9MzScuxDMPaqJGXsapGpGVb9nciZVmlcytfYvSTccVqKNy8QP9JKZSuuEkP3GsJWivpFqG/3dhchZmrNHv8CI0Z/7Smvh6l2R/E6Kfsswe45+pinD9QFfU6XqfGN1leF+/PLxu6uVSjxx5S85kOlscD5SqpZFOiDsfsVrE6qun8CWqdMF4t3nxIzZ/tqwZXGTZYHXTTBQAAAFBDCH4BAAAAVMtP327QIbmrQ88I9ezQSMr5Uf+tPApwRYUHdeiEpObt1dV2fmAHfss+KslL7YJLh5Su6Logf4eZsK3CPw/phKQrO/aTp7GyBhRmW/bXrH23GtxfodYsXq40s3Rl30jd0cRYL3UIbq9GkvZuitHOCh18vdThqpoLwS/O+QOl/tTJ7+zPsSsVqCTfUNS8qdytvWXzN1h7AZ9BUaplPmDd1FENr25gU3Ncxftt3lZF82aqb+0lXJV9AwAAAMC5IPgFAAAAUD3py/TdzkIpoJuuayzt3bzczvy3Rhu1ZnuuJH/d+thAXWlIbd1b9de4Uf3L3uclbtFeSc2uf0z3BVRs7B4coQeua1ShzKEtK7XpoKQ2/TXm3vZVCovPy+ZV2pFn2d/jd7Uy7M9dV/aboIh+FQrPzZF4ffRtugrd/XVnbzvhuLVHoWezinXN+o9WH+s8uzXiYp0/IEkqUuEbc/Xnq0k68fMhFR8vUMnxApVk7VN+9H901PqFlAY9S+fJba2G97eWJBV/9m8d+e+fKrHpfXs690+dmL+5bJ7req6NLS92pMpcOk9w8XEVfPRf5f5RulZVXamGfw2UrPs+tChFhbnWquICFW5KUn5qhRUAAAAAoNoIfgEAAABUU6HWrE3WCUkqTNH6r0rTizPbGfORNh2R3APu1dQ3ojRpdITue2C0xk36h2ZNGaIOth1RjyxX7LqDknsrhT3/D01/YbSGDo7Q6En/0Kwnu+nQxi1nHlq6TLqWzl2uNLO72tw2SbNen6pxo4br7gdGa9wLMzTr1RFnmCf3XKTonzEblSd3tRs4Q2+8OlWjRwzR0FETNOn1aE0d3FEXqr/toa+itSZTcjdVjrN3fv+jDklq1nuqoiaN1lDrdZ5+h/RTctXu17m5eOcPlCpam6jDz72rA/dEKfOeKGUO/0hH4vZJktxuH6ymtzcta+t+373yvrWxpOM6Mft9Zfafpn1hlmV/+Ps6/EVBWW9c9569yuYJPjx8mv4c9a4O9J+lIwcD5RlStskqc7vzDjUb1FrScZljPldWuHXf/aOUNSlRxQwBDQAAAOA8EfwCAAAAqL4tK/VTjnQieZXWVHXK2MJkfTRlkv657ncdcm2uNp1uUNjN3dTO95T2/rBMs9+Nr9B8Z8wkTY3ZqL3H3dXMv5v69LtBHRod1KbFkxS1uao7lXRwpaJeiNLXOzJ1spG/OnTrpztu7qZ2V7rrzx0pOmBsf54Kkxdo0rSPtX73Qbn7+KvT9f3Vp1t7XVmSrk3Lo/TOKuMa5+qgvli0SoeMxZKUHqPX5scrLadQnm26qc/N3dTGPV0r/hGl9SeNjS+si3f+QGs1XvSQvEf1UMNureVmLXVtGyDT7X3lPXe8rny2Y1m5RVM1ev5JtZjaVx5dmll7AlvWaTgwTD7ze1jCXkm6upeazb5DjXtaguOiUw3UYNRD8n32OrmVrlgtTdUg8m9q+eYdanxTxeP1eGSwGrY1NAcAAACAaqrn7e3N1DIAAABAHdKnzx36+us4YzEAXFB33DFIa9Z8bSw+q3bfv24sQi2QdvMLxiIAAAAAToYevwAAAAAAAAAAAADg5Ah+AQAAAAAAAAAAAMDJEfwCAAAAAAAAAAAAgJMj+AUAAAAAAAAAAAAAJ0fwCwAAAAAAAAAAAABOjuAXAAAAAAAAAAAAAJwcwS8AAAAAAAAAAAAAODmCXwAAAAAAAAAAAABwcgS/AAAAAAAAAAAAAODkCH4BAAAAAAAAAAAAwMkR/AIAAAAAAAAAAACAkyP4BQAAAOqYkpJiubq6GosB4IJxdXVVSUmxsbhKThed23qoOdwTAAAAoG4g+AUAAADqmPz842rSxMtYDAAXTJMmXsrPP24srpKi7FxjES4x7gkAAABQNxD8AgAAAHXMkSOH1KJFS2MxAFwwLVq01JEjh4zFVZL//Q6puMRYjEuluMRyTwAAAAA4PYJfAAAAoI45cGCf2ra9Wg0aNDRWAcB5a9Cgodq2vVoHDuwzVlXJsZWbjEW4xLgnAAAAQN1A8AsAAADUMSdPnlBGxh/q1KmLsQoAzlunTl2UkfGHTp48YayqksL9OTqyeLVKjhcYq3CRlRwv0JHFq1W4P8dYBQAAAMAJEfwCAAAAddCePb+rqKhQ3bv3oucvgAuiQYOG6t69l4qKCrVnz+/G6mo58skqndy8i/D3Eio5XqCTm3fpyCerjFUAAAAAnJRrw4YNpxoLAQAAADi/nJxseXh46Npru8vNzU3FxcUqLDyl06dPG5sCgF2urq7y8rpC/v7t1KVLdx069Kf++OM3Y7Nzkr9mu+rVd1PD4LbS6dOSSz1jE9SE4hLp9Gkd/fR7HfrHf4y1AAAAAJxYPW9vb/7qAwAAANRhDRs2UsuWrXXFFc3k4dFYLi6uxiYAYFdJSbHy84/ryJFDOnBg3zkP73wm7lf5qMnAnvK4uZPcfL1Uz43fUTXhdFGxirJzlf/9Dh1buYnhnQEAAIA6iOAXAAAAAAAAAAAAAJwcc/wCAAAAAAAAAAAAgJMj+AUAAAAAAAAAAAAAJ0fwCwAAAAAAAAAAAABOjuAXAAAAAAAAAAAAAJwcwS8AAAAAAAAAAAAAODmCXwAAAAAAAAAAAABwcgS/AAAAAAAAAAAAAODkCH4BAAAAAAAAAAAAwMkR/AIAAAAAAAAAAACAkyP4BQAAAAAAAAAAAAAnR/ALAAAAAAAAAAAAAE6O4BcAAAAAAAAAAAAAnBzBLwAAAAAAAAAAAAA4OYJfAAAAAAAAAAAAAHByBL8AAAAAAAAAAAAA4OQIfgEAAAAAAAAAAADAyRH8AgAAAAAAAAAAAICTI/gFAAAAAAAAAAAAACdH8AsAAAAAAAAAAAAATo7gFwAAAAAAAAAAAACcHMEvAAAAAAAAAAAAADg5gl8AAAAAAAAAAAAAcHIEvwAAAAAAAAAAAADg5Ah+AQAAAAAAAAAAAMDJEfwCAAAAAAAAAAAAgJMj+AUAAAAAAAAAAAAAJ0fwCwAAAAAAAAAAAABOjuAXAAAAAAAAAAAAAJwcwS8AAAAAAAAAAAAAODmCXwAAAAAAAAAAAABwcgS/AAAAAAAAAAAAAODkCH4BAAAAAAAAAAAAwMkR/AIAAAAAAAAAAACAkyP4BQAAAAAAAAAAAAAnR/ALAAAAAAAAAAAAAE6O4BcAAAAAAAAAAAAAnBzBLwAAAAAAAAAAAAA4OYJfAAAAAAAAAAAAAHByBL8AAAAAAAAAAAAA4OQIfgEAAAAAAAAAAADAyRH8AgAAAAAAAAAAAICTI/gFAAAAAAAAAAAAACdH8AsAAAAAAAAAAAAATo7gFwAAAAAAAAAAAACcHMEvAAAAAAAAAAAAADg5gl8AAAAAAAAAAAAAcHIEvwAAAAAAAAAAAADg5Ah+AQAAAAAAAAAAAMDJEfwCAAAAAAAAAAAAgJMj+AUAAAAAAAAAAAAAJ0fwCwAAAAAAAAAAAABOjuAXAAAAAAAAAAAAAJwcwS8AAAAAAAAAAAAAODmCXwAAAAAAAAAAAABwcvW8vb1PGwsvJ9dcc40CAgJ05ZVXqmnTpjKZTMYmAAAAAAAAAAAAAGops9mso0eP6s8//9Tu3bv122+/GZtcFi7L4NfFxUU33nijunXrpoYNGxqrAQAAAAAAAAAAADipkydPasuWLfrf//6nkpISY3WdddkFv+3bt9ett96qpk2bSpL279+v1NRU7du3Tzk5OSooKDCuAgAAAAAAAAAAAKCWatCggXx8fNS6dWsFBQXpqquukiQdPXpU3333nX7//XfjKnXSZRX89ujRQ/369ZMk7d27V+vXr9eePXuMzQAAAAAAAAAAAAA4qbZt2yokJERt2rSRJK1atUqbN282NqtzXBs2bDjVWFgX2Ya+69at01dffaWjR48amwEAAAAAAAAAAABwYkePHtX27dslSX5+fmrXrp3MZrMyMzONTeuUyyL4bd++vQYMGCBJ+vbbb/XDDz8YmwAAAAAAAAAAAACoQzIyMnTixAldffXVateunf78808dPnzY2KzOcDEW1DUuLi669dZbJWtP361btxqbAAAAAAAAAAAAAKiDtm7dqnXr1kmSbr31Vrm41N14tO6emdWNN96opk2bau/evWU3FQAAAAAAAAAAAMDlYd26ddq7d6+aNm2qG2+80VhdZ9T54Ldbt26SpPXr1xurAAAAAAAAAAAAAFwGSrPC0uywLqrTwe8111yjhg0bav/+/dqzZ4+xGgAAAAAAAAAAAMBlYM+ePdq/f78aNmyoa665xlhdJ9Tp4DcgIECSlJqaaqwCAAAAAAAAAAAAcBkpzQxLM8S6pk4Hv1deeaUkad++fcYqAAAAAAAAAAAAAJeR0sywNEOsa+p08Nu0aVNJUk5OjrEKAAAAAAAAAAAAwGWkNDMszRDrmjod/JpMJklSQUGBsQoAAAAAAAAAAADAZaQ0MyzNEOuaOh38AgAAAAAAAAAAAMDlgOAXAAAAAAAAAAAAAJwcwS8AAAAAAAAAAAAAODmCXwAAAAAAAAAAAABwcgS/AAAAAAAAAAAAAODkCH4BAAAAAAAAAAAAwMkR/AIAAAAAAAAAAACAkyP4BQAAAAAAAAAAAAAnR/ALAAAAAAAAAAAAAE6O4BcAAAAAAAAAAAAAnBzBLwAAAAAAAAAAAAA4OYJfAAAAAAAAAAAAAHByBL8AAAAAAAAAAAAA4OQIfgEAAAAAAAAAAADAyRH8AgAAAAAAAAAAAICTI/gFAAAAAAAAAAAAACdH8AsAAAAAAAAAAAAATo7gFwAAAAAAAAAAAACcHMFvbfdEnNJycpSTk6OcnDTFPWFsgOqYs7H0WuYoZ+Oc8or+c7Qhw1qelqio/rZrVU3YvA3KzLJsI21VlMKMDQAAAAAAAAAAAIAaQvB7Qfgr/IVFStyeVhb8lS6ZaSna8K9JCjWuUidFKi6t4vnn5OQobUWksWEZ/3kbKrXPSYuT4zVqxshRAxXkYX3jFayBI4YbWpzNSEXeHiSTm+WdV5eBGvmwsQ0AAAAAAAAAAABQMwh+z1dAuBas26AFzw5QcCuvsuCvlMnLV0G9eii4YvFlxatzmIMg11/jewQZCy+JhR/EKjnX+iY3WSs/jjG0OJuFil6erNwiy7vcn1dq4WJjGwAAAAAAAAAAAKBmEPyep8i3ohTe0WQsdnL+Cr17vKKWxWvD9jTlrLMZEvlceAUrzN4Q1QHj1TPQWHiJxE9Q33Y+8vHxkU+7vpoQb2xwdgkT+6pdC8s22vWboARjAwAAAAAAAAAAAKCGEPyel0ka2MPL5n2uNn8wVoO6W8K/vg9GaMbiJKVmF9i0cQYD9MzsSRp5aw8FtfKSDL2Yq8qcb7a+8lJw/8p9fv3H91Rpf9/cnNLutgAAAAAAAAAAAACqi+D3vPjKq3ReWEnanaCIiTFK2m15mxwfq1njBqnXDUMVbdPscvFnzp9lrysP9+yvyM6lsW+2sg43qFALAAAAAAAAAAAAoOoIfs9Lrgqsc7pKkgIG6t+LR1ZpPl//+6Zp6cY0ZWblKCfHsmSmbtDS6eHyNzY+ky4jtWBVitIybbaTlqLE9xwcR0C4Ji1OVEpaZln70n3PGSZFrkhTTs40hdp2ZA4cbm2Xpjh7QzY7YP41Vdmlb7w6KHSYTWVApHp0tL7O3qZ0nW247GCNfM9w3JlpSlm1QCO7GNtKwaMWKHF7WnnbtK1a+qzdK2LxRJzSyq6HnfM8y3WTSq9d6f7iyoNuO9sOmxqnrWnl20nbuEjj7ZxHte8vAAAAAAAAAAAALksEv+dloZJSSoczliST/O+KUmLaBsXNjlRogE2VjbCp8Up8P1JhgV4y2QyjbPIJUtgTC5S4IrJK4a//3xZp63+jFN7FV142uanJy1fB90cpfuMchdmu0D9KiasWaPxdwfK1XcG67569KhSdv8Ox2laW/Prq2ruHl1X5R/RQsPXcs5O/VFZZjR0BI7Xox3hF3W84bpOXfLuEK+q/GzSnf3mx/5g4xc0MV3Arm/Tay19hL3yiUNse2lV1oa9bj3gtGBMqf9vDCxygSZ8uVfkVOof7CwAAAAAAAAAAgMsWwe95SdeUETOUlGMo9gpS6MPTFLd+q+KMPXj7L9IbY3rIkvmZlbx4rPr6+KjvmFilWjNkr96TtOBZ25XsCJikBVMHyN8aCGavmaVB3X3U9e5ZZcdjChyuN94Pta4Qqbi5IxVs25O3xsUqekN62Tvf4AHWYNNfkTeU9lfN1rYVMWVtKvPXpPmvakBA6YkmadbdXeXTfZBmrbPOC2wK0vDpCxQqSQHT9MkLodbra+Qv/1bGsrO50NfNS6F3l95/A9+eCi/taVzt+wsAAAAAAAAAAIDLGcHv+dodrUG3Ryh6Xbps+/5Kkkz+Cn1igeK/KO/BO35MWHkQvD1Gj46LUbKk5CURitlsDTJlUlBoxRlxjUJfuE89SnuvZidoxn0zlLRbSl83Q2NXlYet/l2Hy1+S/8xwhfqUFcucmaSF4wapq4+PfPqN1azv0pVbJEXf3U4+PlOUVHookrQrRj4+PvLxaadB79mUV0HS4u0qOxrfazVgmGGY59ydSlpS3r6SPi/qvu6l3V2zlfDqIM1Yly7tTtKMpxPKtx3QQ8MDpNAXBijYpnds7o8LNbafj3y6D9KUr+zco7Oo6nWrlpzNin7MEF5LkrzU4v8sr6p7fwEAAAAAAAAAAHB5I/i9EHbHasrdXdWq31gt/C61UhDo2+cZzXlCksLVs51NKtl5pLbazBc7rXd5P1CvFkHl7ewIC7KJ+3zDNMdmO1vvt6nzbqEBkkaW9bCVlJ+sD/86SBMWJ1mC059jNGNIV/UfV97kglnzobZnlL6xDPdsO8xz7vYERds0r+TWIJtg01dh88rPM+dH297UTdWiv+G65G/WwtsnKOZnSbuTFP3wPVq5u7y6Ki78dTNr88f9NeULa3g927otg+reXwAAAAAAAAAAAFzeCH4vpJ9jNGFIL7W7fYK+3G3bt9RLwbeOlNRCDSpOEXvOvBoYS86sQvvMZE2pZgB67pL04U8Vh3t+sSxMzVVy/Blj32qfaMXz3KkZNm+ldBVUs3fuhb9uBSo4avN2zVG7vZCredoAAAAAAAAAAAC4zBH8npc5ivtmmsKMxT8v1COLNsl2EF+52Unyti+0DBlsb7lhrLG1Y9kJGmtcv3RpN8jSo9Y28GzVQZMCbN7XsKTFm22Ge+6pMD/r69xkJVRr6OhsJYyxc44+Doah9vVXxQGzh6uF3cl1z+ASXrcyVbm/AAAAAAAAAAAAuKwR/J6nFt0jtTRtgxa9NFJhXSxlwf3Ha86gYNlmjObjWZKilVw27LGkzsP178Xjy9ZTlzCNnx2vrd/MsWlkX9If2eVvfMM07ZsoDe9tHQI4IFTDX1qkDRuXlgWfSek27T16KPLzpZo0zNLz1r/3cEWt2Kr42aUNslRg2w3Vt4PGlx7juVgTo81lPWW95GW9MGcd5lmSktJVfuS+Cpsar6iHQ61DPPsr9OFJWrRug5Y+YWmRvN8mbvfqqdHLJik0wHJNJi2bpJt8y6uronrX7cKp7v0FAAAAAAAAAADA5Y3g90LwCtKAp6O0dJVlDtbEf03S8C62sW+2tn0VK0ma8uVmm6F9TfK/a1LZejmrlmrSwz3kX4VeqbEfrK0wN6xX95Gas2Krde7bOM15eoCCfMt7Gcd+8K1SbcJcU0CYxs9LtMwZu2KORvb2l5d13l0pVlk55W3l1UOTVuUoJydNcdaAtXqSFLPVOJNtFYZ5lqTPorXWdnhlnx4aOTvOOjfyVsXNHq8BHVuo9EwXfrHJJig2yffW8Yr70XJNxt/qq+qOtF2963bhVPf+AgAAAAAAAAAA4PJG8FvjzEpd8pSGLrG+fStCM9bY9OY8V2si9PySVLvzw9q1ZqyGvp6k7CrOcRu7uRrbroKkJTbDPas6wzwnKWJyTIXw9YyWPK931lUYZLtcTpKSqjtHbzWv2wVT3fsLAAAAAAAAAACAyxrB73mZpQlTY5SUkq1cQ0Jnzs9V+sYvNeuxXuo1JsGmJl3R93VU34mxSs7Mldk2UDTnKvvnLzXrzVk2hY4ljOmlXo9FK2GXcTtm5e5KUszrUyoMpZw+b5A63j5BsT8bjtecq+yUBCV8VV6UNG6oXvostdJ5nbMKwz1XcZjnUvFj1SskQtHfGY6nyCxzTqqSFs/QlLIQOV3Rd/fVhM+SlW2T/+bu+lIz7h+k9HMIcKtz3S6k6t5fAAAAAAAAAAAAXL7qeXt7nzYW1hUTJ06UJM2cOdNYBQAAAAAAAAAAAOAyU5fzQ3r8AgAAAAAAAAAAAICTI/gFAAAAAAAAAAAAACdH8AsAAAAAAAAAAAAATo7gFwAAAAAAAAAAAACcHMEvAAAAAAAAAAAAADg5gl8AAAAAAAAAAAAAcHIEvwAAAAAAAAAAAADg5Ah+AQAAAAAAAAAAAMDJEfwCAAAAAAAAAAAAgJMj+AUAAAAAAAAAAAAAJ0fwCwAAAAAAAAAAAABOjuAXAAAAAAAAAAAAAJwcwS8AAAAAAAAAAAAAODmCXwAAAAAAAAAAAABwcgS/AAAAAAAAAAAAAODkCH4BAAAAAAAAAAAAwMkR/AIAAAAAAAAAAACAkyP4BQAAAAAAAAAAAAAnR/ALAAAAAAAAAAAAAE6O4BcAAAAAAAAAAAAAnBzBLwAAAAAAAAAAAAA4OYJfAAAAAAAAAAAAAHByBL8AAAAAAAAAAAAA4OQIfgEAAAAAAAAAAADAyRH8AgAAAAAAAAAAAICTI/gFAAAAAAAAAAAAACdH8AsAAAAAAAAAAAAATo7gFwAAAAAAAAAAAACcHMEvAAAAAAAAAAAAADi5et7e3qeNhXXFxIkTJUmzZs0xVgEAAAAAAAAAAAC4zIwfP1aSNHPmTGOV06PHLwAAAAAAAAAAAAA4OYJfAAAAAAAAAAAAAHByBL8AAAAAAAAAAAAA4OQIfgEAAAAAAAAAAADAyRH8AgAAAAAAAAAAAICTI/gFAAAAAAAAAAAAACdH8AsAAAAAAAAAAAAATo7gFwAAAAAAAAAAAACcHMEvAAAAAAAAAAAAADg5gl8AAAAAAAAAAAAAcHIEvwAAAAAAAAAAAADg5Ah+AQAAAAAAAAAAAMDJEfwCAAAAAAAAAAAAgJMj+AUAAAAAAAAAAAAAJ0fwCwAAAAAAAAAAAABOjuAXAAAAAAAAAAAAAJwcwS8AAAAAAAAAAAAAODmCXwAAAAAAAAAAAABwcgS/AAAAAAAAAAAAAODkCH4BAAAAAAAAAAAAwMkR/AIAAAAAAAAAAACAkyP4BQAAAAAAAAAAAAAnR/ALAAAAAAAAAAAAAE6O4BeAE3lTaw/s04ED+7QzNsJYCQAAAOCiaKN7X1mmH3ZaPpsfOLBPa2ca2wAAAAAALjaCXwAVPbZMO61/vDlwYJ8O/O8d9Ta2Mej97v/K2x/Yp7WzjS1qlt+Ti/XDzj+0c9NiPR5grD27812/JrydVH4993w5QX7GBqVs7tfFvu4AAACwVf4lxQMH9unA7ys01tjEaNwK7bFZx1m+3Nhv9mLNeixEfp42hSab1wAAoGYZ/35ns+z55X9aOe9RdTKucxb9psdr5+9/aGf8dPUzVgIAnAbBL4AzC+iqB242FtoK0YjuDmPJi2Ls4Fvk52mSZ5tbNOwpY+3Zne/6Nc3U7VG9/WQbY/FlrVu37nrjjdn6+98fN1ZV0KpVa7366kx16dLVWAUAAFCzPDrp1nHGwoom9uvkhHnpU3p6YKDluPO2aE54L7Vs2Vo3neVcUX185gUAnAuTt5+6h09XwrZl1ejg8Kgev6eTPD1M8rz2Xj3+mLG+duDfRgA4O4JfAI4VSZKfej/2gLGm3NAIdb/EmeS/125RXpEk8y5t/tpYe3bnu37N81TvyLd05o+0lw8/P3/dd99QSVJgYAeFhfU3NinTvHlz1a9v0pVXtjRWAQAA1JwiSTKp+13THY/cEjBd/a51vthX4d3l52F5mb3xY81cv9fYokYMm75MCZt+1Z5tyy6Lz8V85gUAVFXGytGKHGNdXv9UO7KtFb4hGvdmVUcT+USrfsiQWZKyt2tVgrH+0uPfRgCoGoJfAA7kKfugWZLk2+kODTNWW419IES+kpR9UHnGyotk3ct3q0Ob1mrZtq+e+dZYe3bnu36NyjdbPnR7h+iJRWcI4C8TrVv7adSoJ+Tq6ipJKioq0q233q7Q0DN2SwcAALiosg8etLzo0N1hT5vez92iTm6Wz9Glf591Ct4mNbC+zD0cZ6isOd1uDlGnNp4yle68DuMzLwCgOsz5cVoea13mPqewQZ9oR5GlzrPLnZpoXMGB+X+7UW1btlbLa4do/m5j7aXFv40AUHUEvwAc8FTu3h2W0NE3RA/YHbrtKd36F0svhR07Uo2VuBDMO7TuN2sAf8sYRd9mbHD58PLy0qhRT6h+fZM2bFgnSfr11x06efKkBgwYpE6dgo2rAAAAXBINMjOUIUlundTvuRBjtaQQPdDF0hc4e8d25RqrcdniMy8A4LztXqDU0gE5PDzV3FDtbPi3EQCqh+AXgGNpq7Q9X5JM6tyn8uS3ftPvVHcPSflb9OX3xlpbbXTvhA+UsPVXHTiwz7Ls/VXb4t/RiGuNbSUFDNLLsf/Tzj2lbf/QzsR3NMJBbwnNTrRu91d9XmkOkvJ979lr3d6BfdrzS6KiS9s6WP/x2NLjTdTbukUv/yvR5ph+1bYV03WvvWO69lG9HWvT1rq/mFcGOR7qzxG3Aq17/WtlFEly89NdL7yp3sY2DvjdM0ELV9hcR9trabjuFc619PqXXq89vyphpvXYr31U0Yk213LPr1o771G75+V3zwQtjP+pfDsH9mnn1nhFj+xkbFolnp5eMplMWrkyTr/8skOSdOJEvj744D0VFBQwfA8AAKg9CtbrR2tPGb8uD1T+/DY0Qr0DJClD697PMtaWOefPc1X87Pp2krV+Z+Xhk8u3V/oZ+U2tPbBPB14Jkae1TeDQ0uNK1NtS2WfvlZsqfvYu/cxo91NgwCBN/Che23b+UfEck97R4zbHMay9tb1niF4u/WwZaxm+snrnYSxP1NsBEYrZZN3/L8s0oqxVJ414a5nW/mJzbHt+1dp/vWS4ltZrYz2mftPjyz4Dr33Ltt3Z8ZkXAFBTzvZvX8XPEgZn+fe6XDX/BlgF/NsIANVD8AvgDObq0x8sw9SZut6p1yr8caONHr/B8qcb8y+rNMe2qoI2enzpfxQ97g51aukpFZllNkty85TvtYP02opEvW3bizUgQp9/+Y4eD/GTZ+mUZ24meV4zSK/F3Sovm6Zn10ljY8v3bXIrrzF5B6pzR9u2Z2JScPwHevyWQJtj8pRvz0c164OXKoaet72ptSuma1iIpa053yxzkWV//R57RwmxEXZD0jP6drRe/DpDkmS65l69/EpVJlWO0Nszn9KdPS3XsfQ4yq7lkmUOhh1sqh6L37Zc/9LrZfJUp0fe1sLpT+nzJdN17zU219LkqcDwlxTzVsWeLH5PLtPKuU/pzmuby9PNsn9J8mzZSfdOX6G1s2+p0L4q9u7N0MSJ47VuXcVvGezfv1cvv/yCvvvumwrlAAAAl06u3lht+cOkAkL0uGU6ujLDBna2TJeye6s+dfgFynP9PFeNz64X2mNv6fVxd6h7G0+ZZC77DGj5zDhdXxg/C1/7lD6Pe0dj7+gk37KDtZ5j+78o0LZtjTGpx0cT1K+Ndf9ukuXVLXo7cYVeezBEgd4myWz9/xiTpwJviVD0lw6uf4uhendkp/LP0pYRKauMz7wAgPN22/PqXvqno+y9Wm+odvxvnwNV/ve6mn8DrCL+bQSA6iH4BXBGS97/sWyYuh4jbQLHm59Xv79I0kGt+3RuebmB3ysfaOLNzSXlacei0bq+zdVq27a1rn8yTrvMkkyBum9C+R+gHn9zrHp7W17nbflEz/RvrZYte2nwq18rw6u55Q9kVdRv3vuaGGId0CZ7h5a8OkTXt2ytlv0f1szYXcotNq7hiJ86XZOl/07ur5YtWytsnPXYJZn+covGlv3B5wHFvPmAAk2S+cBqzezfWm3bX622bfpr5nrLDMieIY/rNcMf/qpi1WPztCpbkkzq9OA7mmjvj0xG+Qf1479e1eAbKx+HvEM07Cl7AXJzBbbJ0PJx/dWyZX89E7vLMty3TOo0coJ6e2RYr0MvRb6/wzqvs0mBNz1a3pMl4CUtnBAiXzcp75dPFGndf8sbR2v572ZL+3sm6OWqnAMAAICTypi8Wj/mS1JzdR74gE3NU3rgestn1B2r35BlwEIHzunzXFU/u1bXc7qpZWu1fHm99TOgtGtpa7Vs2VotW/bVM9ayggNbLJ+721xt+QzYP0rrDlvqPEOG2uz/FkW/N0G9rR/ws7d9qlfCe1mO+ZEoLf/Nspf54f+nli1ba8nv1tXy1uuVlpb9dghfULqx8+CnwGvM+vH90Zb/V+gwRPMlDVv0toZdY5LMB7Uqqr9atrX8f0xYlPX8vUP0xFTb+2rh2T5Qpt1f68X+lmO8ye6UOQAA1IRO6vfUO1o7b5D8rF9A2rV6gZYbmzn4t8++qv17rXP4GyAAoGYQ/AI4s+8/KRumrtMtz5eFe/f+LcTyQS17u5YvtWlfQYhevqOTTJLM2z7VyIlxlhBZUsa/R2vJj9bYsEOIdTi1l3Tf9daB4/Z+rScHTNaSbZK0V+veHaXBC61zDlfJU3r6DutHybz1emVQfz3z7nrL/ret1pwxfTXwWcMqDpm1Y+EQjVxo6bWxY+lovfht6Zm0kN8d1pcThlo/CB/UqokPa8620vV3aM5zq63n3lyd7xhUWlENn2p4tPWPTB7dNOJ1y7B2jv1Xz9x3nQY+u0DrrPev4nFILdrcWd7cxo6YhxW5dIekHVoyZrJWlc4LI2lHTOl12KvlL7+qdaV1Lduon/Vl7xfuUCeTpPwdWjJqspaX7n93nCI//dFyDqZO6v2otRwAAKBOitJ3v1g+vfpeP1RjS4tfsU6XUrRD6ybbfNCq5Fw/z1Xxs2tNSHhWA7veXf65W5K2zdUzq232H2Z9OW6s7rKGwHnrX9XA/s9p/nrL9djx7VxF9r27LEyuaRkrR2vgy+X/ryJN0APWL5Bmr35Gw2dbe29L2jH7WX1nvR++Xe7QvWU1VvlbNP/BUfr4/9n7/7io63z//78j5KDYaJoQGSNsTlbi6vq7IAtcO2p5/HHsW1qf0vWkvK3Vt7V6OF307frWt+vRNY+lXtQ+nsyPph45pm9LPSlQCObvdEWTRhd20J2AjXQ2kjGQ7x8zwMwLUBAQBm/Xy2Uu6fPxfM1PjOe87q/n81nxXQAAgMZVufXCPm3619Gyek6tOc9u0PyZVef7qtrffTWo9e/rup4DBAA0FoJfALeQ4bVMXR+Nf1qSxmtsb/eJEHtGdVcOlhstq2cSgqnXVB0p39vDc5sX4xmJBpnc+4RNjq64ItF+aoOSK+7H07bgzK0HpOUmx+iREPcf7V++pzUVJ8tuh11/WuB7Ui79QoEnhDYrzLOmzaQ+Vs/SOJ014iPf1+o4VLm/b3BIWPnd1M2632l5+czhpxO06aYzh3Nlz47WhH9dqk27UpV28GtlXbionLRb7TNs0598TkBm6Ji9/OpNu75dX0Ot/DOUNMbqeYSQaCUcMrwPcyv3hDOV/wEAAKCFWrElQ/lyj4t+PVOSIrQoxrNdysk9mm/o7+t2x3O1G7s2iuxc2XuNV+IfN2p3aqrSTp5TzoWLOjKu6jOeNLB87GxX+vtraz/Ob3B2ZW5O8W2a3Lfiu0To8I2+41nHV5X7+wabqqxI5DqfocX1+u4BAED9uAptSl73pob+ek6Vc2tu1fzuq0Htf1/X8RwgAKDREPwCuCX7nAxllkiSRbG/GS3NLJ/ZalP60uqvHKyixL3HV403+e5/5Sqq5f3WpCHvqzpXiqvMPvbeQ7jK6/O6XSnf66zOcrVm1oaKJQOHvPVBxSzbKp6dq92n92nZ9PEaMsAqa7fO7qsuC8pP+t0Ol4prcxKrlu+D6/afCAAAgH/YukNnPNt19Hturtd2KU4d+6zm7VKkBh7PVTN2bQxD5u7S6U+XasbL8er3qFXWziZJLuXnV330yrGzS1dq3Of4Tqjm8b335XVVM44tv131fI/x7l581dACAEDjqtx6wX2L7BGnV246m7ea3301uK3f17U5BwgAaDQEvwBqYYE+PelZpq73WC17xr10i85maEVtgkBJziNL3PuSVXsbpncM/U1B1exX9nQHz1WGdVPtfTUquz4banyNlbeBr20wHlB72Uv0xmbPktcR8ZoXH2zsIUma99ZE9QuVVGLXHs/expHdHlb3PgduMvBvYM4MLa7m9ZffhiYaDwAAAGhpdmpNhmf01T1Gq17u49ku5bg+WWfoatAsxnN1MleJk/sqNMi9bcv8cU8oPOJhRXZ7XL0qlnqujknBt73vcOOz736myji24jbgVX1oPAAAgBap9r+v63oOEADQsAh+AdTKis88e7OGxuifermv3D/++ZxbnHS6oDzPSsDm3iOUeKsBYpZTVzx/tPSeXrGfcLkhL/e4xbJ2XvbbZC9x/9Ey8H/VPDO2Ae3JzfP8yaJ+/xpvqDYc+7wl+ixbkkyyxvStZomcqYqO8kTkORma7L3H2kthau/VszHYKj70fnpu9p0O3QEAAJqX9KUZsklSULSee9Y9mrUfWauPjR193OHxXNv2sviM1WPU88Gqo8ybmhIti+cp2zJer9j/T5ImhHao7Oex53z5K2rAsXNDvA5J2m9Xxcj+Dn2XAACgOar97+s6ngMEADQagl8AtbNup455lqkzmSQVZerAEmMno7X65HCB+48hfZWw+QMlxFQGgdHPTteq1FRtmuJp+HKDjpfPIO42VquSFmpCL0mK1oSFu7R6eK1jXyl7rZJPexaPiRiu9Yc2KvEl935q6jVeif+Rqt1/9Dmi3uzvpSjT85CWkSu1e+F4eR5RiorRhIXbdOTTpV5H3K4UvfH7ve6Tf17LKldySZ7QWxH9tGqM+z23jJmr3XPjq+xD1tDWJB1372Unk/pN26b102IqA/te8ZrxfqrSNk/1PgQAAKDlyn5P6WfdfzSZJMmu45tvtRXJnRnPZfzZM1YPitY/vT/XvXdtVIwSN6/Uc3U9YVta+UdLv5WefXAjNHb+Ls2L7+zV0c2+PsWzhYlkGfmBjmye7Rn7S9Evzdb61F1a5nOEh/kRxU6uGGVLDf065P7Mks9WfpdY/Wn59xJJilDsywu1/WgNzw8AgBak9r+v63gOEADQaAh+AdTSlspl6iTlH9mqFT716n382tv6+IL7pIkparjmJX0lh+OSHI5L2v/RbI19NMxr+eYMvfHeTtldkmRSaMxELdt3SQ7HPi2b3Fc64jXT4ZZytfi3S5TsKH/seM1Yvs/92PuWasZwq9p7793VELIXaPKSDPfMaJnVb/JS7fe8VsehbVo2OUaWhpqe8fnrWvG5Z0BdxQZ9ctxTM1k1dvVXcuRe0pHVU9Wz0OYJZRvR1lf11labezlqk0Uj5m7TkfL3Yd9GJY6zKux21uwGAADwS7l657MTlfvZnU3Rv91yj7w7M57b8R8HZPM8MXPfqVp1yD1unRFvkj3bM22nttaXXygqmbqNdt9X7ldaNSVaeReqGbdmL9Eb76bIvf2vSZb46Z6x/yXtXz5dIx71nan7yZnybwKdNWShe1yfleS+mLBBX4ckKVfzX1+i9EL338x9y7+XXJLD8ZW2/3GiYiNuYyYxAAD+pg6/r+t2DhAA0FgIfgHUWvq2k57gtUBndm8xlmuQorefGqV3kjKV76w43SWVuOQqtOt40gqt2O/VfeubemHmWqXnep2gcRYoM2mOho6zV54wq43stXqlT/WP7byQouS93p0bhn31ixo6ba2SLzjlKp+lIUkup/LPp+jDVR95NdbPx6+tqTgZZfTxa29rTYpNzorn4JQ9Y63eevW4rvp2bRTJM+P0/JydynT4vg+uIqfsR3dq+fI93t0bVKdO92vKlGnq0uUhn/Z7771XEyf+s6zWR3zaAQAAGt3yZJ3xzJbJPLy2Vhcz3pHx3Jez9Mo895itgtOu9NVv6uO/enesjS16ZZZ7HFzhJ7vS172tV46Xb+jiy776VfUaNUc7ThfIe7gul1O2lBR5jxjTp83Rmgx75ftR4tKVQs+CzA36Ojyy1+qF5990fwbez63EJafDpuT165p0f1/GvACAO6X2v6/reA6wgfG7EQDcAjp27FhmbGwpEhMTJUnvvlubeYkAAH9htXbXP/9zgg4fztAnnyRVW7t27ZpSUw9oxIiRSk9P06OPPqb77++sTz/dqYMHbznNBgAAAGhSjHkBAPDF70YADeWtt2ZIkhYvXmws+T1m/AIAWhSbLUu7du1QmzZtNGTIs5KkPn366f77O+v06a+Vnp5mPAQAAADwK4x5AQDwxe9GAHAj+AUA+K2uXaOMTZKkQ4cO6sCB/5bJ5N49pm3btjp79oy2bt2ksrIWu9AFAAAAWiDGvAAA+OJ3IwDUjOAXAOB3fv75Z0nS+fPnjKUK+/fv0zffnJUkFRTkadOmDbpx44axGwAAANAsMeYFAMAXvxsB4NbY4xcAAAAAAAAAAADAXYE9fgEAAAAAAAAAAAAAzRbBLwAAAAAAAAAAAAD4OYJfAAAAAAAAAAAAAPBzBL8AAAAAAAAAAAAA4OcIfgEAAAAAAAAAAADAzxH8AgAAAAAAAAAAAICfI/gFAAAAAAAAAAAAAD9H8AsAAAAAAAAAAAAAfo7gFwAAAAAAAAAAAAD8HMEvAAAAAAAAAAAAAPg5gl8AAAAAAAAAAAAA8HMEvwAAAAAAAAAAAADg5wh+AQAAAAAAAAAAAMDPEfwCAAAAAAAAAAAAgJ8j+AUAAAAAAAAAAAAAP0fwCwAAAAAAAAAAAAB+juAXAAAAAAAAAAAAAPwcwS8AAAAAAAAAAAAA+DmCXwAAAAAAAAAAAADwcwS/AAAAAAAAAAAAAODnAjp27FhmbGwpEhMTJUnr128wlgAAAAAAAAAAAADcZSZPnihJWrx4sbHk9+6K4Pfdd1cYSwAAAAAAAAAAAADuMm+9NUNqocEvSz0DAAAAAAAAAAAAgJ8j+AUAAAAAAAAAAAAAP0fwCwAAAAAAAAAAAAB+juAXAAAAAAAAAAAAAPwcwS8AAAAAAAAAAAAA+DmCXwAAAAAAAAAAAADwcwS/AAAAAAAAAAAAAODnCH4BAAAAAAAAAAAAwM8R/AIAAAAAAAAAAACAnyP4BQAAAAAAAAAAAAA/R/ALAAAAAAAAAAAAAH6O4BcAAAAAAAAAAAAA/BzBLwAAAAAAAAAAAAD4OYJfAAAAAAAAAAAAAPBzBL8AAAAAAAAAAAAA4OcIfgEAAAAAAAAAAADAzxH8AgAAAAAAAAAAAICfI/gFAAAAAAAAAAAAAD9H8AsAAAAAAAAAAAAAfo7gFwAAAAAAAAAAAAD8HMEvAAAAAAAAAAAAAPg5gt9GFBR0j8LCwmW1Pqbevftr0KCn9OSTz+jJJ5/RoEFPqXfv/rJaH1NYWLiCgu4xHg4AAAAAAAAAAAAAtULw2whatzYpKsqqAQNi1LZtOzkcl3XixGEdOLBHe/fu1N69O3XgwB6dOHFYDsdltW3bTgMGxCgqyqrWrU3GuwMAAAAAAAAAAACAmyL4bWBhYeHq02eArl0rUnLyXp06dUyXL9v1449/V2lpaUW/0tJS/fjj33X5sl2nTh1TcvJeXbtWpD59BigsLNznPgEAAAAALdiUbcpyXFJW0lRj5S40VduzLsmRtU0JxhIAAAAA4KYIfhtQ164PKzT0AR0+nK6srHO6ft1l7FKj69ddyso6p8OH0xUa+oC6dn3Y2AW4MzwnnRyOSzq9ebyxWr2o2dp9wX0MJ6tqzxIzVcuSUpV14aIcnvfckXtRWSf3adXkaGN3AAAA+I0IjZ39gXYfPaecXM84zzPWyzl7SLv/Y7bGRhmPAQAAqK0IjZ2/UWlnDeeUDm7UvGeNfT2iRmve5lRl5VSOTbKObtO8MRHGnm69JmrVvq+VVT6WyT2n0/tWahJjGABo1gh+G0jXrg8rODhYX32VpqtXfzCWa+3q1R/01VdpCg4OJvxFkwsd+JJmGBurETtrtPqFGFtRswhNWndIaUlzNSHGKnOQS/kXbLKdtyn/J8kcHq2xC9/XMuNhAAAAaP56Tdemo19o1czh6hdhlpx22c7bZLtQIGepSaaOFvUbPlHjhxoPBAAAqKU/btSqKfGyhrhkP+8+p2QrlMzd4pWwLlXLjOFv1FRt37lSCfFWma56+uc6ZY6IUcLybVr1UjX9P16osb06y1RoU3pKhmyFJoX2Gq1Fn25TAuEvADRbBL8NICwsXGazWSdOHPZZzvl2lZaW6sSJwzKbzSz7jCbjKnJJIX31/MIarvqrMF4JMRapxNjuh56eq+1Hzykndamx0oAilLD1/2rRSItMTpt2LHhRAyMfV6+n4jQ4Lk69uj+sgeMWaMd5p/FAAAAANHfPLtT+/5ytIRFSfsYGvT3sIUX2eFKD4+I0+KlfqXvkQ56xXp5qvz4UAACAQUm+bElzNDTycQ2Mc59TGtzrGc3PcEomq/7prbk+3Wf8+2zFhkrOjAUa3MvTf8DjGrokQ06TRWOnr1SsV/8JCxMU27Gy/wsvv1h5/x1j9D/mjvbqDQBoTgh+66l1a5OiorrpzJlTDRL6listLdWZM6cUFdVNrVubjGWg0blybMqXFB3/Lz4DvypmvqTYUCk/K1N+H1V2j9YvI8wyBRkLDccye6USn+4sFWZo/rA4vbE6Q3ZDH3vGWr0RN0pvG9oBAADQnMVr1e8nKtrski3pbY0cN0cfnzb2KR/rxemVdcYKAABALSW+qMG/3aBMn8ZcrRm3RZklkikqWgkV7XP1fB+TVHRCq8et9TkPlbn8d/qvs5KiYpQwrrx1tEZEd5Zk14FZ3v1ztWbrceVLCrXGVLQCAJoXgt966tLFopyci/Va3rkmV6/+oJyci+rSxWIsAY3ObMpVerZn4Gdc7qVChBY911cm2ZX++VVjEVWM16KX+8okp9JXvKg12cY6AAAA/JVl/mw9FyXpwg6989udVS7uAwAAaHz5uvKToWlytCxBkhzfaoWhJOXqnTM2SZ1lfbp81b8OnkkRLhUbz10l5YkzgADQvBH81kNQ0D0KD++i7OyLxlKDyc6+qPDwLgoKusdYAhrZFf1bSqakzoodP91YdHvp/+i5HpLOpujfrhiLXqJGa97mVGXlXJLD4bnlnNPpfSs1qZex81Rtz7okR9Y2JUSN1qJdXysr13NM1iFtnxsvSbKMcS/LXHF/XjUfvSZqWVLVx057f6KiKzotVZrjkhzzY2SWpG7jK/pmJU31urNoTXp/n05nVd5XTtbX2v/+RNXq8oxxw9UzVFJ2ilbUZYbHlG3KKn8uzy7U/rOe57Z1olenOjy3Wr0navjPAgAAoAWbFBMtk1w6vmOW0o3F+ug1Uav2eY3Dci8q6+Q+rXrNsCWLz5hxrjYdPKecirHb19q9eHSVceGyg5fkcKRqmaI14z+8xoeesaFFnsdP9bov75q3Wo8xvR83QgkfHfLcd6qWGfr5iJqq7WcvyeG4qCPrqnl8AAAgRXVTmFlSsUv55W2Bvl2qsOXLKalD+AhPwwalX3BJsuiR2b7jDcvCnrJKyref9GkHADQfBL/10KnT/XI4Luv69cbbnen6dZccjsvq1Ol+YwlodPY5nyjdKZn6jNCiKGNVmjE+RqFy6fhnc2qe0fDsQu3ft1IJ8VaZi+zKzNirPRmZsheZFdprtBbtStWyZ40HSVJ7Ddm4TBMir+jbIxnKzHVKZotip63U9rlLtWn5VPU35el4hqE2xfdelq1cqAkxVpkKbcrM2KvkozblyyzruIXa/NF4T69c2c7bZMv2LFZdVOD++3mbvs3J8/SJ16ID/6lF46IVWuJ+HclHbbpq6qzocQu1f6t3QFyDmAiFSrJnbrnNk4HdtH35REV39Pw1qHwZ+Lo9t9q9J94a5rMAAABouaYqOkJSUaYylhtr9fDsQu3/z4Ua26uz5MhU+u4UHc9xyhQerbGL/7v68Va7eKWtm6pYc57OpKXo+IUCucyd1e+1ZVo/3xAWS5JMsiT9pxJjTLIfz3D3N5llHTdXm5bP1faPF2rsg1dkO+KpBXpqf/Rd4rHuY0ypwx83KvFZy623Womaqu2fzlVsRyn/yyV6YcqGmr9/AABwF4ud3s8dzGbu1Y7yxv125UlS+COa4dPbbUi/R9wTIbysWLVDNpdJ/aZt0/ppMbIoQrGzN2r3K9GSK1M75mwxHAEAaC4IfuvBbO6ggoLyUKjxFBTkyWzuYGwG7oC1WpFsl4KiNWSWYe+OqIXu/UHyM7SlxpNbMRX7nNl3z9HAHk9q6LjXNXncMA3s8YTe2W2Xy2TVhN+vrLqPsDla/bVDk3vFaeS4FzV0wON6Zbddklmx08bLkrul2lr/f5ztez+FNu2YM0yRfeI0dNzremVUnHpN2Su7pNBBoz37nbynyXFxGrzhjHufYscBDY6L0+C4OI383U5JUuzyuZrUwyz73srX8cqoOPWKW6D0Qsn89Gta9bTvQxslRIRJklxFGcZS7Vh/rf4lJ7Rm2hMKD39I3cetlW7nudXqPfHSUJ8FAABAi+WZXVNarJsthFM3MVo2d6Ki29q1J/EJdR8wTC9MeVUjn/qVBi/IkFNmxU6sOo4294qRKWWOBveK08iX3f0nJ9klmRQ99F+q9Jcsin3sjOYPe1JDx73ovv/lJ+SSSdaXpipWGb619z21wRN976uuY0x1UL+hFuXtnaOh4Q8pPDxObxu7SJLitWzjbMV2lJwZCzTyJd+9CQEAgJtlzEotGmOVXDYdWOcVzGbv1LELkkL6alrSVJ9VMyxjVmpefGevFo/PZ+mVxJ2yyaIRc7fpiOMrbZ8Zr9ASmz6cOUzzjUtAAwCaDYLfeggJadcoe/saXb36g0JC2hmbgTsifWmKMksky7Ozfa4KjJ0Vr+ggyZ6xVh97tft4aapioyTlpuidKlfl5+rDKe8rPd+zj/A4n6KkAqWvmqVkr5bkP5z03IddyXMMtc8vKF+SKSJaY73a3x4VpzfWZ3q1SPr8M9nyJZlDZfWt1GC0EuKtUn6KVvzG8Dqy12pFhl2SRT1Hehcanjn0mpJnjdL8T3K9Wuv+3Or+njTMZwEAAHC3ci9t7Hvz3VKkGuOm6tfdpPy09zX5I+/xn2Rf/Z7ScyVF9dAYn4qqHRcm/3avMkskhUZUE/xKmZ/8Tmu8TuDal+zRMackuXT8oxcNteOylUgKj9CQyubbGGN2VvvctXrhNxtkOMpLvJYd/EATupnkzFigoeMIfQEAqE70zI3avXy0rIEFSl/yqt7+0ruaobcXbJHNJZlj5urI2UNKS01V2tFzOrJ6tMJy7e6JEF4sr32g7YtHyxrolP1oinYk7VX6+QK5QqyatHifFlW7eh8AoDkg+K2H4OBgXbv2k7G5wV279pOCg4ONzcCdkT1Hn550SSF99fzC8qXhxishxiKVZCp56U1mrw70LG18aoNPMFhpi9JtTkmdZRlkKJXkybbV0JZ9TS5JcubqmM8AVlJSnq5KUrBJoYZS9EuztWzzLqWlpup01kXl5K7UEGOnm4qRJVRSaLyWGU7YORyXtH2k51rJW+yZkl/kXhbeFFTdEnu1kH1S8z83Nt7ec6vTe9KAnwUAAEDL5JSrxNhWyW5zbyNiO2+TzVHLrYI824SExi+tMsZzOLZpRE1DygJbNRdm5uvKT5JCzKo6p6dAead8g+VKebJvN7Z57ivIVGVZyDqNMeXUsT1LbhLkBqtn0kp36HtiraYR+gIAUI0ITVp3SJ/OjleoK1MfTv9HvbC6mt/rn8/S4ClrlXzBKZfZIuujVllDJVvKWk3b4u5fXORZ2TJqtlbNHS6LbPp48uMaOOpVvfHb1/VC3K80ODFF+eZoTVq6URN8HwEA0EwQ/NZDq1aBKi0tNTY3uNLSUrVqdYtECWhEK7ZkKF9SdLx7aTjLwtc0JFRyHvlE79xkaZc6LW1s/BH/6ap7/5F6idey1Ivav3y6JsT3lSUiTMV/tct2ZK+O5xv73sQUi8Lku/dvtbdbnIna4dkv2PLYRGOpVlyF9qonu+r83G7jPWmQzwIAAKAlO6O8QknmRxRbZSUbacVv3NuIDI6L0+Avq4zoqlUxlnZUM7aruF2oMj50XqlpUFeTK8pLMraVc6n4JuP9SrcxxtQVOc8a27yY+2psjFkqsevAewtquJAUAIC7WNRoLTrw31o00iLX2Q16Y9gwveOzSpzB5wv0ylOPKzLiIYWHP6TwyMc1+OUFsj0WIbNcsp91b3dmmT5c/UIk++dz9LZhAoL9o1e15YRLCo3R+Jm+NQBA80DwWw83bpQqMNCYVjW8wMBA3bjR+AEzUKOta5We7VmS+aUY/Ut8tCS7Drzv3mO2Jnsc7h3OTCGG/YGr4TKuKdMAYlcv1IRHTXKeXqs3nnxIkd0e18C4OA0d979lLzL2von9Be692orO6N/LT9hVc5tc417HHhuOu5fY6x6vZbfYD7g6ruKrxqY6P7cGe08AAADgZaf2ZBZI6qz+L91iCedaKh9LXz2zosrYrvL2ulYYD2wCtzfGdOmKceUYb84MrdlqkyvIorHvs6QkAAC+4rVs4zJN6mGSffccDf31HO2o1cVaRhFKeMwiya5vPat8jLjFRI7FNrskk9p7bxYMAGg2CH7robi4WG3atDU2N7g2bdqquLjY2AzcQRn6t/2Zcqmz+r8yW/2iJJ1N0b/d7ESNJPuZXDklWaLHV7uXmDResVaze3CZYqzV35ieFklO/WnHAsPgd7x7eeTayrYrv0hSaDcNuY3AtkL2HP3XEacUZNU/LVzqsyfabavjc2uw9wQAAAA+Pl53wLN33gxtn1bTOsy1Z88tkEtSqPXXNYylm4/GGmPmzXxV83fb5TJHa9LyXZpH+AsAgFR+0VU3k+xJr2vglA1VVgCptZf+j57rIbnOpmiF53d4ZuHNJ3IkWt2Jb2NM4gAA1B/Bbz0UFf2o9u3vMzY3uPbt71NR0Y/GZuCOss/7SOn5krlvX1nk0vHP5tx6ULlup47lS4oarmXrJsr3QsAIjX1/imJDJdfZvbcMkW9LiSSZ1cHifeItQglJE9UvxKupXKFLxZJkDtNYn8ISfXbKKcmi5xau1Ngon6IsYxZq/66lvo01WDNrhdILJVO38Vp/dJvmjal6UtAyZrbWp+7SMmOhWnV8bnV9TwAAAFA7X87S/E9scsms2Ln/rbT3Jyra2EcRijWZjI3VW7JHx5zusfSi90dXHUsv3qfdf/RpbDqNNsbM1YdTXtTiDKfUsa8Slm9TgmG8CwDA3We0EmIsUtEJffLbesykeHauds+NV2iJXZ8tWVBxni896azskizPLtQqw3mr6JnbNKmvSXJlKn2DTwkA0EwQ/NaD03lFnTu7l75oTJ07h8npdF9pBTSdLVqT4RkC5mdoy62WNZYkbdErs7bI5jLJMnKhjpw9pLRdG7U+aZ+OnP1Kq8ZZZcrP0OLXKweXDWlFWqZckqInf6HTqdu0KWmf0k5/oXmPnXEvXW2UdNy9FF1ovP5wdJe2J6UqbbN7qb7KwHa0VqV+rbR927R+8y6lHT2nI6snKtpsvLMaZK/VCzPX6ni+ZIqIUcLqr5ST9bXSUlOVlnpIWTmXdGT1dI14tLZ3WLfnVuf3BAAAALWWPDNOk9dnyllilnXcQu3Pvaisk6nusd7Rc8rJ+Urbx7gj3GKXy3i4wVq9vSJDTplkHbdSaadTtT/pA23aleoeS78WrfbGQ5pI444xc7Vm3Jv68KxT6hijeZ8S/gIA7nYx7hU1TFaNSfWMM6q57f7j6MpDlqcq5+yhyvrBr5Xz0VT16+jU8XVz9Ib3Xr6fv653ttrkMlk1dvVXyjrqOebkRe2fHSOzXLJ9skTz6/07HgDQGAh+6+H77/+m8PAuat26llds34bWrU0KD++i77//m7EE3HHpS1OUWSLZM9bqY2OxJp/P0uBRc7TjdIGcIRZZB8RrREy0LEEFytz7nt4Y/aLWNNJA0T7vdb310QnlO00KfTRGQ2KiFebM0JqZL8pe7bbZ7+mNBTtlK5TMEX0VO9AiU1Geu5S9Vi88/6bWpNjkVGdZe8VoRHxfWUMlW8YWvfM/ZxnvrGafL9DIXsP0zuYM2RxOqW1nWR+1yvqoRWY5ZT+6Vyumvaq3jcfVpA7Pre7vCQAAAOoiec4wdX9+jj7OsMnpkszhVvdYL8IslXjGejOHqdfLt54mY1/9ooZOW6vkC06po1XRMcM1ZIBVYbIpffMcTfud8Yim0fhjzBS98+s39fEFlzv83Un4CwCAgsyyPOoZZ1RzeyTSa8KSPVdXg8Iq65FmuS6kaM20f9DIBVVnDSfPjNPzc3Yq0+GUqXws01lyXsjQx3NGafDMqscAAJqHgI4dO5YZG1uKxMRESdK7764wlhpMVJRV164VKSvrnLHUILp3f1xt2oQoO9tmLAEAAAAAAAAAAACog7femiFJWrx4sbHk95jxW0+XL9sVGflwo+z12779fYqMfFiXLzfGIrgAAAAAAAAAAAAAWgqC33q6ft2l7OwL6tmztwIDA43l2xYYGKiePXsrO/uCrl+/1d5PAAAAAAAAAAAAAO5mBL8NIC/PIafTqb59BzVI+BsYGKi+fQfJ6XQqL89hLAMAAAAAAAAAAACAD4LfBvKXv1xUcXGxnnhicL2WfW7f/j498cRgFRcX6y9/uWgsAwAAAAAAAAAAAEAVBL8N6C9/uaj8/O80aFCsund/XK1bm4xdatS6tUnduz+uQYNilZ//HaEvAAAAAAAAAAAAgFoj+G1geXkOnTx5VG3ahGjIkOHq3bu/unSxqF27e32WgQ4MDFS7dveqSxeLevfuryFDhqtNmxCdPHmU5Z0BAAAAAAAAAAAA1ElAx44dy4yNLUViYqIk6d13VxhLd0RQ0D3q1Ol+mc0dFBLSTsHBwWrVyh3+3rhRquLiYhUV/Sin84q+//5vKin52XgXAAAAAAAAAAAAABrIW2/NkCQtXrzYWPJ7zPhtRCUlPysvzyGb7RudOnVMhw8f1KFDX+jQoS90+PBBnTp1TDbbN8rLcxD6AgAAAAAAAAAAALhtBL8AAAAAAAAAAAAA4OcIfgEAAAAAAAAAAADAzxH8AgAAAAAAAAAAAICfI/gFAAAAAAAAAAAAAD9H8AsAAAAAAAAAAAAAfo7gFwAAAAAAAAAAAAD8HMEvAAAAAAAAAAAAAPg5gl8AAAAAAAAAAAAA8HMEvwAAAAAAAAAAAADg5wh+AQAAAAAAAAAAAMDPEfwCAAAAAAAAAAAAgJ8j+AUAAAAAAAAAAAAAP0fwCwAAAAAAAAAAAAB+juAXAAAAAAAAAAAAAPwcwS8AAAAAAAAAAAAA+DmCXwAAAAAAAAAAAADwcwEdO3YsMza2FImJiZKk9es3GEsAAAAAAAAAAAAA7jKTJ0+UJC1evNhY8nt3RfD77rsrjCUAAAAAAAAAAAAAd5m33pohtdDgl6WeAQAAAAAAAAAAAMDPEfwCAAAAAAAAAAAAgJ8j+AUAAAAAAAAAAAAAP0fwCwAAAAAAAAAAAAB+juAXAAAAAAAAAAAAAPwcwS8AAAAAAAAAAAAA+DmCXwAAAAAAAAAAAADwcwS/AAAAAAAAAAAAAODnCH4BAAAAAAAAAAAAwM8R/AIAAAAAAAAAAACAnyP4BQAAAAAAAAAAAAA/R/ALAAAAAAAAAAAAAH6O4BcAAAAAAAAAAAAA/BzBLwAAAAAAAAAAAAD4OYJfAAAAAAAAAAAAAPBzBL8AAAAAAAAAAAAA4OcIfgEAAAAAAAAAAADAzxH8AgAAAAAAAAAAAICfI/gFAAAAAAAAAAAAAD9H8AsAAAAAAAAAAAAAfo7gFwAAAAAAAAAAAAD8HMFvIwoKukdhYeGyWh9T7979NWjQU3ryyWf05JPPaNCgp9S7d39ZrY8pLCxcQUH3GA8HAAAAAAAAAAAAgFoh+G0ErVubFBVl1YABMWrbtp0cjss6ceKwDhzYo717d2rv3p06cGCPTpw4LIfjstq2bacBA2IUFWVV69Ym490BAAAAAAAAAAAAwE0R/DawsLBw9ekzQNeuFSk5ea9OnTqmy5ft+vHHv6u0tLSiX2lpqX788e+6fNmuU6eOKTl5r65dK1KfPgMUFhbuc58AmpEp25TluKSspKnGiv9qia8JAADgbsb4rpK/vhf++rwBAAAANCmC3wbUtevDCg19QIcPpysr65yuX3cZu9To+nWXsrLO6fDhdIWGPqCuXR82dgHuDM8JBkc1t5wL53Rk1wdKfCnaeBSao5m7lOO4JIfjkFY9bSw2Y+U/gweXGiuN6+mlSsu5JEfOPs2LMhYBAABuZanSHJfkyNqmBGPJG4Fes7bs4CU5HOe0fYqx4m2qtmfV4rMGAOAOsYyZq+1HL97kXEqExs7fqLSzFyvP9eVeVNbBjZr3rLGvR9RozUs6pKxcr/6pKzWpl7EjAKA5IfhtIF27Pqzg4GB99VWarl79wViutatXf9BXX6UpODiY8BdNq6hAtvO2ipu90CWZzLIMGK4Zy/cpa99CjSUca9ZmPBMtU36B8mVRv5djjGUAAAAAAAD4seiXZmt96jkdWT1VsRE32ULwjxu1akq8rCEu2cvP9xVK5m7xSliXqmXG8DdqqrbvXKmEGItMhV79Hx2tRR9vUwLnBAGg2SL4bQBhYeEym806ceKwz3LOt6u0tFQnThyW2Wxm2Wc0HccBDY6Lq7gN7PGwIiOG6e33UmR3SeZeE/XuxqUaYjwOzcRcPd/HJKdti47nSpaBUzXB2OUulbA6Vaezvq46i+PLWRoc+ZDCI4dpfrahBgAAAAAA0IwsSr2k/cuna8SjJtnP2uU0dvBWki9b0hwNjXxcA8vP9/V6RvMznJLJqn96a65P9wm/T1BsqOTMWKDBvQz9O8Zo5lJWLgGA5orgt55atzYpKqqbzpw51SChb7nS0lKdOXNKUVHd1Lr1Ta7WAu6oTH38h1c1cNQSHXdKpm5jlTg/wtgJzYBlYYyig5z60+dL9OEpuxTaUyNeMva6O1l7WhVq5v+rAAAAAADAf5nkUv7pvVox7RkN/M9cY9lX4osa/NsNyvRpzNWacVuUWSKZoqK9ti+YrvExnaWiE1o9bq3s3v1n7VBmiWTuPUKJFe0AgOaE4LeeunSxKCfnYr2Wd67J1as/KCfnorp0sRhLQNM6/Z7e2Jopl0yKHvovijXW0cQiNOPpaKnIpvR1Uvrms7Krs2LHTzd2BAAAAAAAgB96O+5h9Rr2uhZ/covQ96bydeUnQ9OUGD0SIrnOZ2iFoaTstfpTjqQQq/pONhYBAM0BwW89BAXdo/DwLsrOvmgsNZjs7IsKD++ioKB7jCWgSdnnpehMkaSIboblniM0dv5GpZ29KIfjkvuWc05pm+dWWRZ62cFLcjhStUwRSvjokHJyy/8uSVO1PeuSHFnblBA1Wot2fa2sXM/9ZR3S9rnxkiTLmLnafvRc5WN51Xz0mqhlSanKyvH0K39e709UtLGv5343HTzneU6X5Mg9pyNJVV+Dt6rHXFTWwY2aV7FPymhtOn1JDschrX/a91hFLdT+3Ety5O7TPEMpdt0hORyXdGR1LffpffpfFNtNcp1Ndg/Qv/xMtnzJ1GOIZhj73kqviVq17+uq79vmuTXu8Xzr96FhRU9eqf0nvR7PcUk5Z1O1af5oeV82k5Dk/jmZ0E2SzIqdX96/mp85r+Pcqvm5zr2orJP7tGpy1Z8g75/tSe/v0+ks7/fiA83oZTwCAABAkqJ9xw6OS8rJ+lr735/oM64pV3XcdasxazVjmrOp2jQ33jNWOld1O4zqjqlhfF+jqNFK/I99Op3lPZZyP9cqY8rlqXI4LiltuWR5zT3Oq3gvzqZq/cyqYy/d1nvRWBr7M6z+mLTNczVkyjZlOS4pK6nq8ptVj2ncMToAwE9EdVOYWVKxS/meJkvPCJkl5WVvMXSWpFzZ8pySzAp7zFgDADQHBL/10KnT/XI4Luv6dZex1GCuX3fJ4bisTp3uN5aAJrZE3zokBVkUXXGFX4QSPvq/endKvKwmp2xHU7QnI1N2l1nW+Klan7q02tnBHf64UYnPWmQKMlYkqb2GbFymCZFX9O2RDGXmOiWzRbHTVmr73KXatHyq+pvydDzDUDOcsFq2cqEmxFhlKrQpM2Ovko/alC+zrOMWavNH4336WqZt0/7VUzWkm1kuh03HU1J0PMelsIFTtfr/qX5pa8u0jdq9fKqGRJp0NeeEkndnKNPhkrlbvBLWpWrZ05K0UztOFUiyyDracD8T+yk6SFKQVf1m+5aG/MIiya7MbRm+hRrEvtxHFrl05ov3PC2exw3pq+fnGzrfhGXaRp3etVBje3WWqdCm4yk73e9bifvzXPXpNiUYTtTV7n1oKBFK+OhrfbpwtKI7ex4vKUXHLxRIZquGTFmp/UlTK06w5efYZDtvU36R++/ObPffbecveC1bVJ14LTrw31o1JV5Ws0v20xnaU/66wqM1duEupS2v5mIDmWRJ+m8tGm1RcXaGkjMyZf/JJHO34UrcuJE9lwEAgEG8Fh34Ty0aF63QEnvFmPWqqbOixy3U/q2+YV7dx6wRSkjyGtOcP6HklBOyuSwaMm2lJjxo7K/bHt8bJSxdpBnDoxVakld5Hz+ZZYmZqnc/mFttIGqK2Kb9i0fLUmJXeop7rG/qaNWI2f+fNhm2MKn7e9FYGvszrPkYy+CbHXMnx+gAAH8SO72frJLyM/dqh6dtRHgHSZKzsPqZxGty89x/CDRWAADNAcFvPZjNHVRQ4PlF14gKCvJkNrt/4QLNUvlAb8ofNfPZznKdXqtXuv1Kg0e9qsnjhmlg91f18QWXTI+O1b/MNByrDuo31KK8vXM0NPwhhYfH6W3vsjla/bVDk3vFaeS4FzV0wON6ZbfdPWNz2nhZcrdUW+v/j4b0tNCmHXOGKbJPnIaOe12vjIpTryl7ZZcUOmi0zz4mq96KkVlOpS8Zpu4D4jTy5Vc18qlfKXLyFuVFWGT2uWNJmqplM+IV6srUmskPq9dTo/TKFM/z2WqTy2TVP73lXmZ5R8a3ckqy9pzocw+Jfa2S0ymnTHpkgPcJodnqFykp/4I++9KruUbjlTDQIhVlKmN5ZeuO3WeULyk6ZmG1J9aqmq5Vb8Ur1OTU8dWvKrJPnEa+/Kb7fev2qtaccEodY5T4797LR9f+fWgQM1cq8dnOMhWeqHy835Z/Vmt1vFAyx8zWKs/P3I7fjdLguDgdcEiSU3/aEKfBcXEaHPd61aWLvMSuXqhJPcxyZe/VO4Mf18BhL2qy53UNTNwru8sk60sLtarKCTOLYnvatWay+5hXxg3TwGELlO6UFBqj8VX+LQAAgBbBHKN55bNaq7vNj6lmPCnFLp+rST3Msu+do4E9nqwcs8YtUHqhZH76Na/xxm2MWWeuVGKMWSrM0OLnH9fAuFF65eVRGtznGb2RlCdLVJUjbnN8Xw2nXenr3tTAHk9W3sew93S8SDL1iNcM46xfSZaYnrKvflXdBwzTCy+/qKED/kHzM5xSlS1MbuO9uCXv1WGqu81VbDV32uif4U2OGTx9Zw3H3OExOgDAb1jGrNSiMVbJZdOBdcbZvU5duWxoMgiLqLrCBACg6RH81kNISLtG2dvX6OrVHxQS0s7YDDQ78/5/MTKXZOq//scCJftUUvT2bveewI8M9A08pc5qn7tWL/xmgzINFbcCpa+a5XN/yX846ZmhaVfyHEPt8wvKl2SKiNZYr/a3R8XpjfWGR/jcvQSyzKGylrfNH6F+IZLr6Bq9sNzYf5be+byauaHzxyjWLGVuf13zP/ctJc/cqzNFkqlbjCZJ0roU/ckpKbKfEit6zVbMoya5zn+mY/mS2RpT+dyn9NUjIb5XXt7US8PVM9S9D8ti7/akHTqTL6lHTLUn1owsCz3vw4kNemNBiqGaovm/3aHMEsnUZ0Tl0tR1eR/qLUKLnusrk1w6/tGbVR5Pny/QG59kSjKp33NzDcW6GK+EGPeM6+Tfv64Ps32r9o9e14oM9yzu2N+M9i2qmvcie622HC6QZFLoY7VcuhsAAPiXEqfs58tXFqnmlu00HiFptBLirVJ+ilb8ZoPvaiTZa7Uiwy7Jop4jPW23MWadVz52+n9f1IrT3pVc7fjtHCVXM6nn9sb3Va35zTC9MG+n4XUt0fEcSQqTZah3wePsDk32GYfmas3W4+6xfnjPypnGt/Fe1Ebl6jDV3exylhiPaPzP8GbH2D95s4Zj7uQYHQDgL6JnbtTu5aNlDSxQ+pJX9XatJhsYlDTeKpgAgNtH8FsPwcHBunbtJ2Nzg7t27ScFBwcbm4EmFqMOJkm6ovz9kjRV0RGSgqI16ZDxivhLcszsK5MkBZkM9+PUsT1Lal5qtyRPtq2GtuxrckmSM1fHjAPTpDxdlaRgk0INpeiXZmvZ5l1KS03V6ayLysldqSGGTgk93PNhbafKl0n2lX48V8ZTdeXHRE/+qurrdkxXvxBJQXK/fq3VCZtLCrGqb/ly1FP66pEQl85kzFK6zSmFdtNznpkAY2MekVlOfful8crL6s0YH6NQuXQmbYmhUr7MtFWxs24dOI541CJ57qfazyZ7rb7N9V3qu27vQ32NkDVC7pnNS6o5SynJvt6zhHN4dD1OZPWRJVRS7ll9aAyXPT72zOIOtRjf1wLlnar63HYUXpEkdehY/f50AADAz/10Rh/Gla8sUs1tw5kq40kpxj3mCI3XsirjqEvaPtKzZotnpZ26j1k9Y/USm457rQpTKUPH7MZndbvj++pZYqZq0bpt2p+aqiNnLyon55ISehh7Vcq/fLzqOLR8rN/erPKRVN3fi9rwXh2muttH+lOVUwGN/RnW75g7M0YHADR/EZq07pA+ne1eDeLD6f+oF1ZXPXchuX8/3EyeY4OxCQDQDBD81kOrVoEqLS01Nje40tJStWrFpgloZqJGu4O3/AtKzpakbgoz33qGw7c5xuXRr8h51tDk7aerMh5Rd/FalnpR+5dP14T4vrJEhKn4r3bZjuzV8XzfntZO5lotZ+PNGuZeUO1WswLKH2pxWqZcMuuRGPcM0YRne8pclKmMJdKaoza5KvYAjtFzj3WWimxKX+f1gDWarl/3MLlnuc40ntS5pFXPdpYkWfpNvOVebO7X5FKxO6OsRq6Ky//35/nfU13fh/rx/LyVFqvGp1h+gUB9TmRNsShMklxXlG6slSuf7VHlC9EV5SUZ2wAAAKpRPuYoKqhm/OR18yShdR+zesZOdRpb3+743ihCCVu/1pGkuZo0MkbWiDAFF9plP52i5As1zxS6WrjT2FStur8XjaTRP8PbPOaOjtEBAM1a1GgtOvDfWjTSItfZDXpj2DC980nV0De/yCXJrLCK5fF8TQoPkyS5jFcbAQCaBYLferhxo1SBgY0fyAYGBurGjcYPmIG6mPD7X8sq7yWILyjPKUl27alyRXzlbeTvjCdwXLpinLXbwGJXL9SER01ynl6rN558SJHdHtfAuDgNHfe/ZS/y7VtQ5Dn5VCXE8+jSvsq+WTb3C5d9f9XXW3EbNatyqeYlx2UrkUIfe06xGq9Yq1nKOe5emtlTs/acWBGuu85n3HQP2gqepd9UaK/mZI77ll8kKaKfEl4yHuzL/ZpMCr7l9uIuuQrdf6rz+1Avnp+3wGDd8ikWu27/RNb+AnewbOpwy7CcbzwAAOC2lY85is7o343jJ6/bZM9s3bqPWQt01TDuNQrrYBzl3u743mDmSiU+3VnK3at3hrnH4r2eitPgUa8qPa/m4Le26v5eNJJG/wxv75g7O0YHADRf8Vq2cZkm9TDJvnuOhv56jnYYtrMqt8NzUVdNe/hGh5kl2WU37gwGAGgWCH7robi4WG3atDU2N7g2bdqquLjY2Aw0Gcu0bZr3bGfJlakdc8qXIM6U86qkIKv6zTQc0MTG9LS4l2vbscAwqB3vXo7NS/pf8ySZ9UjMeN+Cx4zeVS93zPQs3WvtPd1YqsEGHcuSFNFNYzx78mZmLPDUFig9y7MH8AuPyCLJdsK4bHN1IrQoJlqSS8c/erLqyRzP7d+OFEjqrJ4jq3995fbk5kkyqWdMDa8paqF+GSmpyK5jnlmtdX8f6mOP7PmSQqIVU8PPm2VhT1kluXKO3/6JrOwzsjslRfTQeM/y20YTnn5EZkn2b/nGAwAAblO23X2BXmg3DalhzOGt7mPWb93Br/kRxVZ7AeB09Ys0tjXM+D4hxiqTJFvG6/rQZ2/hGPW3GGPKuqv7e9FIGv0zlL793lnnY+7sGB0A0FzFrl6oCd1Msie9roFTDHvRG204I5skszVGE4y1qIX6ZTf3CoCfNfJEDgDA7SH4rYeioh/Vvv19xuYG1779fSoq+tHYDNx5vcYrcfMhpc2NkVlOpS95XfMrgtQMfZhhcy8z/M/bNKOX76HqNV2b9n2gBEPzHVEiSWZ1sER4NUYoIWmie4asl/TNJ2WXFDr4t1r/mnd/d+A9rU/VRYPTN2fIViKZBiRo+0zjvq3RmrF5n9aX7+crScrVmjM2SVb1f6ObQksydcxrW5QPz9ikEKtGDLfKVJKp9Hnex9Ygarpie5TveWssVvr4kzPKlxQ68CXNMBa92N9LUabL/Zp2z403VKM1Y+lYRQdJ+RlbK2Yj1/19qI9crUjJlEsm9fvnXZr3rKHca7qWjYmWVKD0Lb57oDldcv88dPFprsFafXK4QJJFz/3hA02K8q1axqxUQoz7Iog9SzN8iwAAALW2RJ+dcrrHHAtXamyVMcdC7d+1tOLvdR+z7tSaDLukzhrylnFME60ZSQlVxsUNNb53ebbFaB/qG1YOWb5QQ3yf+m2p+3vRWBr7M5R2/EdGjcdEz6z+mDs7RgcANE+jlRBjkYpO6JPf1uKi9ez3tOeESwqN14z3vc8JRShh6VhFB7lk27/29i+yBwA0KoLfenA6r6hzZ/eeBo2pc+cwOZ017mIJNI7wXystNdVzO6SsCxfl2LdUM+ItMjlt2pH4D3phte8+IOkzF+jjCy6pY4wSPz2nI6m7tGndNu0/+LVyPp2tIRFm956rd9iKtEy5JEVP/kKnU7dpU9I+pZ3+QvMeO6N047I2X76pD1MKpCCLRiz+QqcPel7D0XM6Mref8jJOqMqCvl/O0vwkm1wyK3b2PmUdTdXuzR9o+75Unb6wT4nxFpkNq7Xbd56VXZK1m0XKOaM1Xs/DvvOC7DLL+qhZyjmjD70PrEHsrBhZpcolo2uStENnPDNlf32zmRvZCzR5SYacMqvftI3KOZmq/UkfaNMuz2uKMct1foveeq18xvftvQ835fMz6HXbtVRjJdnnva7FGU6pY18lrL+o0wf3afu6jdrt+XmL7eiSbevbemWr790mf+u+rjX6ta+VlrRN+0/v0jLfLj4+fu1tfXzBJVPUcC1K8/q5PnpOR1aPljWwwHARBAAAQN2tmbVC6YWSqdtorUr9Wmn7tmn95l1KO3pOR1ZPVLT35NjbGLOmT/tIyfmSIoZrUerXStu1UeuT9unI2X1K7Jen9NPGIxpmfP/hzuPuCw/jlyrr6C5t8rymTWOkY9U8Zp3dxnvRWBr7M7zZMftn91PekcxqjmngMToAwA/FuFe8M1k1xniOxeu2+4+jPf1ztXjpDtlckmXcRmUd9fQ5/YXmxZjlurBD83/Hxe8A0FwR/NbD99//TeHhXdS6ddWrahtK69YmhYd30fff/81YAhpXSGdZH7V6bhaZTZLTYVP65jka2j1Ob3zkG/q6pejtp0bpnaRM5f9kluXRvhoyMkbRESZdPbtXK+b8rlYhZkOzz3tdb310QvlOk0IfjdGQmGiFOTO0ZuaLsldzkmPNy/+oN9ZlyO40KbSb+zVYQ/KUvPp1DU6pftn15Jlxen7OTmU6nDJHWNUvfrhie1gU7MzUnuXv6O31hgO+3KJMz1toO/6e7xI7X34mm2dTWvuZnTdffkeSFKNJ/SySvJeMrslOrTlid8/ceG6usejDvvpFDZ22VskXnFJnq6JjhmvIAKvau9w/B8/HzVKy4Zg6vw834/Mz6H2zyL1Cd67WjPsHvbEuRTanFNotWrEj49Uv0ixXToY+njNKg2dWvZI1fdocrcmwyxXYWdaYGEUHq+oJMh/eP9emyp/rcCn/9F6tmP6PVS6CAAAAqLPstXrh+Te1JsUmpzrL2itGI+L7yhoq2TK26J3/Ocune93HrGv1yug3tSbDLmdgZ1kHxGvEQKs6FKZozZQ4JVe7yFQDjO+3vqqXl+yVrdAlc0RfDYnvK0uQXTvmvVrDY9Zd3d+LRtLon+Gtjrlq7C419BgdAOC/gsyyVDnHUnl7JNJrgtOXszR41BztOO+UKdzTp71LtqQ5ev6pqueDAADNR0DHjh3LjI0tRWJioiTp3XfLFyJteFFRVl27VqSsrHPGUoPo3v1xtWkTouxsm7EEAAAAAEADiNCqQ19pbFSBkn/7K72SZKzDH1jeP6Qj4yzK//xN9Xptp7EMAAAAwOOtt9wbIS5efNP1M/0SM37r6fJluyIjH26UvX7bt79PkZEP6/LlW8/3AwAAAADgtjw9XT0jJBXZlUno66diNKO3RZJL9rOEvgAAAMDdiuC3nq5fdyk7+4J69uytwMBAY/m2BQYGqmfP3srOvqDr12+1axIAAAAAADcxZaPSds3V2ChDe9RorVo4VtYgyXl8j1re9e4tyVRtSt2leWMiDO0RGvv+Qv1TN0mFx/XZEkMZAAAAwF2D4LcB5OU55HQ61bfvoAYJfwMDA9W37yA5nU7l5TmMZQAAAAAA6siksAFTtSrtok4fTFVaaqrSUg8pK22lxnYzyeVI0fJ/XWs8CM2M6cG+Slj9lXJOln+GqTpy9iutGmeVyVWg5FW/0xrjQQAAAADuGoFt2rT5vbGxpYiNjZUkffXVEWOpwV29+oPatTOrW7dHdPXqVblcxcYutdK+/X3q23egioqK9Je/XDSWAQAAAACou0KHStr/Qr94MFQPdglVp/s7qdP97aUrdp36bKkmj56nPVeMB6F5yZfjxv36xS8eVFjYgwoN7aRO93dS+1ZO2U/u1b9NHaX/9anTeBAAAAAAgyeeGCRJSk9PN5b8XkDHjh3LjI0tRWJioiTp3XdXGEuNJiwsXFFR3ZSTc1HZ2RdrvUxz69YmRUU9rMjIh5WdfYGZvgAAAAAAAAAAAEADe+utGZKkxYtb3mY3LPXcwPLyHDp58qjatAnRkCHD1bt3f3XpYlG7dvf6LAMdGBiodu3uVZcuFvXu3V9DhgxXmzYhOnnyKKEvAAAAAAAAAAAAgDphxm8jCgq6R5063S+zuYNCQtopODhYrVq5w98bN0pVXFysoqIf5XRe0fff/00lJT8b7wIAAAAAAAAAAABAA2HGL25LScnPystzyGb7RqdOHdPhwwd16NAXOnToCx0+fFCnTh2TzfaN8vIchL4AAAAAAAAAAAAAbhvBLwAAAAAAAAAAAAD4OYJfAAAAAAAAAAAAAPBzBL8AAAAAAAAAAAAA4OcIfgEAAAAAAAAAAADAzxH8AgAAAAAAAAAAAICfI/gFAAAAAAAAAAAAAD9H8AsAAAAAAAAAAAAAfo7gFwAAAAAAAAAAAAD8HMEvAAAAAAAAAAAAAPg5gl8AAAAAAAAAAAAA8HMEvwAAAAAAAAAAAADg5wh+AQAAAAAAAAAAAMDPEfwCAAAAAAAAAAAAgJ8j+AUAAAAAAAAAAAAAP0fwCwAAAAAAAAAAAAB+juAXAAAAAAAAAAAAAPxcQMeOHcuMjS1FYmKiJGn9+g3GEgAAAAAAAAAAAIC7zOTJEyVJixcvNpb83l0R/L777gpjCQAAAAAAAAAAAMBd5q23ZkgtNPhlqWcAAAAAAAAAAAAA8HMEvwAAAAAAAAAAAADg5wh+AQAAAAAAAAAAAMDPEfwCAAAAAAAAAAAAgJ8j+AUAAAAAAAAAAAAAP0fwCwAAAAAAAAAAAAB+juAXAAAAAAAAAAAAAPwcwS8AAAAAAAAAAAAA+DmCXwAAAAAAAAAAAADwcwS/AAAAAAAAAAAAAODnCH4BAAAAAAAAAAAAwM8R/AIAAAAAAAAAAACAnyP4BQAAAAAAAAAAAAA/R/ALAAAAAAAAAAAAAH6O4BcAAAAAAAAAAAAA/BzBLwAAAAAAAAAAAAD4OYJfAAAAAAAAAAAAAPBzBL8AAAAAAAAAAAAA4OcIfgEAAAAAAAAAAADAzxH8AgAAAAAAAAAAAICfI/gFAAAAAAAAAAAAAD9H8NuIgoLuUVhYuKzWx9S7d38NGvSUnnzyGT355DMaNOgp9e7dX1brYwoLC1dQ0D3GwwEAAAAAAAAAAACgVgh+G0Hr1iZFRVk1YECM2rZtJ4fjsk6cOKwDB/Zo796d2rt3pw4c2KMTJw7L4bistm3bacCAGEVFWdW6tcl4dwAAAAAAAAAAAABwUwS/DSwsLFx9+gzQtWtFSk7eq1OnjunyZbt+/PHvKi0trehXWlqqH3/8uy5ftuvUqWNKTt6ra9eK1KfPAIWFhfvcJwAAAAAATWbKNmU5LikraaqxgrvJ8lQ5HJeUttxYAAAAANBcEPw2oK5dH1Zo6AM6fDhdWVnndP26y9ilRtevu5SVdU6HD6crNPQBde36sLELcAdFa9L7u3Tk7EU5HJfct9yLyjq5T6smRxs7tzjLDnpec84+zYsyVr0tVZrjkhwHl/o2e06MVbx3xpuxPwAAAFqICI2dv1FpJ88pJ7dy/JdzNlWb5o+Wxdi9qdQ0Xs05p9P7PlDimAjjEWimYv+YqhzHJeXsm9t8fr4AAHdAtCa9v0+ns7zO3eWcU9rmuRprPJdV0+994+1W56sm3+x+UrXM2B8A0CQIfhtI164PKzg4WF99laarV38wlmvt6tUf9NVXaQoODib8RdOImqrtp/dp0bi+spglZ65NtvM25f8kmcOjNXbia8YjWi5TtCa9P/v2T6AUFch23v3++dxsucaeAAAA8HvxWpb6hVZNiZe1s0muAvfYz17okqmjVUNeGq8RxkOamvd49UKBnDIrtNdwzXjv/2r7NMJfAACareXva9G4aIWW5FX8Ls8vMcsaP1XvblyqId59C+361nhuyutmL3R3y//zSe+jqgr0/LfQXuU+bOcvyG7oDgBoGgS/DSAsLFxms1knThz2Wc75dpWWlurEicMym80s+4w7LmHpDMWGSs6MJRoa8bC6D4jT4Lg49er+sAZOW6vj9trPZK/RlJVKO3lOp7c29lJxMZq39ZCycm7nqsMC5edLpr4Ttex2T3o5DmhwnPv987n95j1jTwAAAPi52OVzNeFRk1wXduqNwQ+rex/32G9gj4cVPmyO9pxxqgFG0g3Le7z61K/UPXKY3tlrlyuos2L/+X9prLE/msbTc7X96DnlpFadiZX+uzhFhj+kyGELOOEOAHeTUqcyP3pTA3s8WfG7vNfQN7UnVzJ1G6/E+V59k2ZppPHcVMXtE+WbJBWd0Jbfb/E6qBodgmWSZE95sZr7eV0rjP0BAE2C4LeeWrc2KSqqm86cOdUgoW+50tJSnTlzSlFR3dS6tclYBhrJRA15zCzJpk/HvadMQ9X+yQKNfHmOofU2PNZD1nCzgoOMhYYWrehfWWS+rX9CJn17IlMumRX7xh+VYCwDAAAAXsb0tkpy6tiGN7Uj21A8vUGTx72uDw3NzU+mPvzN+0rPlxTeQ889bayjSXSP1i8jzDI1+vcnAIDf+N0oDU3c6XvRT/ZOzT/ibrF0n+hdqVHs6pfUL0Syf75Ei43jF6Nws0ySXCWsZAcAzRnBbz116WJRTs7Fei3vXJOrV39QTs5Fdely2wvNAnVkkspPJhj3A7kbHV6g/zrvkjrGaNK6eGMVAAAAqFQ+ji5fBtFvbVGeU5I6yNzdWAMAAM2ZvcS9vsgVp81YqsZ0/cuzFqnohD6elmEs1sjlNLYAAJoTgt96CAq6R+HhXZSdfdFYajDZ2RcVHt5FQUH3GEtAI1irzFxJsur5pdMVbSzXpNdErdr3tbJyLsnh8Nxyzilt81yN9Q6Qp2xTluOSHC9ZJUnmmLkV/dOWe/osT634u2XaRh254Kn/sfJuLGPmatPBc8rJ9TxW7kVlHdyoec9W9ll28JIcjrmKNUuSVRPKn1fWtjrM3s3Q23/YK3uJZBm+UKu87h8AAADwlvHnAklm9f9/VvqOgWvgHq+e0/YpxkrluDkryXtrlKnanlU+no3XvM2plePv3HM6vWthrR731iIUHChJLrk8e/75eNYwFs85p7T3J6rK5cpRo5X4H/t0Outi5XeE3HM6kmT4jlDxXqRqmSKU8NEhz32Xb9fi9bqjRmvRrq+VVf7YWYe0fa77Ak3LGPdyyBWP5VXz0WuiliV5vXder6H67z/RmvS+8XVcVNaBpb5LYZd/J/L+jnJyn1a95rttTEKS+zlWfP/xsVRpjktyHCxf0tnz9/kxMktSt/EVz6HiZ6PanxWPqNG+Pyee13p683SfPrX9nAAAzV2E5j1mkVQgW8qtg1zv2b61WaY5ISJMklNXLhsrAIDmhOC3Hjp1ul8Ox2Vdv954OzVdv+6Sw3FZnTrdbywBjWL+ki2yuSRzzGx9enSXlk2u/vRHOcu0je6TTL06y1Ro0/GUnUo+alN+iVnW+Kla9ek2JZSfMCi069vzNtkcnn8zhXbZztvcN+OGVCFLtWl2vCwhnr97Zk5Ypm3U7uVTNSTSpKs5J5S8O0OZDpfM3eKVsC5VyzzL0dltNtnO2+UskSSX8ssf57xd+eWPURufv6l39tqlIIue+9elijXWAQAAAEk7fr9G6YWSqdtordqXqvWzR1cNQxtEew05+IESYjoo73SKe+xdalbogIl694O59X/MZ/+X+kVJcn6r9CRDrV280tZNVaw5T2fSUnT8QoFcJrOs4+Zq0x9jfLomLF2kGcOjFVqSJ9vRFO3JyJT9J7MsMVNrfJ4d/rhRic9aaljSuL2GbFymCZFX9O2RDGXmOiWzRbHTVmr73KXatHyq+pvydDzDUDME68tWLtSEGKtMhTZlZux1v38yyzpuoTZ/NN63c9RUbT+9T4vGRSs00Cnb6QztSTkh24U8qbNFoeX9nl2o/f/p/k4kR6bSd6foeI5TpvBojV3831WeQ+3lur/DZHumVhUVVHx/+jYnz9jZ17NLlZa6UgnxVpmL7BWfgS3XpfYPVobRt/M5AQCamwjFjpyuZfv+rxJ6Sfmfr9E7W419jMYrIcY92/eTpbcOiSuZFTu/8oKinLOp2jS/scY8AIDbQfBbD2ZzBxUU3OLLVgMoKMiT2dzB2Aw0js9nafCUtUrPdckU0VcTFu5TztFtmjfG90p1t+la9Va8Qk1OHV/9qiL7xGnky2/qlVFx6tXtVa054ZQ6xijx3z1XlCfN0si4OA3+0p3yOr/5SIPj4jQ4Lk6TDVe8tx/4a1n+ulfvDHtI4eEPafBMSZqqZTPiFerK1JrJD6vXU6P0ypQXNXTA43plq00uk1X/9Jb7sVb8Jk6D4z7Sn36SJLsOeB5n8KhZ2uH7ULeUPOV9JedLpkfHat786t6HGnhdke99q/7qfgAAAPi17LV64fk52nHeKZmtGjFzpY6cTdWqW1xIWWfmaMWaUvRO3K80eNSr7rH3lJ2yl0imHsP1L7e7L2+veE1auE1H1g2XRS7Zdr+nNYYu5l4xCju+QIN7xWnky69q5FO/0uQkuySTrIMn+l4k6bQrfd2bGtjjSQ0e9aomjxumgcPe0/EiydQjXjOqzCbtoH5DLcrbO0dDwx9SeHic3vYum6PVXzs0uVecRo7zfAfYbXefgJ42XpbcLdXW+v/jbO97kQpt2jFnmCL7xGnouNc9799e2SWFDhrttTpQhOZ9MFuxoZIzY4mGdvuVBg97UZNfHqXBcU+qe68XPe9PjJbNnajotnbtSXxC3QcM0wtT3O/N4AUZcsqs2Ikrb/MC0vc0OS5OgzeckVOSHAcqvj+N/N1OY2cv47Vp6XhZTS7Zknw/g8FP/UqRcbMqu9b5cwIANBueVfMcjq+0fd1sTYi4oj1LXlWv19b67v1bnZkvKTZUyj+y9dZ7+3q4HF4TOM7bZHM4Zepo1ZApK7U/aSrhLwA0EwS/9RAS0q5R9vY1unr1B4WEtDM2A43n8wV6YcAzemNdhuxFkikiRgmrv9CRzb7LP1sWjlC/EMl1YoPeWJDiVZGkFM3/7Q5llkimPiM0z1C9ldAQu9a8/Lo+PO3VOH+MYs1S5vbXNf9zr3ZJyTP36kyRZOoWo0m+pQawRa+sypBTJkW/vFKJtT354XVFvs/tlqNvAAAA+KXsDXoj7nENnbNTtkJJHa0au3CfsvY11DLMklSg5Hdf14feJ2k/f1N7siQpTJaBXu234n2h4r6NWjQ5RpZApzI/eluv/K6a2T/ODC0f53syOfm3e5VZIqljqE+4ueY3w/TCvJ2+J56zl+h4jtzPc6h3QZI6q33uWr3wmw3KNJYkSQVKXzVLyV4tyX846bl/u5LnGGqfX1C+JFNEtM+SzG+PitMb6w2P8PlnsuVLMofKvSmNpKf/l0b0MEn5KZo/7r0anpOkcVP1625Sftr7mvxRrk/Jvvo9pedKiuqhMT6VRjbbfTJfZ7fold8aPgODun9OAIBmw36h8lzThQI5zVaNmL1NWfsWaoixr48ILXqur0yyK33dFmOxRh/+dljFBUiD4+I0uM/jGjhtZ8XKgatmGo8AADQFgt96CA4O1rVrPxmbG9y1az8pODjY2Aw0slztmPeiBnYbpnc2n1C+yyRL/Gz9l9cVfCMetUhy6UzakupPJmSv1be5koIsip5sLN6c89SeKlccJvRwP3L05K+qzKJ1OKarX4ikIMnke1jDWPc7Lc9wSiF9NWlpLa9i9Loi3/tmnN0MAACAliVz/Zsa3OMJvbF8r2xOydxrot7duPQWJ2FrqSRPtmqWb8y74pRkUvtwY+UmfC5UPKHkze/p7ecf19DEGsLCv9qrzAKW8nXlJ0khZnU2VCwxU7Vo3TbtT03VkbMXlZNzSQk9DJ0qOHVsTw3fK1TD686+JpckOXN17EtDLSlPVyUp2FS5JLNH9EuztWzzLqWlpup01kXl5K7UEGOn0d1kkZR/aoc+NpR8xEQoVFJo/NJqvqNs04g6LBjUUBIGWGWSlJkxp+b300vdPicAQLOx/PXK801P/UrdI9yr75l7TdTqrdXs/V7u6X/RkB6SLmTo34y/P+vI/smbemVTpiSTeg4xrLIBAGgSBL/10KpVoEpLS43NDa60tFStWnk2OAXuuEx9+LtR6jWlfO/fBC0a565Yw8ySXCq+YjymXK6Ky/+J1PFH+Eph1Wvq3Y8nObOrmUVbcavjHr61lqs1szboeJFkjpmhZbe9TxcAAADuDrnaseR1DR62wLP373glzjf2uQ0/XVWDbTjkc6HiKL3yuyX62HvFHQPn9xeMTTWIUMLWr3Ukaa4mjYyRNSJMwYV22U+nKPmCy9jZ44qcZ41tXhrkdcdrWepF7V8+XRPi+8oSEabiv9plO7JXxw1fIiaFh0mSrhbebEllKSHC3c/lMH4v8b5dqFUA21CsncySnLpy2Vgxup3PCQDQfKVo/vPl567G1Lj6XuzLfWSRlPnlew3y+8m+P1d2Sab2xkvAAABNgeC3Hm7cKFVgYB3TrNsQGBioGzcaP2AGburzWfr4uFNSZ1li3E22PPesguBbbkHtkqvQ2HZzrqKqS8u5H0+y7686i7bidht7+NZa9hK9sTlTLpkV+88fNMyMDQAAALRs2Wv1wuc2SZKlx01m33jrENw4q9jcKTNXKvHpzlLuXr0z7CFFdntcvZ6K0+BRryo9r6ZA0aUr9Zx1dCuxqxdqwqMmOU+v1RtPup/XwLg4DR33v2Uv8u2bXOC+utUU4vnyU4M9Dne/q2dWVP1uUnF7XSuMB1bn6Q4N8rnbvq/l97Tb+pwAAM3bFtnzJQWZ5J4+YRSjSb0tkmz603rfLQoAAC0DwW89FBcXq02btsbmBtemTVsVFxcbm4Gm47kOYU9unnspl5jpxh5uUQv1y0hJRXYdSzIW6y6z0H1Sxdq7hse7A+zzFui/zrukiOFa9P6tzqQAAAAAXkoqwzT3RY1mhT3i00OSNKGXpUECwKaSEONeatiW8bo+9JlBHKP+lupPQ98JY3paJDn1px0LtMNnW5nxshiWerb/uUAuSZbo8T57FxvZc939Qq2/vmm/cmty3fOWw8InGkuyDI2o3ZYyt5CZf+Xm39M8muvnBACoD8/vtCKnCowlSXp6oqIjJF04rhWGLdZuV+yLPWSR5Lx8s6U7AAB3CsFvPRQV/aj27e8zNje49u3vU1HRj8ZmoBFM1fp9u7RsWkyVEw6WMSs1oZ9Zkl1ndrvb7O+lKNMlmQYkaPfceMMR0ZqxdKyig6T8jK2+V7g73Se8zB2MG2ndXPrmDNlK3I+3fWa0oRqtGZv3ab3PEsx5chVLUgeFeZanrr8Mvf2HvbKXSJaR8VXeJwAAANydlu1K1fp/HS/jKFW9pmv7s1ZJLn17ZENFs/siSsk62LCSzLNLlRDj30slukrc/20fOt6nfcjyhRrSBHveViiRJLM6WLyfRIQSkiaqX4hXkyQt36r0fElRw7Vs3cSax/1L9uiY091v0fujDf0iNHbxPu3+o1fTN/lySjL3G6PEKK/2qKlaNqbKT49boUvFkmQO01hjrRrpS/fe5HtapWb7OQEAbmGq1u/6QJN6GdujNcPzO815ao8WG8uSNNKzh/2fM+q4zPNS7T5U9TEtY1Zq0QiLJLvS/6NynAMAaDoEv/XgdF5R587u/XwaU+fOYXI6a9xEFWhQ5qi+mjB3m47kXFTW0VSlpabqyNmLOrJ6tKwml2xb5+iN8iXYshdo8pIMOWVWv2kblXMyVfuTPtCmXak6fWGfEmPMcp3forde2+L7ICmePa56TNTp1G3avu9r35MhNflyluYn2dxLLc/ep6yjqdq9+QNt3+d5vHiLzD6rou/UsRyXpM4a8n8OaXfSNqUd3KgE7y634/M39c5eu2Qy+fVMDAAAADSgjlaNmL5U+3MvKuukexyddvKccj6drdiOkjNjid5YXtnd/t5WpRdKihiuTVmHtD9po7bvO6Ss9eNlOp0p9yYn/unDnceVLyk0fqmyju7Sps27lHb0nDaNkY6dbrpXtiItUy5J0ZO/0OnUbdqUtE9pp7/QvMfOKL3KrKctemXWFtlcJllGLtSRs4eUtmujVm3epbSDXyvr9DbP94q1entFhpwyyTpupdJOV34nOnL2K616LVrtve923Vp9esElhfTVjNSvlbZro/v7U+pc/fLCiepPwicddy9FHRqvPxzdpe1JqUrbfJNlw2v4nrY+aZ/Sjp5TTupSqRl/TgCAWzM/OlyL9l2qOHeXlup1Ls6RouWz1hoPkSQlRIZJcurbIzfZw37KRp3OvSRH1i6fi5TaRw3Xok8v6vRBz2MePedzvnDy5953AgBoKgS/9fD9939TeHgXtW7deNFP69YmhYd30fff/81YAhrBHm1Zv1fHc51yySRzhFXWR62yhEjOCxn6eM4oDZ6Z4nOEffWLGjptrZIvOKXOVkXHDNeQAVa1d9mUvnmOno+bpWSfIyR9+abeWZ0he5FJoY/GKLaHSbpq7FS95Jlxen7OTmU6nDJHWNUvfrhie1gU7MzUnuXv6O31vv1X/M8F2nHeKZkt6hcTI0ugS/m+XW5L8pT3ldwQdwQAAIAW4cMNW5R+vkBOl2QOd4+jrZ1NchVkas/yNzV03FrfUC97rV6YuVbpuU652loUHROv2Ec7KG/nHL3wWS0Hx83V1lf18pK9shW6ZI7oqyHxfWUJsmvHvFeV3ISLWdnnva63PjqhfKf7e8iQmGiFOTO0ZuaLsvtcQOrx+SwNHjVHO04XyBlikXVAvMbG95U1wqS8UyeU6enm852oY+V3ojC5vxNN+533nabo7Vfd31FcgZ1lHRCvIX3CVHx8raaN+lbV76z7nt5YsFO2Qskc0VexAy0yFblnjNekuu9pI2KiZWnvku3USXenZvo5AQBuZY+2bE2RzeGUqXzM8ahV7V12HU+ao+f7vKo1VS5oktdS/leUv9dYu5W9Sk6xyVlqUmg3z2OGm+S8kKI1056pcr4QANB0Ajp27FhmbGwpEhMTJUnvvuuzyGyDioqy6tq1ImVlnTOWGkT37o+rTZsQZWfbjCUAAAAAAAAAAAAAdfDWWzMkSYsXV7swvl9jxm89Xb5sV2Tkw42y12/79vcpMvJhXb5c7WJPAAAAAAAAAAAAACAR/Nbf9esuZWdfUM+evRUYGGgs37bAwED17Nlb2dkXdP169Ys9AQAAAAAAAAAAAIAIfhtGXp5DTqdTffsOapDwNzAwUH37DpLT6VRensNYBgAAAAAAAAAAAAAfBL8N5C9/uaji4mI98cTgei373L79fXriicEqLi7WX/5y0VgGAAAAAAAAAAAAgCoIfhvQX/5yUfn532nQoFh17/64Wrc2GbvUqHVrk7p3f1yDBsUqP/87Ql8AAAAAAAAAAAAAtUbw28Dy8hw6efKo2rQJ0ZAhw9W7d3916WJRu3b3+iwDHRgYqHbt7lWXLhb17t1fQ4YMV5s2ITp58ijLOwMAAAAAAAAAAACok4COHTuWGRtbisTEREnSu++uMJbuiKCge9Sp0/0ymzsoJKSdgoOD1aqVO/y9caNUxcXFKir6UU7nFX3//d9UUvKz8S4AAAAAAAAAAAAANJC33pohSVq8eLGx5PeY8duISkp+Vl6eQzbbNzp16pgOHz6oQ4e+0KFDX+jw4YM6deqYbLZvlJfnIPQFAAAAAAAAAAAAcNsIfgEAAAAAAAAAAADAzxH8AgAAAAAAAAAAAICfI/gFAAAAAAAAAAAAAD9H8AsAAAAAAAAAAAAAfo7gFwAAAAAAAAAAAAD8HMEvAAAAAAAAAAAAAPg5gl8AAAAAAAAAAAAA8HMEvwAAAAAAAAAAAADg5wh+AQAAAAAAAAAAAMDPEfwCAAAAAAAAAAAAgJ8j+AUAAAAAAAAAAAAAP0fwCwAAAAAAAAAAAAB+juAXAAAAAAAAAAAAAPwcwS8AAAAAAAAAAAAA+DmCXwAAAAAAAAAAAADwcwS/AAAAAAAAAAAAAODnAjp27FhmbGwpEhMTJUnr128wlgAAAAAAAAAAAADcZSZPnihJWrx4sbHk9+6K4Nf4wQUEBKhVqyC1atVKAQFMegYAAAAAAAAAAABairKyG7px44Zu3ChRWZlvFFpTftgS3HWpZ2BgkO65J1iBgUGEvgAAAAAAAAAAAEALExDQyicTvFvcVclnUFBrBQbeY2wGAAAAAAAAAAAA0AIFBt6joKDWxuYW6a4JfgMDg9SqVaCxGQAAAAAAAAAAAEAL1qpV4F0x8/euCH4DAgKY6QsAAAAAAAAAAADcpQID71FAQICxuUW5K4LfVq1afoIPAAAAAAAAAAAAoGYtPTO8S4Lfu+JlAgAAAAAAAAAAAKhBS88MW/ar8wgIuCteJgAAAAAAAAAAAIAatPTMsGW/OgAAAAAAAAAAAAC4CxD8AgAAAAAAAAAAAICfI/gFAAAAAAAAAAAAAD9H8AsAAAAAaDkCWymgrUmtOoQosLNZgeEdFPRQRwVZOinIcr/7vw91VGB4BwV2NqtVhxAFtDVJgXw9BgAAAAD4N77ZAgAAAAD8WkBQoFq1b6vABzooqEtHBd5/r1qZ2yigTWsF3BMktWolKaC8t9SqlQLuCVJAm9ZqZW6jwPvvdR/3QAe1at9WAUGBhkcAAAAAAKD5I/gFAAAAAPilgOB7FNj5XgU+eJ87sG0dZOxSJwGtg9wB8oP3KbDzvQoIvsfYBQAAAACAZovgFwAAAADgVwJaB7mXcQ5tr4A2JmO5QQS0MSkwtL0CO5vrHSgDAAAAAHAnEPwCAAAAAPxGqw4hCnyggwLatDaWGkVAm9buJaA7hBhLAAAAAAA0KwS/AAAAAIBmL6B1kDuANbcxlu6IVuY27sCZ2b8AAAAAgGaK4BcAAAAA0KwFtDUp8IH2TR66usPn9gpo2zjLSwMAAAAAUB8EvwAAAACAZqtVu2AF3n+vpABjqYkEKPD+e9WqXbCxAAAAAABAkyL4BQAAAAA0S63aBatVx3bG5mahVcd2hL8AAAAAgGaF4BcAAAAA0OwEtDU129C3XKuO7Vj2GQAAAADQbBD8AgAAAACalYDWQQq8v3mHvuUC72/X5HsPAwAAAAAggl8AAAAAQHPjnunbXPb0vZWAZj8zGQAAAABwdyD4BQAAAAA0G606hPjdDNqA1kFq1SHE2AwAAAAAwB1F8AsAAAAAaBYCWgeplbmNsdkvtDK38bvAGgAAAADQshD8AgAAAACahVbt2xqb/Iq/P38AAAAAgH8j+AUAAAAANLmA4HsU0Ka1sdmvBLRprYDge4zNAAAAAADcEQS/AAAAAIAm1+reYGOTX2oprwMAAAAA4H8IfgEAAAAATSogKFABbUzGZr8U0MakgKBAYzMAAAAAAI2O4BcAAAAA0KQCQlpG6Fuupb0eAAAAAIB/IPgFAAAAADQpf9/b16ilvR4AAAAAgH8g+AUAAABw14qM/IWeeCJWQTUszRsQEKBu3R7RQw9FGEsthtls1mOP9ZDZbDaW7ozAVgpoHWRsbXjdntfvV/ynDm1apPHGWgMLaB0kBTbN1+22bUOa9vNsZBERFnXrZlVAQICxJEkKDAxS9+6PKTz8QWMJAAAAAFq8pvkmCgAAAABNLDIySn369FN4+IPq0sViLCsgIEB9+w7QL3/ZWwMGDDKWWwSz2azBg+P02GM99PjjPY3lOyLAdI+xqUE92HOs/nXRfyh18f/Qs5YQY7nRNPbrqsnjj/fQY4/10ODBcS0u/G3VKkD9+w/UL3/5K/Xp06/a8PehhyLUo0dPPfFErLp2jTKWAQAAAKBFI/gFAAAAcNeJivqF+vTpL0kqLr6mgoI8n3pAgDtgsli6SpIuX77kU28JykPf1q1NksqUm/sXY5c7ojFn+/7T3E1K+t+TNfKxMF3PvqjvjR0aUWO+rpvJyjqvn3++rtatTRo8OE733nuvsYvfunGjTH/962VJUteuUerbd0CV8PfyZbu+//5vkqS+ffsrMpLwFwAAAMDdg+AXAAAAwF3FYonUr37VV/KEvl98kaKffvqpoh4QEKCBA5/UQw+5ZwF/951Dx44dqai3BPfee29F6FtWVqYjR75qsnA74J7ql9luCK0Dpb9fPq3d/+90/cOsi/q7sUMjaszXdTN//7tTX36ZWhH+Pv10fIsKf48ePSyH46+SJIulq/r3H+gT/paUlCo9Pa0i/O3Tp58slsiKOgAAAAC0ZAS/AAAAAO4aFkuk+vXrLynAK/QtqqiXh74PPthFkvTXv17W4cMZunHjhte9+Ld7771XTz8dXzHT9+jRpgt9JUlBjfe1dMvvX9E/vPmO/vDZRWOp8TXi67oVp/Nqiw1/b9y4oSNHDlWEvw89ZKkS/paWlig9PU2Fhd9LClC/fv0JfwEAAADcFZrumygAAAAA3EG3E/oeOXKoRYe+x44dbdrQV1JAYMv8WtrUr6s8/C0p+fkuDn+/JPwFAAAAcFdp2m+iAAAAAHAHtG0bUhH6Xrv2k7780jf0laSoqIcrQt/Ll3N15MghlZWV+fTxd/37D6oIfY8fP9pk+/r6aOW7R2uL0Qxel9N5VWlpX0gqU+vWJvXrN9DYxW+Vh7/le/4+9JBFERHu5dnLlZS4w1+n01kR/rZt29anDwAAAAC0JAS/AAAAAFq8srIylZSUSJ6ZvVLVUM44+9d79mBL8fPPP3v+FKBWrZrL18GW9z67Nf3rCggI0C9+8XDFc6n8/Fum8n/j3sLCHqiY6VxSUtLiLuYAAAAAAG/N5Zs+AAAAADSaa9d+0sGDX6qkpETBwW309NNxats2xKfPd9859PXXxyVJDz74kAYNimlG4WjD+OqrdP3wQ6EkqU+f/p5QsKm11CCuaV9XQECA+vTpp8jIX0iSfvihUIcPZxi7+a1WrVp5Lc1epq+/Pl4x+7dcly4PacCAQQoICFBJyc/68stUXbt2zacPAAAAALQkLessBgAAAADU4IcfCnXw4BcV4e8zz8RXCX+zs/9cEf4+8EB4iwt/S0pKdPDgFxXhb+/effXoo48Zu91ZN5o2IG00Tfi6ykPfrl2jJMPPfktQHvqGhz/oWbb8mLKz/+zTpzL0bVUR+l69esWnDwAAAAC0NC3nDAYAAAAA3ALhb9Xw9/HHe+qXv+xt7HbHlJXeMDa1CE35uu620Nduz/HpQ+gLAAAA4G7Vcs5eAAAAAEAtVAZhP1eEv23atPXpYwx/y5eLbSnKw9/Cwu8lSd26PaLHHuth7HZnlDRdQNqomuh19ejRsyL0LSz8vkWFvgEBARow4AlP6CudPHm8SujbuXOYBgx4QgEBrfTzz9eVlvYFoS8AAACAuwbBLwAAAIC7zg8/FCo9Pa0i/H344W7GLsrO/rNOnqzc87d9+w7GLn6tpKRE6elfVoS/XbtGGrvcEWU/lxqbWoSmel0RERGSz894ywh9Jem++zp69vSVTp48ppycbGMXWSwWBQQE6Oefr+vgwS915coPxi4AAAAA0GIR/AIAAAC4K7lnQ36p7OyL+vOfLxjLkqScnD/ryJFD+vbb8y1y1qA7/E3TN9+c1cmTJ4zlO6LsessJJr011ev6+uuv9c03Z3Xw4JcqKfnZWPZrV678oD/96ZS++iq92tBXkmy2LH3zzVmlpX1B6AsAAADgrkPwCwAAAOCu9cMPhfr66xP66aefjKUKly9fUmbmn1RWVmYstQglJT/rm2/OKj//O2PpjihztaxwslxTva68PIe++eZsiwt9JenGjRu6cOFbORx/NZYqOJ1OffPN2RZ5oQYAAAAA3ArBLwAAAACg6ZTeaLLZsY2l7HqJVNo0e/wCAAAAAO5eBL8AAAAAgCZVdu26sakRrNCEMc/pyVfe0RZjqYHdmdcDAAAAAIAvgl8AAAAAQJMqK3IZm/xaS3s9AAAAAAD/QPALAAAAAGhSZSWlKrvWMsLSsmsulZWUGpsBAAAAAGh0BL8AAAAAgCZ34+/Fxia/1FJeBwAAAADA/xD8AgAAAACaXFnxz36/N27ZtesqK/7Z2AwAAAAAwB1B8AsAAAAAaBZuXP3J2ORX/P35AwAAAAD8G8EvAAAAAKBZKLteohvOa8Zmv3DDeU1l10uMzQAAAAAA3DEEvwAAAACAZuPGlSK/C1DLrpfoxpUiYzMAAAAAAHcUwS8AAAAAoFm5UfijpDJjczNV5nm+AAAAAAA0LYJfAAAAAECzUna9RKV/848wtfRvP/rdDGUAAAAAQMtE8AsAAAAAaHbKfnI1+5m0Nwp/VNlPLmMzAAAAAABNguAXAAAAANAs3fixuNmGvzcKf9SNH4uNzQAAAAAANBmCXwAAAABAs3Xjx2KV/u3vzWjP3zKV/u3vhL4AAAAAgGaH4BcAAAAA0KyV/eRS6XdXm3wv3bLrJe7nwfLOAAAAAIBmiOAXAAAAANDsuUPXK7rhvGYs3RE3nNdU+t2VJg+fAQAAAACoCcEvAAAAAMBv3LhS5A5gr103lhpF2bXr7sD5SpGxBAAAAABAs0LwCwAAAADwK2XXS1Ra4FRp/lWVXWucZZfLrrlUmn9VpQVOZvkCAAAAAPwCwS8AAAAAwC+VFf+s0oK/q/SvP+jG1Z/qHdCWXS/Rjas/qfSvP6i04O8qK/7Z2AUAAAAAgGaL4BcAAAAA4NfKSkrdge13V1RyuVClf/u7bjivqezadZX9XCLduCGprLy3dOOGyn4uUdm16+69e//2d/dx311xB8glpYZHAAAAAACg+SP4BQAAAAC0HKU3VPaTy70XcIFTpY4rKrlUqBL79yqx/83930uFKnVcUWmBUzeuFKnsJ5dUesN4TwAAAAAA+JUWHfy6XI2z1xMAAAAAAAAAAAAA/9RSM8QWHfxeuXLF2AQAAAAAAAAAAADgLtZSM8QWHfx+9913kqRWrVr0ywQAAAAAAAAAAABwC+WZYXmG2NK06EQ0OztbktS+vdlYAgAAAAAAAAAAAHAXKc8MyzPElqZFB7/nz5/XtWvXZLVajSUAAAAAAAAAAAAAdxGr1apr167p/PnzxlKL0KKDX0k6ceKEoqMfNzYDAAAAAAAAAAAAuItERz+uEydOGJtbjBYf/B46dEiS9MQTg4wlAAAAAAAAAAAAAHeB8qywPDtsiVp88Hvjxg0dOHBATzwxkJm/AAAAAAAAAAAAwF0mOvpxPfHEQB04cEA3btwwlluMwDZt2vze2NjSFBYWyuVyaejQX0sK0KVLl4xdAAAAAAAAAAAAALQwTzwxSM88M1jJycnKzMw0lluUgI4dO5YZG1uq/v37a8iQIbpy5YoOHTqsixcv6uefS4zdAAAAAAAAAAAAAPipe+4J0sMPP6wnnxykDh06KDk5WceOHTN2a3HuiuC3c+cHjE0AAAAAAAAAAAAA7jIFBd8Zm1qMuyL4NWrVqpWefPJJ9e3bV23atDGWAQAAAAAAAAAAAPipa9eu6cSJEzp06FCL3tPX6K4Mfr09+uijioqK0gMPPKAOHTrIZDIZuwAAAAAAAAAAAABoplwul65cuaLvvvtO2dnZOn/+vLHLXeGuD34BAAAAAAAAAAAAwN+1MjYAAAAAAAAAAAAAAPwLwS8AAAAAAAAAAAAA+DmCXwAAAAAAAAAAAADwcwS/AAAAAAAAAAAAAODnCH4BAAAAAAAAAAAAwM8R/AIAAAAAAAAAAACAnyP4BQAAAAAAAAAAAAA/R/ALAAAAAAAAAAAAAH6O4BcAAAAAAAAAAAAA/BzBLwAAAAAAAAAAAAD4OYJfAAAAAAAAAAAAAPBzBL8AAAAAAAAAAAAA4OcIfgEAAAAAAAAAAADAzxH8AgAAAAAAAAAAAICfI/gFAAAAAAAAAAAAAD9H8AsAAAAAAAAAAAAAfo7gFwAAAAAAAAAAAAD8HMEvAAAAAAAAAAAAAPg5gl8AAAAAAAAAAAAA8HMEvwAAAAAAAAAAAADg5wh+AQAAAAAAAAAAAMDPEfwCAAAAAAAAAAAAgJ8j+AUAAAAAAAAAAAAAP0fwCwAAAAAAAAAAAAB+juAXAAAAAAAAAAAAAPwcwS8AAAAAAAAAAAAA+DmCXwAAAAAAAAAAAADwcwS/AAAAAAAAAAAAAODnCH4BAAAAAAAAAAAAwM8R/AIAAAAAAAAAAACAnyP4BQAAAAAAAAAAAAA/R/ALAAAAAAAAAAAAAH6O4BcAAAAAAAAAAAAA/BzBLwAAAAAAAAAAAAD4OYJfAAAAAAAAAAAAAPBzBL8AAAAAAAAAAAAA4OcIfgEAAAAAAAAAAADAzxH8AgAAAAAAAAAAAICfI/gFAAAAAAAAAAAAAD9H8AsAAAAAAAAAAAAAfo7gFwAAAAAAAAAAAAD8HMEvAAAAAAAAAAAAAPg5gl8AAAAAAAAAAAAA8HMEvwAAAAAAAAAAAADg5wh+AQAAAAAAAAAAAMDPEfwCAAAAAAAAAAAAgJ8j+AUAAAAAAAAAAAAAP0fwCwAAAAAAAAAAAAB+juAXAAAAAAAAAAAAAPwcwS8AAAAAAAAAAAAA+DmCXwAAAAAAAAAAAADwcwS/AAAAAAAAAAAAAODnCH4BAAAAAAAAAAAAwM8R/AIAAAAAAAAAAACAnwvo2LFjmbERzUunTp3Uvn17hYSEKDg4WIGBgcYuAAAAAAAAAAAAQIMrLS1VcXGxioqKdPXqVX3//ffGLmgmCH6bqYCAAHXp0kUPPPCAgoKCjGUAAAAAAAAAAADgjispKdF3332ny5cvq6yMmLE5Ifhthu677z5FRkbKZDIZSwAAAAAAAAAAAECTc7lcysnJ0Q8//GAsoYkQ/DYz4eHh6tq1q7EZAAAAAAAAAAAAaHb+8pe/yOFwGJvRBFoZG9B0CH0BAAAAAAAAAADgT7p27arw8HBjM5oAwW8zcd999xH6AgAAAAAAAAAAwO907dpV9913n7EZdxjBbzMQEBCgyMhIYzMAAAAAAAAAAADgFyIjIxUQEGBsxh1E8NsMdOnSRSaTydgMAAAAAAAAAAAA+AWTyaQuXboYm3EHEfw2Aw888ICxCQAAAAAAAAAAAPArZF5Ni+C3iXXq1ElBQUHGZgAAAAAAAAAAAMCvBAUFqVOnTsZm3CEEv02sffv2xiYAAAAAAAAAAADAL5F9NR2C3yYWEhJibAIAAAAAAAAAAAD8EtlX0yH4bWLBwcHGJgAAAAAAAAAAAMAvkX01HYLfJhYYGGhswv+/vfuPsrq870X/HoYtzIggyBhECIjoSA5FOSji0aAeQ4JNiMYkVRtNrrSptrVtTE/IbW1SmoZ2SXLEpiZX44220SYmOVotMZJQoldDMppQDCUlGKJMQEQBcRCGH5th7h8z4MzXUQGBYQ+v11p7yXye57t/zSzXZ3/f+/k+AAAAAAAAVCTZV/cR/AIAAAAAAABUOMEvAAAAAAAAQIUT/AIAAAAAAABUOMEvAAAAAAAAQIUT/AIAAAAAAABUOMEvAAAAAAAAQIUT/AIAAAAAAABUOMEvAAAAAAAAQIUT/AIAAAAAAABUOMEvAAAAAAAAQIUT/AIAAAAAAABUOMEvAAAAAAAAQIUT/AIAAAAAAABUOMEvAAAAAAAAQIUT/AIAAAAAAABUOMEvAAAAAAAAQIUT/AIAAAAAAABUOMEvAAAAAAAAQIUT/AIAAAAAAABUOMEvAAAAAAAAQIUT/AIAAAAAAABUOMEvAAAAAAAAQIUT/AIAAAAAAABUOMEvAAAAAAAAQIWrGjRoUGuxyKEzadKkYgmOWFVVvdKr11Fpbe2VUqmUqirfTQEAoLPW1l0pl8upqtqVXbt2pLV1V3FKJ3pMAADezL72mMCba2hoKJY4BAS/3UzwC22qq/umd+++Wbny11m7dk1eeaUpLS0txWkAABzhqqurc8wxAzJkyNCMHHlydu7clpaWbcVpiR4TAIC9tC89JrB3BL/dQ/DbzQS/kPTq1SebNzfn5z9flG3bthaHAQCgS3371uT00yekX7/a7Nq1vdOYHhMAgP3xRj0msPcEv93DNa6AblVd3TebNzfniSd+5IQcAAD7ZNu2rXniiR9l8+bmVFf33VPXYwIAsL9er8cEqASCX6Ab9Urv3n3z858vKg4AAMBe+/nPF6V3777tH3H1mAAAvHWde0yAyuD/WEC3qa4+KitX/toqDAAA3pJt27Zm5cpfp7r6KD0mAAAHRMceE6BSCH6BbtHa2prW1l5Zu3ZNcQgAAPbZ2rVrsmtXlR4TAIADZu3aNWlt7ZXW1tbiEMBhSfALdJtSqZRXXmkqlgEAYJ+98kpTSqWSHhMAgANmd48JUCkEv0C3qarqlZaWlmIZAAD2WUtLS6qqeukxAQA4YHb3mACVwv+xAAAAAAAAACqc4BcAAAAAAACgwgl+AQAAAAAAACqc4BcAAAAAAACgwgl+AQAAAAAAACqc4BcAAAAAAACgwgl+AQAAAAAAACqc4BcAAAAAAACgwgl+AQAAAACAw9a4cWfkK1/5f3PiicOLQxk+/O35yle+lrFjxxWHAI44gl8AAAAAAOCwNWTI0PTqVZ3jj39bcSh1dcenV69eGTr0xOIQwBGnuqamZmaxyKEzbNiwYgmOGKVSTVas+GWxDAAA+2X06NNSVVWlxwQA6AEGDTouEyZMzLhx43Pqqaelrq4uVVXJ0KHDcuqpp3W67Q596+qOz/HHH59XXnkl27ZtLd7lfjnllNOyc+fWVFVVFYeAN7B69epiiUOgatCgQa3FIofOpEmTiiU4IrS2tqamZlAefviB4lDPNebazP6zSckTszPjrmXFUQAA3qKpUy9JVVXVkdVjAgD0QJMnX5grr7x6v8PW1tbWfOMbX8/jjz9aHNpnF198abZufWm/nwscqRoaGoolDgHBbzcT/HKkOijBb+2YXPKRy3PW2KEZ3KfUVtvelLW/eizfvPP+LG8uHnCIHcjgd/hV+fyNF2XTA9dk9rziIADAkemAB7/t/Vv/Yn23Z+/PdTfNLVYPuPqrZueG8+qydsHMzPxOY3H4IBuTq2fNyLkD12T+TTfmvkP98F2alhm3XZZRxXKScnNTNqxaloXz782jS5tSLk44nJ0/I/945dAs/odP5M63+HEBACpZqVTKnDlfybZt2/L1r9+Zbdu25qyzzs4733lB5s791/zqV093mn/qqfV53/suzWOPPZKf/ezJ1NbW5mMf+/307t07n/jEH6alpaXT/H0l+IX9I/jtHvb4BXqE0rhr8vkvzsjFE0ZkQF7OquXLsrxxTTZlQIaMnZZLJhePqHCrmrIp5ZQPzBVrAAB4I5vXZPnyZa+9rVxTnMmhVG5q6/vbb6vWNqVcPSBD6iflg9ffkps+e03G1xYPOoy92JSt2ZHmzcUBADiyHH/8kPTu3TuLF/8sS5YsztNP/zIvvvhCkmT16lV5+ulfdro991zb5WRfeGFtnn76l3nqqf/I4sWLUiqVUld3fOHeAXo2e/x2M3v8ciQ7cHv8jsn/9ee/m1P6NuXJ2/48f/dP38vjDQvT8KMfZv687+VnLw/N8a1PZsnK9ukDL8rVf/6H+fiZffNwQ+dvCB5UdWdmyqRhyXMLM/+p9cXRvTAh0//+r3LJmGPS/EJzTpw0Ik0/W5HSuR/Lx3//soz6zfws3p+7BQDoIQ74Hr/t/Vuf5+bnr754VxoaFna+/eL54hEHxYYl8/Pd7z6YR/+rqTh0wNRfOiN/8vuXZPiq+VnSqadcnyU/fDDffeiHWXbwHn4f1efc943JwC1P5c6//VK+2/77ePzRefn+vO/lsZXNOeHksTnxbSNy5sQhWfnYory4q3gfe2tALvjoX+T3p09Mn3kLs6I4/FYNvCwzbrom555QnabVtRkz6ag0fr85b79ieq67ZnJ6L3g8K/b7uQNAZRo8uC7nnTc5v/71r/KLX/xnkmTduhezbdvWPPHET7JrV+cVvBs3vpSdO8v58Y8fz44dO5Ik9fVjctJJJ6ehYWFefvnlTvP3lT1+Yf/Y47d7WPELVL76STmtf5IV83LnU8XrOZez9ke35u5HOpSGjM5vDa9L6agOtUowsJxVS5alacCEXPHJy1NfGpCJ18zIFWcMSNOyJXkmlbScAQCAw8mo+jEZ0u+otG+YUsHK2bR0Xm6deWMebiwnAyflistGFCftg6EZNXbEq1vJHGj91+TXTz2f0oipufaPJmdwRufimddmyohSfvPUsmyoKx4AAEemV17ZlO99b27K5bZgt6Pt27fnoYf+La+88sqe2u6QVlgLHGkEv0Dl69We4FaXesCJqjewcUnmf/PWzJn1hcxfU055c3PK5cY8/MWZmXPHPXl0WTH0BgCAI1R5TR78xmNZn2TwWdMyvjh+uGhsyH13zcmsWXdm8eakeXNzsvkn+drMmbn1rvvzpKuJAwAA+6Bq0KBBrcUih86kSZOKJTgitLa2pqZmUB5++IHi0H64KDf841WpLzXlydv+sotVv7tNy4zbLsuoYjnJpidmZ8Zdy/b8XFt/WaZfOTn1xw9IqVeSlFPe0JgnH74r9/5oTcodD27X9TEr8m+3zc78VUnGXJvZfzYpKTxWady1mfVHk9J/e2Pm3zIr9z3b1b3vVsrYa76Q68/ekvmf+WpKfzoz526+P39z09y4yjMAcKSbOvWSVFVVHaAe89X+rf+z9+e6m+YWR/cY/N6Z+etpI5Jn78+NN83Npj0jpUy87pZMP6OUVXNvzKyH1iVTb8xtl47OMw9ckzlLJufqay7P+OG1bV9g3L4uz/z0u7nznrbAco8Ox8ye117r2Ft+d2iu/+TlGTuwlE0/np0ZX1+WpJQhEy7Lh6ad06k/bV61KPfddWcWrmnrOeuvuSU3nD2g46O1W5EHr5uVh5Nc/Om7cslJr/78qlKGnHdVPnrxORl+XPuXMHeVs+nFZVn4zdvz4PJCX97xtS+flms/NjX1Q9pee3nDijz6nTm573V7+Y7a+/pNDZkz4/YsLw7vMSAf/OwtmTJ0XR6dNSP3rmovl4Zm/KWX55KzxmRI//avjpabs+o/vpWv3fNY1ra3422ve8+dvarwuKWhk3PF1e/LxBF1be9zuZz1q3+Sh++8KwvXFY7tUl0u/vSsXFK3JHd+dlnO/furcsJTc3LjXUu6/NwBAD3dSSednE9/+q+K5f1y001/m2effaZY3icXX3xptm59yeph2EcNDQ3FEoeAFb9AD7Agdz+0IuUMyMTrvpCZH5+a+i6verwmv1m+LMsbm9pOoGxek+XLl2X58mX59XO7TzCVMvbyWbnphmkZe3wpG1YtyqMPLcjixnUpDxydc6+alVnXjCusLC5l7Edn5+Y9xyzJkwsWZPHyFVnba3CG9Os0uZM9oe+udVn4tTcLfZP0uyi//d8HZP0jX8196xpz7zcey9aTpmX6u7t8wQAAHALrH/pyHl2TlE6amivP6tApjrkqHzqjNuXGubn9oUICeMy03PDpazK277osf2JBnlzamE296jLqvGvylzdMTf/Os9/A6Fz9yasydmD741a3l8dMzyc/PjVjj0vW/mpRHl3QkKWrmlM7fFKu/vQNuaB9evNzK7J8+bKs3Zy2yyQ3tvXHy5c3Zu3uh+hSXS74s1sy86rJGdW/OWuXNmT+goYsfa45NUPG5eIbbsmMqV1fp7h04rWZ9enL8vbyiiz+/xqydFVTSseNzpTrZuaKt3JV5tdoytJVTUnq8vZTX63WXzUj1140Lse1rMnyRQsy/4klWbW1NsPPviY3/tFFe3r9tSvb3odN5SRpztr2zw7Lf9WYPZ8exl2VGz99Tc4dcXTbZ4cFDVm6tjmDT5qcq//qxkwZ+Orjvq6x78uFJyXL596eJ5sX5Gv/tiI1Z0/PFWOLEwHgyPLyyxvz9NPL9+v28ssbk/bFJwBHEit+u5kVvxypDuyK3zaD/8e1uf5DkzKkNsmu5qz6aedv7O/xRis3Jlyfmz8+IbUbF+Xum2/t/A39usm59pPXZPzA5iy+449z+6K2cun8Gbn5yjEpbWzI7X97exa/3iKF4orfummZ8VeXZVSfpjz5lU/lziXFJ9q10tAROW5dY/vrKmXI0GOzds1eLSUAAOjRDtqK32I9SdKUJ//hE7lz94VcRlyVz//FRRm8bkFmfeaerEpdPvjZ2ZkydE3mf+bG3Le7XWtf9Zo055m5szLnoQ5Xk6mdkOmfuT4TC/3mG6743bAuvfOb3Pfl2/es4m0bvzzXT3o+/6dTP7x7BXJtnnngDzJ73qvz21a3Fl5Tp7HOK377Xzozs6eOSHnVvMyZ/a080+GhSyddnhmfmJrhfRrz8F/MzINt5107vPamLP36rNz6491vSiljf+8Luf6sAWledGs+ecfuF/569nbF76srmju+d/UfviHnPv+t3N3xSj6lSbn276/N+H4r8uCfzMrDewbGZPrsGZnYv6sVz+1jWZK7vzCn02eHwVNvzF9fOjrlvXo9Se2IEaltbGxf6V2XIUNfztqOv08AOILsXvH7wx/Oz7e//Y3i8F65/PKP5MIL32XFL3QjK367hxW/QI+x/se3Z+anb8zdTzSmOW3f2J9506xcfcberoYt5YLJ41Kb5iy+//bXXpZt3WO58wfLUk5txp53UXtxQN5//piUsi4Lb3uD0LdoP0PfJCmv2R36JklZ6AsAcLB1uFLMq7cVWbW5w5zGe3L3j5uSusm5cuqA9J/6B7lgaLL2B7e8Gvp2tGpBbusY+iZJ86Lc3d5v1p+1d18S7n9cOQtvubVz6Jsky76VW+8qfgmynCeXNaacZPAJozsO7KMRueSsEUnW5NGvdg59k6T87Lfy9Z+uSzIiZ737tUt4y8vn5vY9oW+SlLP0Bz/L+iS1J4x+naD9wFn+nTm5s7h9S7khy1eVk9Rlr9+a86dlfP9ylj9c+MJokvXzFmRpc1I7alzqOw91qXlP6Jsk64S+AADAfhH8Aj1LeU0W3jUzn/xfs3PfojUp1w7Nudf9XaaP63xx5q6NzqgTSknzsiz+adcnWso/Wpa1SUpD3t5+AmdyTh6aZN2SPNpYnP06eo/J9E+2hb6Lvz5rn0JfAAC6wbqGzJkzu3C7NfN37xnbbvnXb8/CjaWMeteNmXHx6JTWzMut93eV+iabVi3rsBfwq8pPNWZDktoBXV8m+TUaG/JvXT9EUhqQsedfnunXz8gNN87OzTd/NbddOaawbcn+GJcTjkuyZknmv85jr1ry62xKMnj4mOJQmtaseO3etaua2t6PfsfmhOLYWzCgTylJU9av6Vwv9R+XCz58ba6/YUZunPXl3PwPd+WKMfv2ztSPGppSSqm//Ku57ba7CrdrM742SfVRxcMAAAAOGsEv0DM1L8v8O27M3zzQvvfvhy/P8OKc1xidwf2T7CynqTi0WzltJ6l2n8CpH5zBSbK5KYXzfq+r//hpmTgwSeNjua/TSgcAACrbstz70JKU+9VlcJ91WXj3tzqs4uxs/YuF6ynvtrF5z/6xe6N547rXhqhJSuOuyef/4ZZcf+XUTDxlRE4oNWfVqiV59Eev7k+738YMbeuBtzd3GV4nbX1zkqT6tWHqpqa9/cbkWzUmY0fVJuU1eWbJ7lopYz86O/84+4ZccdGk1A8fmtLmxqxauiALG/ftnRl1/IDCvshd3DrsBwwAAHCwCX6BHm39vPuzeFOSuhEZWxx8jcas35SkdykDikNF27e0ncB5Zn1bSNyndq8vSbfpp3flwWfLyYhp+cs/u6jtpBkAAD1AXd7/P8eltL05zanLxA9Ofd0esbb2dTrO3aFqS1dx7mvt3N7VVxYnZPpHJ2dwy5o8OuePc92f/XFmzJyZOXNuzb1Lns/O4vR9tWLNXvfA5W3dF3uWzp+W8f2T8jOLsnB3ccK1mf4/6lJesyBzPnlN/uSTn8jMv5+dOXfck8Uv7t17vtuq9W3v/fM/Lq4G73C7Y95ef0EUAADgrRL8AkeMNz/BtSzPb0hSOybjJxTH2pQuHJPhSZp/s6ztBE55TdZvTjJ0TC4cWJz9etbl4ZtnZ/6qcmrHXJUZ100W/gIA9ADDL/9UpgwtZ9UPZuXOnzalNPqyXHdR1wFv/yGnd3nJ5eETTk7/JGuf+UlxaO+NOTMn90uyuiH3Lu8cvPYf/fY3DWvfVHlFnt/0xj3wntfR+LPi0KFRNy03XDYmpazLwvsX7FmAXD9udGqTrHrynnR+awak/sSuf1ev5zcbtyQpZfipr/PhAQAA4BAT/AKVb8zluf7jUzO2f/HUWSlD3ntZxvdPsmpZnthd3rwlO5Kk34DC5Z/L+feGZSmnNuM/dH3OLW6rVjshV7+77eTRkz9Y1F5clO/9dF2SEXnXH12eUcWn8HrKK3Lf7Fvz5Mak/xnXZMY147o88QcAQIUYc03+5MK6ZM2C3P7Qmiz9+tws317KqPdfnyldhKO14y7L1WfUdqqVTro8v3d2XVJekSce6Wol717ataPtv/0Hd+5366bluvOHdqzssXVbOUltBhxfHOnKssxf9Po9cGnotFx5Vl2yfVkWPvQWXsf+KA3I2HffkM//zWUZ1aecZx74Qu7teGXplrb/9B88okMxGTz1+lzQ5VvTnObtSTIgAwp7x2x6pCHPlJPaCVdneuF3mdRm/FU35IOv3eIYAADgoKmuqamZWSxy6AwbNqxYgiNGqVSTFSt+WSzvu7rz8qEPTM07p0zLe/7nufnv7xifM8+ZkvddeUV++x11qd6+Ig/O+Wp+sfsb/ZtKOeWCiTlh4KiccfrwDB89JVPGrs/CJeuzq/HJrKqbnImjT8rpF7w7Z46rz6gTRmfiJZfnIx++KCNrm/PMA3+X2xe9ujxg0y+eSst/uyDvGFGfc6dcmNNPG50T607Nue+9LNM+9NsZvmp+lqxPUndmpkwaljy3MPOfWp/seiGLl2zOKRPH5cRR5+S8umfz6FMvZNeeewYAYF+MHn1aqqqqDkyPmVf7tz6lATnlv52Zc845t3A7KdsblmRtaVymf+KKjKpZl0dvvSVPNiXZ9Wz+qzw2F4wbnfqR27PwxyuyPUlGT877ThuUtc+uzqgpV+TC00dn+LDTc+60y/M77z09A6ub88zc/51/XtphOWr7MRt/+WAWruj83Pb0lh1t2Jjjzr4gIwePyOTJ43Pi4GE5c8plufyDZ6b5P36R6mFve81xL50wIVNGD8rgk8/NKUNH5cwPTs6ARxryTJJTzrs0pw18Kcu/+3h2P3yXPfDw8bngA1fnI+8fn8G91mXhHbPyb8936G67eh171Ofc943JwO2r0zB/UTYUhztpn9vrmAw7bVzOPOfcnHPOlEy97MP54CXTcs473pbaHWvy5Df+Lrc+sq7TkRteHpxJ7xyVwW+/IJNPH57jhk3MlEt+N79zRnMW/Vd1Tnxb8twT87J4z1vTlNLod+fMocdm5Bnjc+Kw+lz0nnFZv/CpbNj2dJa3js07Txuat5/53kw+vT6jhg3L6Rd8OJdc8bu54OS+WfuTeVnyxi8GACg49tiBOe+887Ny5bP5xS/+szi8V37rt07PyJGj8vjjj6ap6eXi8D455ZTTsnPn1lRVVRWHgDewevXqYolDwIpfoPKtmJtvLliUVRuak1JdhtePSX39iAxoeTnPPPGtzPmLWXm40/meRbnzy/dn+cZy+g+fkIlnjUipefeJtXKW3vWpzLznsTyzsZTjRozLxIsuyvjhdWlubMh9cz6V2fM6nzxK1uXhmz6ROQ8tydqttRlePyEXvPeijB81NL3XLcnytYXpHa1bkDk33Z9ntif9z74hf/1RK38BAA47/Yamvn5MF7cRGZJSxl41PRMHJpt+fFen1aWbFnw1j65Jl5d8bv75rPzN1xelaeCYTDx/UsaOODZZuyQPd9lv7qvG3Pv3t2b+s+tS7jci48+/KOOHl/Kbh2ZnTkPXe+5ueuDLufuJxjT3rUv92ZNSX1NO1zN366IHvmhSxg4pZcPSebn98zfm7iX7tmfuPisNaO/9238X/Uopb2zM4gW3Zub/ujF3/riL97HxnvzdbfPyzIa2zwIXnD8hw0uNefCW2Vm4tTi5zeJ/mpMHlzel3H9Exp89KYEuvjEAABCNSURBVMN7Ne95b9bPm5VPz5mbpWubUzN8TMafPzUT3zE0tZuWZP4ds3Pv8sKdAQBvat26F5Mk9fVjUlNTUxx+UzU1NXnHO8YmHe4L4EhRNWjQoNZikUNn0qRJxRIcEVpbW1NTMygPP/xAcQgAAPbL1KmXpKqq6vDuMafemNsuHZ1nHrgms+cVBwEASJKPfez3cs4552Xbtm35zW867tvw5kaMGJk+ffrk8ccfzb/8yz8Xh/fZxRdfmq1bX7LiF/ZRQ0NDscQhYMUvAAAAAABw2Ljnnn/K97//vWzbti2nnlq/T7etW5szb95Duffee4p3C9DjWfHbzaz45UhlxS8AAAeaFb8AABxoVvzC/rHit3tY8QsAAAAAAABQ4QS/AAAAAAAAABVO8AsAAACHyrxZue46l3kGAADgwBP8AgAAAAAAAFQ4wS8AAAAAAABAhRP8AgAAAAAAAFQ4wS8AAAAAAABAhRP8AgAAAAAAAFQ4wS8AAAAAAABAhRP8At2mtXVXqquri2UAANhn1dXVaW3dpccEAOCA2d1jAlQKwS/Qbcrlco45ZkCxDAAA++yYYwakXC7rMQEAOGB295gAlULwC3SjlgwZMrRYBACAfdbWV7boMQEAOGBe7TEBKoPgF+g2u3aVM3Lkyenbt6Y4BAAAe61v35qMHHlydu0qp6Vlhx4TAIC3rGOPCVApBL9At2ltbcnOnVtz+ukTikMAALDXTj99Qnbu3JrW1hY9JgAAB0THHhOgUgh+gW5RVVWVJCmXt6Zfv9qcffZ5VmUAALBP+vatydlnn5d+/WpTLm9NVVVVqqqq9JgAAOy3Yo+ZDucyAQ531TU1NTOLRQ6dYcOGFUtwRKmqqsquXeXU1NRm1KjT0rt3KTt37ky5vCOtra3F6QAAHOGqq6szYMDAjBx5cs4446yUSlXZubMt9N1NjwkAwL54sx5T8Av7bvXq1cUSh0DVoEGDfOrtRpMmTSqW4Iiy+8Rba2trqqqqU119VJLqlEqlVFW5KAEAAJ21tu5KuVxO0pKWlh1pbW15zQk5PSYAAPtib3pMYN80NDQUSxwCgt9uJviFzifmAABgX7zeCTk9JgAA++v1ekxg7wl+u4evOgPdrmMjtfsGAACvp9g3dtU/6jEBANgXxb5R/whUIit+u5kVv9CZFRkAAOytvT0Zp8cEAGBv7W2PCbwxK367h+C3mwl+AQAAAAAA6EkEv93DpZ4BAAAAAAAAKpzgFwAAAAAAAKDCCX4BAAAAAAAAKpzgFwAAAAAAAKDCCX4BAAAAAAAAKpzgFwAAAAAAAKDCCX4BAAAAAAAAKpzgFwAAAAAAAKDCCX4BAAAAAAAAKpzgFwAAAAAAAKDCVQ0aNKi1WOTQmTRpUrEEAABw0LQcd3S2nj0y28eekJZja5Jq3wfukVp2pfrlremz9PnUPLEy1Ru2FGcAAAAcNA0NDcUSh4Dgt5sJfgEAgENly7vqs+Wi+rYfelUVh+mJdrV95D96wfIc/e/Li6MAAAAHheC3e/hqNwAAwBGg6SNnpvmdJ7cFvkLfI0f777v5nSen6SNnFkcBAADoQQS/AAAAPdyWd9Vnx6nHp7VvqTjEEaK1byk7Tj0+W97VvuIbAACAHkfwCwAA0IO1HHd0tlxUL/QlrX1L2XJRfVqOO7o4BAAAQA8g+AUAAOjBtp49sljiCOdvAgAAoGcS/AIAAPRg28eeYE9fXtWrqu1vAgAAgB5H8AsAANCDtRxbUyxxhPM3AQAA0DMJfgEAAHqyah/7KPA3AQAA0CP5tAcAAAAAAABQ4QS/AAAAAAAAABVO8AsAAAAAAABQ4QS/AAAAAAAAABVO8AsAAAAAAABQ4QS/AAAAAAAAABVO8AsAAAAAAABQ4QS/AAAAAAAAABVO8AsAAAAAAABQ4QS/AAAAAAAAABVO8AsAAAAAAABQ4QS/AAAAVLjV2TTlc1k95XPZ8Mjm4iAAAAAcEQS/AAAAHHybX86278/Pxk99Jc+3h7Srp3wpL/7fc9PU8HJxduV54Vdp+tu7s+GOX2VncQwAAAAOAcEvAAAAB1Xrssez7ve+lPVf/Em2PLU+LXtGXs6ORYvzyorKX6Vb/uHcvPLYs9n67W+meVlxFAAAAA4+wS8AAAAHz9Zns2nmI9n+UpJBp6T/zD/IkH+dkaH/OiND//VP87aZF+foAb2LR1Wc3hPfmZqhSfUZF6bvyI4jO9OyaHE2fek7efHbqzsOAAAAwAEl+AUAAOCgaf2vFXnlpSTpl2NmfDj9zx2S3v36ple/vunV79iUzj0rA6cNKR5WcapOPivH/fNnc8IX3pmjajqObMv2783NprnLsmNHxzoAAAAcWIJfAAAADppdm3bv31uX3idU/speAAAAOFwJfgEAADhoqt8+LKUkybPZ/H+WZWdxQtG6pdkw5XNZPeVz2fSavXJXZ1P72Op73uCyyZvXp/mOb+aFyz+X1VNuzgufeTibl24rTkrz33a4r07HfCkvfvGnKe/eevilZ/PKF+/M2im7x36SHU2Fu1v2eNt9TflOmte1lXbc0/b4Lz3WPuef72yf09VrAwAAgLdG8AsAAMDBc/Jvpf+7+iVJynO/k3WfmpvNT21Oa3HegbJ5ZTb95Vfy0rd/lfJLSbI55Yaf5uUbvpKXHtm9+rig6dnCMS9nx/cfzgt/+ZOUX1ial/7w7jR9f3V7aP1ydnx/fl78zOMpu3QzAAAAhxHBLwAAAAdRv9T8r+k57tJhSZKWpxbn5U/dnOc+9p288tTuJbUHztYv/SDbJ1yZEx76bIbN/2xO/MaV6T8mbSt8b1uc7V2FtQ88km0Tr87QeZ/NsHkzUvextueaZfPzwlX3Z+d7rswJ8z6bYfNn5G1/OqZ97JE0/+cbr18+6qrPZtj8T2bQ5PbCx6Zn2Py259X2nAAAAODAEfwCAABwcFUfm5o/np4TvjAltSPbVv9mzbI0fermvPjlX7355Z/3xeR3Z9DHTkn1UW0/VtWdkv6fujh9kuSlx7Otq7D25CkZeNVJ6VWdpLpv+vzOhTmm49j0U1JdnSR9U3rPmXvGtq1cv+cuAAAAoLsJfgEAADgkqs84J4Pu+NOc8IWLc/QZbQHwjge+mZfuWX3ALv1cc97IVBeLw09oC36T7NxU3Os3yXnD2/chbnfUwJTObf/3Oa8/Vt7aRYgMAAAA3UTwCwAAwCHUO9VnnJWBX5ieQe17/+7458fTvKY4rzv1zp70+DUpcocxAAAAOIwIfgEAAOgGx6b2/We1//tXaWkqDB9IO8oHbEUxAAAAHK4EvwAAABw0LU8uzY7NxWqb1ldeZ6Bdy0uFyzKvWZcdnSuvsWPFuteEvK3/uSLNSZIhOert7XsMAwAAQA8j+AUAAODg2bIsL/7e3dn4wLKUX9iWXZu3ZdfmzSk/+Xg2/O+fts0Z9M70Obl9ft3gHNX+7y3f+km2vdReb1qdV/6fR9LFDr2dtHz7X7Pxe2uzq6Xt512/XpyNs3+SliSZeFZqdj9Od1i2KuU3zroBAABgvwl+AQAAOLheejZbvvydvHDV7Kz5wOys+cDNeeHGR9pC3UEnpf/Md6bPUbsnD0nt745t20Z32eNZf/nnsnrK57L6Q3dma/1ZebP1ujW/81vZNeerWTO17bg1181N80tJBo3NoD8dn97FAw66fjlq4ilt/3xyfl74QNvz2rSsOA8AAADeGsEvAAAAB0315IvztpnTcsx7Tkqfkbtj22Nz1IQx6ffHV2bI165O/zGd49jqye/P4JkX5ugxx7YVhg7L0R+fnsFXnfTmH2JHn5Pj7rwsx0wa3BYeDxqcvtMuzvFfvSy1bytOPjR6v+cDOf7j43PU0Lafq0eekuqa4iwAAAB4a6oGDRpU3P6IQ2jSpEnFEgAAwAHz4k2XFEuQ4z/9YLEEAABwwDQ0NBRLHAJv+mVpAAAAAAAAAA5vgl8AAAAAAACACif4BQAAAAAAAKhwgl8AAAAAAACACif4BQAAAAAAAKhwgl8AAAAAAACACif4BQAAAAAAAKhwgl8AAAAAAACACif4BQAAAAAAAKhwgl8AAAAAAACACif4BQAAAAAAAKhwgl8AAICerGVXscKRzt8EAABAjyT4BQAA6MGqX95aLHGE8zcBAADQMwl+AQAAerA+S59PdrUWyxypdrW2/U0AAADQ4wh+AQAAerCaJ1YWSxzh/E0AAAD0TIJfAACAHqx6w5YcvWB5qraVi0McYaq2lXP0guWp3rClOAQAAEAPIPgFAADo4Y7+9+U56ukXhb9HsKpt5Rz19Is5+t+XF4cAAADoIQS/AAAAR4AB//Kz1D7+67b9fu35e+Ro/33XPv7rDPiXnxVHAQAA6EGqa2pqZhaLHDrDhg0rlgAAAA6Ko57ZkL5PrU5VS2t2HdMnrX16J72qitPoCVp2pXpjc2p+9pv0/87i9PnF88UZAAAAB83q1auLJQ6BqkGDBvmqdzeaNGlSsQQAAAAAAAAVq6GhoVjiEHCpZwAAAAAAAIAKJ/gFAAAAAAAAqHCCXwAAAAAAAIAKJ/gFAAAAAAAAqHCCXwAAAAAAAIAKJ/gFAAAAAAAAqHCCXwAAAAAAAIAKJ/gFAAAAAAAAqHCCXwAAAAAAAIAKJ/gFAAAAAAAAqHCCXwAAAAAAAIAKJ/gFAAAAAAAAqHCCXwAAAAAAAIAKJ/gFAAAAAAAAqHCCXwAAAAAAAIAKJ/gFAAAAAAAAqHCCXwAAAAAAAIAKJ/gFAAAAAAAAqHCCXwAAAAAAAIAKJ/gFAAAAAAAAqHCCXwAAAAAAAIAKJ/gFAAAAAAAAqHCCXwAAAAAAAIAKJ/gFAAAAAAAAqHCC327W0tJSLAEAAAAAAEBFkn11H8FvN9u2bVuxBAAAAAAAABVJ9tV9BL/dbMuWLcUSAAAAAAAAVCTZV/cR/HazpqamYgkAAAAAAAAqkuyr+wh+u9mGDRuyc+fOYhkAAAAAAAAqys6dO7Nhw4ZimUNE8HsYWLt2bbEEAAAAAAAAFUXm1b0Ev4eB5557Ltu3by+WAQAAAAAAoCJs3749zz33XLHMIST4PQy0trZm5cqVxTIAAAAAAABUhJUrV6a1tbVY5hAS/B4mNm7cmMbGxmIZAAAAAAAADmuNjY3ZuHFjscwhJvg9jDz//PPCXwAAAAAAACpGY2Njnn/++WKZblA1aNAga64PMwMHDszIkSPTp0+f4hAAAAAAAAB0u+3bt2flypVW+h5GBL+Hqaqqqpx44okZMmRIevfuXRwGAAAAAACAQ27nzp1Zu3ZtnnvuOXv6HmYEvxXguOOOy4ABA3L00Uenb9++qa6uLk4BAAAAAACAA66lpSXbtm3Lli1b0tTUlA0bNhSncJgQ/AIAAAAAAABUuF7FAgAAAAAAAACVRfALAAAAAAAAUOEEvwAAAAAAAAAVTvALAAAAAAAAUOEEvwAAAAAAAAAVTvALAAAAAAAAUOEEvwAAAAAAAAAVTvALAAAAAAAAUOEEvwAAAAAAAAAVTvALAAAAAAAAUOEEvwAAAAAAAAAVTvALAAAAAAAAUOEEvwAAAAAAAAAVTvALAAAAAAAAUOEEvwAAAAAAAAAVTvALAAAAAAAAUOEEvwAAAAAAAAAVTvALAAAAAAAAUOEEvwAAAAAAAAAVTvALAAAAAAAAUOH+fxuZRQ84WpArAAAAAElFTkSuQmCC;" vertex="1" parent="1">
          <mxGeometry x="40" y="170" width="1918" height="992" as="geometry" />
        </mxCell>
        <mxCell id="oXK44TCzweg5uLpszrzs-2" value="" style="endArrow=classic;html=1;rounded=0;strokeColor=#ff0000;" edge="1" parent="1">
          <mxGeometry width="50" height="50" relative="1" as="geometry">
            <mxPoint x="1354" y="320" as="sourcePoint" />
            <mxPoint x="1210" y="379" as="targetPoint" />
          </mxGeometry>
        </mxCell>
        <mxCell id="oXK44TCzweg5uLpszrzs-3" value="&lt;font color=&quot;#ffffff&quot; style=&quot;font-size: 22px;&quot;&gt;Every time the Search button is clicked, a request is made to the backend with the name that was entered, and the table is updated according to the returned results.&lt;/font&gt;" style="text;html=1;align=center;verticalAlign=middle;whiteSpace=wrap;rounded=0;" vertex="1" parent="1">
          <mxGeometry x="1350" y="310" width="310" height="90" as="geometry" />
        </mxCell>
        <mxCell id="oXK44TCzweg5uLpszrzs-5" value="" style="endArrow=classic;html=1;rounded=0;strokeColor=#ff0000;exitX=1;exitY=0.5;exitDx=0;exitDy=0;" edge="1" parent="1" source="oXK44TCzweg5uLpszrzs-7">
          <mxGeometry width="50" height="50" relative="1" as="geometry">
            <mxPoint x="934" y="320" as="sourcePoint" />
            <mxPoint x="790" y="379" as="targetPoint" />
          </mxGeometry>
        </mxCell>
        <mxCell id="oXK44TCzweg5uLpszrzs-7" value="&lt;font color=&quot;#ffffff&quot; style=&quot;font-size: 22px;&quot;&gt;Input field to filter the results based on the name of the medicine&lt;/font&gt;" style="text;html=1;align=center;verticalAlign=middle;whiteSpace=wrap;rounded=0;" vertex="1" parent="1">
          <mxGeometry x="360" y="370" width="310" height="30" as="geometry" />
        </mxCell>
        <mxCell id="oXK44TCzweg5uLpszrzs-8" value="" style="endArrow=classic;html=1;rounded=0;strokeColor=#ff0000;exitX=0.5;exitY=1;exitDx=0;exitDy=0;" edge="1" parent="1" source="oXK44TCzweg5uLpszrzs-10">
          <mxGeometry width="50" height="50" relative="1" as="geometry">
            <mxPoint x="284" y="550" as="sourcePoint" />
            <mxPoint x="140" y="609" as="targetPoint" />
          </mxGeometry>
        </mxCell>
        <mxCell id="oXK44TCzweg5uLpszrzs-10" value="&lt;font color=&quot;#ffffff&quot; style=&quot;font-size: 22px;&quot;&gt;Selection row to select the medicine to add the stock for&lt;/font&gt;" style="text;html=1;align=center;verticalAlign=middle;whiteSpace=wrap;rounded=0;" vertex="1" parent="1">
          <mxGeometry x="60" y="290" width="250" height="90" as="geometry" />
        </mxCell>
        <mxCell id="oXK44TCzweg5uLpszrzs-12" value="" style="labelPosition=right;align=left;strokeWidth=2;shape=mxgraph.mockup.markup.curlyBrace;html=1;shadow=0;dashed=0;strokeColor=#FF0000;direction=north;flipH=1;" vertex="1" parent="1">
          <mxGeometry x="1680" y="950" width="20" height="100" as="geometry" />
        </mxCell>
        <mxCell id="oXK44TCzweg5uLpszrzs-14" value="&lt;font color=&quot;#ffffff&quot; style=&quot;font-size: 22px;&quot;&gt;Input fields required to add the stock for an existing medicine&lt;/font&gt;" style="text;html=1;align=center;verticalAlign=middle;whiteSpace=wrap;rounded=0;" vertex="1" parent="1">
          <mxGeometry x="1700" y="980" width="170" height="60" as="geometry" />
        </mxCell>
        <mxCell id="oXK44TCzweg5uLpszrzs-15" value="" style="endArrow=classic;html=1;rounded=0;strokeColor=#ff0000;exitX=0;exitY=0.5;exitDx=0;exitDy=0;" edge="1" parent="1" source="oXK44TCzweg5uLpszrzs-16">
          <mxGeometry width="50" height="50" relative="1" as="geometry">
            <mxPoint x="1224" y="1020" as="sourcePoint" />
            <mxPoint x="1080" y="1079" as="targetPoint" />
          </mxGeometry>
        </mxCell>
        <mxCell id="oXK44TCzweg5uLpszrzs-16" value="&lt;font color=&quot;#ffffff&quot;&gt;&lt;span style=&quot;font-size: 22px;&quot;&gt;Submit button makes sure that all fields are filled up and then sends a request to the backend to make the necessary updates&lt;/span&gt;&lt;/font&gt;" style="text;html=1;align=center;verticalAlign=middle;whiteSpace=wrap;rounded=0;" vertex="1" parent="1">
          <mxGeometry x="1240" y="1040" width="340" height="100" as="geometry" />
        </mxCell>
      </root>
    </mxGraphModel>
  </diagram>
</mxfile>
